<?xml version="1.0" encoding="UTF-8"?>
<svg version="1.1" viewBox="0 0 1280 1280" width="1280" height="1280" xmlns="http://www.w3.org/2000/svg">
<path transform="translate(0)" d="m0 0h1280v1280h-1280z" fill="#B18F59"/>
<path transform="translate(320,547)" d="m0 0h2l2 7h5l2 4 4 2 1 1v7l-4 1-2 3h-2l2 5 5 3-1 8-4 6-5 3h-2l-1 3-4 4-1 2v7l7 15 1 9-4 7-5 6h-5l-4 6-3 3-6 1-2 1h-9l-4-1h-7l-7-2v-2l-10 3h-14l-7 2-16 3-3 3 1 10 4 7h17l11-1 1 1 13-1 12-1 2-1h38l6 5 3 4 1 10 2 2v10l-8 6h-4l-1 5-6 4h-17l-17 1h-19l-10 1-8-1-4 1h-4l4 6 8 5 3 4 13 1 15 2 19 1h20l5-2 14 1 7 13v3h2v-2h2l2-5 4-5h2v-2l24-16h16l2 1-5-9-12-16-4-6-20-25-7-2-9-1-3-3 1-9 4-9 3-6 8-7 11-7 9-6h12l9 4 6 7 9 12 3 3 7 13 2 6 7 6 4 6v-3-12l5-12 2-3h2l2-5 4-6 5-3 5-2 6-6 7 1 2 1 4 16 5 5 5 2 3 3 5 4-1 8-3 7-9 16-4 2v2l-6 1-1 4-6 5-9-1v6l2 4 5 5 3 7 5 2 4 4 2 1 2-4 5-4 5-2 8-7h15l2 1v2l4 2 5 5 6 4 3 6 2 1-2-11-2-3v-7l-1-3v-11l-1-3 7-18 10-9 4-5h2l2-5 10-6 11-9 3-5-1-7-5-6-4-5-6-5v-2h-2v-2h-2l-6-9 1-4 4-5 5-2 3-1 1-2h2l1-3 6-2h4l1-7 4-3 5 1 1 1 3-8h2v-2h5l8 8 3 6 4 4 3 6 2 2v6l-5 7-8 4-2 4-8 3 1 4 2 3h7l4-6 4-2h4v2h3l-1-4 6-3h10l9 3 4 3 5 1 3 4 9 3 6 6 3-5 6-2 3 1 2-7 8-2h8l6-1h8l4 2 4 5v2l3 1 5 6 2 8 3 2 1-10 1-2 1-14-6-11 1-5 4-3 8 1-1-5 5-4h15l14-1 10 2 3 2 1 10-3 10-3 4-2 15-1 2v6l2 1h33l8-1 10 3 2 1 10 1 3 2-1 8 3 3v2l3-3 5-8 3-9 2-11 2-1h7l1 1 3-9h8v2h16l7 3 2 1 2 7-4 5-3 8-5 7v7l1 3 5-1 2 1h18l3 3-1 8-6 6-4 8-1 4-2 1-2 5-3 2 2 1v7l-2 7-1 8v12l2 12 5 10 3 2h6l8-5 2-6 5-10 4-11 3-9 3-11 2-17 3-9 1-2 4 1 2 1v2h2l1-6-5-1-3-5v-36l-1-1v-5l4-2h8v-6l9-3h12l4-2 9 2 5 9 1 16-2 17v8l-4 19-1 13-6 15-3 9-7 14-9 10-7 8-18 14-5 4-11 3-10 4-4 1-16 1-28-1-11-5-8-13-3-17v-17l3-12 4-5 4-10 6-8 6-11 2-6h-22l-5-2h-2l-3 14-2 10-5 13-6 10-10 15-5 5-9 8-4 4-7 4-3 4-20 8-5 3-14 2-10 5-20 2-16 1h-12l-20 1-6-3-2-3-1-7 3-13v-12l-1-7h14l-2-5v-3h21l7-1v-14l3-5 4-4h-2l-1-3v-6l2-5 5 1 2 2-1 10 6-5 1-3h-2v-6l-1-2-7 1-1-1 1-12 2-8 3-8 3-2v-2h-11l-10 2-8 4-14 1-3 2h-6l-1 3h-2l1 3 5 2v6l-3 3-1 5 3 1v8l2 3-1 7-2 3v8l-6 11-4 6-11 9-12 9h-2v2l-14 9-5 4-6 3-5 3-9 4-28 6h-7l-6-4-2-2-9-3-6-7-3-3-5-10-3 2-4 9-6 7-8 5-3 1-1 3-6 3h-9l-7-3-7-7-5-7v-2l-4-1-4-5-6 5-4 4-6 4-6 5-3 1h-8l-6-5v-2l-4-1-2-4-8-7-4-8-2-1v-2h-4l-7 8-2 3h-2l-1 4-5 9-5 4-5 3-4 5-4 2-6-1-7-8-2-4-5-1-6 2-7 3-5-2-5 1-4 7-12 3-18 2-17-1-10-2-13-2-11-4-6-2-8-5-12-9-11-19-3-10-4-7-4-4 2-8h-4l-1 4-3 5h-10l4 11-1 9-4 4-7 3-3 5-12 4-10 1-5 4h-4v2l-5 5-3 2-7-1v-2l-5-2-8-14-5-16 1-6 12-11 8-4 6-5 6-1 8 2-4-8-1-9 4-6 9-4 4-5 11-4 18-1 6 2v2h2l-4-10-4-6-3-9-1-6v-10l1-2h2v-9l8-9 7-4 11-8h4v2l12-5 2-1 10 1 6 4h8l-1-3 1-1 9-1 12 5v-2h12l-10-20-1-5v-3l-4-3 1-10 4-2v-2l8-1 2-5 5-3 8-1 5-4h7l1-6z" fill="#F40403"/>
<path transform="translate(320,547)" d="m0 0h2l2 7h5l2 4 4 2 1 1v7l-4 1-2 3h-2l2 5 5 3-1 8-4 6-5 3h-2l-1 3-4 4-1 2v7l7 15 1 9-4 7-5 6h-5l-4 6-3 3-6 1-2 1h-9l-4-1h-7l-7-2v-2l-10 3h-14l-7 2-16 3-3 3 1 10 4 7h17l11-1 1 1 13-1 12-1 2-1h38l6 5 3 4 1 10 2 2v10l-8 6h-4l-1 5-6 4h-17l-17 1h-19l-10 1-8-1-4 1h-4l4 6 8 5 3 4 13 1 15 2 19 1h20l5-2 14 1 7 13v3h2v-2h2l2-5 4-5h2v-2l24-16h16l2 1-5-9-12-16-4-6-20-25-7-2-9-1-3-3 1-9 4-9 3-6 8-7 11-7 9-6h12l9 4 6 7 9 12 3 3 7 13 2 6 7 6 4 6v-3-12l5-12 2-3h2l2-5 4-6 5-3 5-2 6-6 7 1 2 1 4 16 5 5 5 2 3 3 5 4-1 8-3 7-9 16-4 2v2l-6 1-1 4-6 5-9-1v6l2 4 5 5 3 7 5 2 4 4 2 1 2-4 5-4 8-1 9 1 10 8 5 5 4 6 5 3 11 1 1 1v5l-5 10-4 5-2 7-5 5h-2l-1 3-6 3h-9l-7-3-7-7-5-7v-2l-4-1-4-5-6 5-4 4-6 4-6 5-3 1h-8l-6-5v-2l-4-1-2-4-8-7-4-8-2-1v-2h-4l-7 8-2 3h-2l-1 4-5 9-5 4-5 3-4 5-4 2-6-1-7-8-2-4-5-1-6 2-7 3-5-2-5 1-4 7-12 3-18 2-17-1-10-2-13-2-11-4-6-2-8-5-12-9-11-19-3-10-4-7-4-4 2-8h-4l-1 4-3 5h-10l4 11-1 9-4 4-7 3-3 5-12 4-10 1-5 4h-4v2l-5 5-3 2-7-1v-2l-5-2-8-14-5-16 1-6 12-11 8-4 6-5 6-1 8 2-4-8-1-9 4-6 9-4 4-5 11-4 18-1 6 2v2h2l-4-10-4-6-3-9-1-6v-10l1-2h2v-9l8-9 7-4 11-8h4v2l12-5 2-1 10 1 6 4h8l-1-3 1-1 9-1 12 5v-2h12l-10-20-1-5v-3l-4-3 1-10 4-2v-2l8-1 2-5 5-3 8-1 5-4h7l1-6z" fill="#F50403"/>
<path transform="translate(590,574)" d="m0 0h5l8 8 3 6 4 4 3 6 2 2v6l-5 7-8 4-2 4-8 3 1 4 2 3h7l4-6 4-2h4v2h3l-1-4 6-3h10l9 3 4 3 5 1 3 4 9 3 7 7 4 13-1 4-2 1 1 4 2 2v5l5 3-1 5h-2l1 3 5 2v6l-3 3-1 5 3 1v8l2 3-1 7-2 3v8l-6 11-4 6-11 9-12 9h-2v2l-14 9-5 4-6 3-5 3-9 4-28 6h-7l-6-4-2-2-9-3-6-7-3-3-5-10-3 2-4 9-6 7-5 1 3-9 4-4 4-9v-5l-11-1-6-4-3-5-5-4-5-5-5-4-9-1h-3l2-4 6-5h15l2 1v2l4 2 5 5 6 4 3 6 2 1-2-11-2-3v-7l-1-3v-11l-1-3 7-18 10-9 4-5h2l2-5 10-6 11-9 3-5-1-7-5-6-4-5-6-5v-2h-2v-2h-2l-6-9 1-4 4-5 5-2 3-1 1-2h2l1-3 6-2h4l1-7 4-3 5 1 1 1 3-8h2z" fill="#F50503"/>
<path transform="translate(1093,602)" d="m0 0 24 2 10 2 6 3 3 6 7 6 3 8 1 18v14l-1 10-2 4v5l-2 3-1 6h-2v2h-2l-1 4-11 9-5 2-2 4-7 3-15 7-12 3 4 2 5 7 8 4 9 12 2 9v9l-4 2v2l-5 2h-3l-1 4-6 5-14 1-7 1-21-2-13-1-3 5-4 4-2 5-5 2h-4l-2 6-4 3-23-1-4-4 1-6 6-10 1-2v-11l-3-1-1-5 3-2 7-1 5 1-3-3 1-5 9-1 18 1 9 4 24 3-1-8 7-1-1-3 1-3-3-1-3-8-6-5h-4l-1 6 2 3 8 1 3 4v3l-4 2-8-3-9-8-7-4-5-4-8-5-3-5-3-1-4-8-4-2-4-9v-11l4-5h2l-4-8 1-7 3-2-1-9 4-3h2l-1-6 1-7 2-6 4-3 3-7h2l1-3h2v-2l7-3 6-5 14-6 25-6z" fill="#F50503"/>
<path transform="translate(370,628)" d="m0 0h12l9 4 6 7 9 12 3 3 7 13 2 6 7 6 4 6v-3-12l5-12 2-3h2l2-5 4-6 5-3 5-2 6-6 7 1 2 1 4 16 5 5 5 2 3 3 5 4-1 8-3 7-9 16-4 2v2l-6 1-1 4-6 5-9-1v6l2 4 5 5 3 7 5 2 4 4 2 1 2-4 5-4 8-1 9 1 10 8 5 5 4 6 5 3 11 1 1 1v5l-5 10-4 5-2 7-5 5h-2l-1 3-6 3h-9l-7-3-7-7-5-7v-2l-4-1-4-5-6 5-4 4-6 4-6 5-3 1h-8l-6-5v-2l-4-1-2-4-8-7-4-8-2-1v-2h-4l-7 8-2 3h-2l-1 4-5 9-5 4-5 3-4 5-4 2-6-1-7-8-2-4-5-1-6 2-7 3-5-2-2-5v-6l5-5 1-4h2v-2h2l2-5 4-5h2v-2l24-16h16l2 1-5-9-12-16-4-6-20-25-7-2-9-1-3-3 1-9 4-9 3-6 8-7 11-7z" fill="#F60403"/>
<path transform="translate(769,594)" d="m0 0 15 1 5 3 1 10-3 10-3 4-2 15-1 2v6l2 1h33l8-1 10 3 2 1 10 1 3 2-1 8 3 3v2l3-3 5-8 3-9 2-11 2-1h7l1 1 3-9h8v2h16l7 3 2 1 2 7-4 5-3 8-5 7v7l1 3 5-1 2 1h18l3 3-1 8-6 6-4 8-1 4-2 1-2 5-3 2 2 1v7l-2 7-1 8v12l2 12 5 10 3 2h6l8-5 2-6 5-10 4-11 3-9 3-11 2-17 3-9 1-2 4 1 2 1v2h2l1-6-5-1-3-5v-36l-1-1v-5l4-2h8v-6l9-3h12l4-2 9 2 5 9 1 16-2 17v8l-4 19-1 13-6 15-3 9-7 14-9 10-7 8-18 14-5 4-11 3-10 4-4 1-16 1-28-1-11-5-8-13-3-17v-17l3-12 4-5 4-10 6-8 6-11 2-6h-22l-5-2h-2l-3 14-2 10-5 13-6 10-10 15-10 10-3-1 7-10 6-9 7-15 3-11 4-24v-10l-3-4v-8l-4-2-11-2-5-2h-36l-3-1-6 1-1-4h-2l3-20 4-7 2-6v-10l-3-3-4-1h-26l-2-2 1-4 4-3h15z" fill="#F50403"/>
<path transform="translate(772,56)" d="m0 0h23l6 4 1-3 6-1 2 1 7-1 3 3v8l4-1v-8l1-2 7 1 12 1 1-2v2l9-1h11l5 4 2-1 2-4 5 1 9 3 3 3v2l-6 1-4-1h-2l1 6 9 4 5 7 1 6-3 5-4 3h-11l-4-1-10-1-5-2-1 4h-8v-2l-5 2h-34l-7-1h-3l-1 1h-7-3v-3h-2v3h-8l-2-2-1-6h-4l-2 8-4-2-3-9-2 3-2 6h-2l-11-33v-2h6l4 10 1 5h2l2-10h7l2-7z" fill="#AE956D"/>
<path transform="translate(536,56)" d="m0 0h7l3 2h8l1-2v2l7-1 10 2 4 3 2-5h5l4 2 1 6 3 2v-8h3l1-2h17l5-1 3 2 5 1 3-3 4 1v2h2l2 5-5 9-2 6-1 17-6 1-4-2-1-3v-12l-2-7-2-1-2-3-3 7h-2v2l-4 2v6l9 2 2 4-1 4-9 2h-26l-7-1-1-4-6-1 1 3-3 2-7 1-3-2-7-1-1-1v-8l-6 1-1 8h-8l-1-2h-2v2h-8l-1-18-5 6-6-6-1 16-1 2h-5l-1-1v-18l1-16 7 6 5 6 7-6 6-7 3 1 1 2 3-3v-1z" fill="#AE956D"/>
<path transform="translate(772,663)" d="m0 0h8l11 4 7 6 3 8 4-2 4-1 3 1-2 6-6 1-4 4-2 7-2 12-3 1-1 10-2 6-4 6h3l5 1-2 4-5 4h-3l-5 5-3 5-5 5-5 3-4 5-9 2-2 4-4 1h-11l-2-3v-13l-4-2-1-3 15-3 9-3 1-2-5-1 3-2 13-4-5-4v-6l2-7 4-20-6-2h-3l2-14 2-1 2 6-1 5h-2v2l8-2 1-4v-8l1-4v-12z" fill="#B18F59"/>
<path transform="translate(431,56)" d="m0 0 9 1h5l3 1v2l4 1 2 6 4 1 1-7 3-3h11l6 1 2 5 2 9 2 2v8l2 1-2 9-5 2-8 3h-7l-7-2 1-13-3 2-3 7-4 3-7 1-3 3h-6v-2l-6-1-8-3 1-4h-2l-2 4-5 4-3 1-4 2v-2l-7-1-3-2-2-15-3-3-1-4 4-4v-2h2l1-9 6-1h8l5 1 3 9 2-2 2-4 6-3h4z" fill="#AE956D"/>
<path transform="translate(590,654)" d="m0 0 7 1 8 7 5 5 5 7 2 9 2 3 2 6 5 2-1 4-2 2-1 6v19l-2 7v7l-4 9-2 6-2 4-6-1-6-7-4-14-2-3-2-6-4-6 1-3-2-3-4-14-4-15-1-2 1-2 5-3 1-17z" fill="#B18F59"/>
<path transform="translate(772,56)" d="m0 0h23l6 4 1-3 6-1 2 1 7-1 2 2v31h6v5l-1 1h-11l-3 1-7-1h-3l-1 1h-7-3v-3h-2v3h-8l-2-2-1-6h-4l-2 8-4-2-3-9-2 3-2 6h-2l-11-33v-2h6l4 10 1 5h2l2-10h7l2-7z" fill="#AE956D"/>
<path transform="translate(769,594)" d="m0 0 15 1 5 3 1 10-3 10-3 4-2 15-1 2v6l2 1h33l8-1 10 3 2 1 10 1 3 2-1 8 3 3v5l-1 1 1 12-3 14-2 10-5 13-6 10-10 15-10 10-3-1 7-10 6-9 7-15 3-11 4-24v-10l-3-4v-8l-4-2-11-2-5-2h-36l-3-1-6 1-1-4h-2l3-20 4-7 2-6v-10l-3-3-4-1h-26l-2-2 1-4 4-3h15z" fill="#0B0203"/>
<path transform="translate(1083,625)" d="m0 0 8 1 4 5v24l1 7-2 22-3 12-6 4-3 9-5 3-4 1-2-4h-2l-6-10-3-11v-13l1-6h-4l-1-4 3-3 4-2 4-10 2-7 4-4 3-7 4-4h2z" fill="#B18F59"/>
<path transform="translate(877,625)" d="m0 0h8v2h16l7 3 2 1 2 7-4 5-3 8-5 7v7l1 3 5-1 2 1h18l3 3-1 8-6 6-4 8-1 4-2 1-2 5-3 2 2 1v7l-2 7-1 8v12l2 12 5 10 3 2h6l4-1-4 5-11 5h-7l-5-5-4-8-2-12 1-19 2-7v-10l5-2 1-5 4-10 7-9v-7l-3-2h-6l-7 1-8-3-5-3v-5l7-11 4-8 1-4-4-6-7-2h-10l-2-1v-9z" fill="#0B0203"/>
<path transform="translate(622,618)" d="m0 0h10l9 3 4 3 5 1 3 4 9 3 7 7 4 13-1 4-2 1 1 4 2 2v5l5 3-1 5h-2l1 3 5 2v6l-3 3-1 5 3 1v8l2 3-1 7-2 3v8l-6 11-4 6-8 7-2-1 7-14 2-10 1-9-2-3v-11l1-11-4-3 1-4h2l1-6-3-2 1-4h3l-1-4h-5v2h-5v-4h2l2-5 4 4-1-4-4-2-5-12-8-6-8-3-4-4-5-1-2-3-9-2h-8l-8 3 2-5 4-2h4v2h3l-1-4z" fill="#0B0203"/>
<path transform="translate(1093,602)" d="m0 0 24 2 10 2 6 3 3 6 7 6 3 8 1 18v14l-1 10-2 4v5l-2 3-1 6h-2v2h-2l-1 4-8 7-3-1 3-3 2-7 3-11 1-8v-28l-2-9-3-7-5-4-3-6-13-4-12-2h-16l-24 5-13 4h-2l2-4 11-5 13-4z" fill="#0B0203"/>
<path transform="translate(213,712)" d="m0 0 4 1 2 3 4 1 2 6 3 4 4 2 4 6 8 5 3 4 13 1 15 2 19 1h20l5-2 14 1 7 13v7l-5 5v10l-5 1-3-15-6-12h-16l-4 2-26-1-31-3-8-1-7-6-8-6-2-5v-8l1-3-5 1-4-3 2-5z" fill="#0B0203"/>
<path transform="translate(719,699)" d="m0 0 5 1 2 2-1 10 1 4 7-3 4-5v-7l5 2 3 1 6 1 4 1v6l-4 16-3 11 4 1 2 4-7 3-11 3-8 1-5-1-5 1-4-4-1-3h4v-2l-4-1-2-5h2v-14l3-5 4-4h-2l-1-3v-6z" fill="#F60403"/>
<path transform="translate(992,621)" d="m0 0 10 2 5 9 1 16-2 17v8l-4 19-1 13-6 15-3 9-7 14-9 10-7 8-9 6 2-4 9-9 7-12 4-13 6-15 2-14 3-16v-10l2-16v-16l-3-5-1-4-7-2h-5l-1 1h-8l-2-2 1-5 9-2h11z" fill="#0C0303"/>
<path transform="translate(217,665)" d="m0 0h1l2 12 4 7h17l11-1 1 1 13-1 12-1 2-1h38l6 5 3 4 1 10 2 2v10l-8 6-4-1-1-7-2-6-2-7-5-5v-2h-38l-10 2-20 1-10-2-1 2-7-1-10-1-3-3 4-1-2-4v-4h-2l-2-7 7-6z" fill="#0B0203"/>
<path transform="translate(586,654)" d="m0 0h4l-2 5-2 3-1 17-3 3h-3l1 4 4 15 4 14 2 4-1 2 4 6 4 9 4 14 5 6 5 2-1 4-6 4h-8l-8-8-5-17-6-10v-3h2v-3h3l-1-5-6 1v-9h-2v-10l-6-7 1-5 6-2-1-7v-9l5-9 1-7z" fill="#0C0203"/>
<path transform="translate(370,628)" d="m0 0h12l9 4 6 7 9 12 3 3 7 13 2 6 7 6 6 9 2 6-1 6-4 2-7-1-7-11-3-3v-2l-4-2-3-5-8-16-6-7-9-12-5-4-10-2h-5v-3z" fill="#0B0203"/>
<path transform="translate(674,56)" d="m0 0h26l4 3h8v36h-6v-20h-6v19l-1 1-10-1 2-1v-3h-2v2h-3v3h-8l-1-3-1-24-6-2-2-2 2-3 3-4z" fill="#AE956D"/>
<path transform="translate(616,56)" d="m0 0 4 2 5 1 3-3 4 1v2h2l2 5-5 9-2 6-1 17-6 1-4-2-1-3v-12l-2-7-2-1-2-3-2 4h-2v2l-7 1v12l10 1v6h-17l-1-19-3-1 2-6h2v-10l2-2h17z" fill="#AE956D"/>
<path transform="translate(436,59)" d="m0 0 9 2 6 4 4 7 1 5-2 9-7 8-5 2h-10l-8-4-5-7-1-4v-7l4-8 6-5z" fill="#FCF9EB"/>
<path transform="translate(460,633)" d="m0 0 7 1 2 1 4 16 5 5 5 2 3 3 5 4-1 8-3 7-9 16-4 2v2l-3 1-2-2 6-11 3-8v-7l-7-5v-2l-5-1-5-5-3-7-2-9-3-2 2-4z" fill="#0B0203"/>
<path transform="translate(493,721)" d="m0 0h15l2 1v2l4 2 5 5 6 4 3 6 6 5 5 10v5l-3 3-4 9-6 7-5 1 3-9 4-4 4-9v-5l-11-1-6-4-3-5-5-4-5-5-5-4-9-1h-3l2-4z" fill="#0B0203"/>
<path transform="translate(1081,625)" d="m0 0 1 3-6 5-3 7-4 5-3 11-4 6-5 1v6h4v19l3 11 5 8v2h2l4 4-2 7-5 1v2l-6-1-2-3 1-5-6-3 1-2h2l-3-4-5-1 1-5 6-2-1-4-3-1-1-4 2-2-1-4-1-2-4-2v-2l4-2v-7l3-7 3-9 4-5 3-6 11-12z" fill="#0F0505"/>
<path transform="translate(462,60)" d="m0 0h13l4 4 1 5-1 3 4 8v6l-4 6-4 3h-14v-19h-4l2-6 2-2z" fill="#F9F6E7"/>
<path transform="translate(704,622)" d="m0 0h8l4 2 4 5v2l3 1 5 6 2 8 3 2-2 5-3 2-9 1-3-4v-4l4-1 1-2-5 2-5-5v-2l-3-1-6-7-7-1-5 1h-9l1-7 8-2h8z" fill="#0B0203"/>
<path transform="translate(396,60)" d="m0 0h12l4 2 2 3v9l3 5v8l-4 6-6 3h-11v-20h-5l2-5 2-2z" fill="#F9F5E6"/>
<path transform="translate(1078,722)" d="m0 0 6 1 4 2 5 7 8 4 9 12 2 9v9l-4 2v2l-2 1h-6l-1-7-2-9-4-4 1-5-5-1-6-3v-5h-4l-1-5 2-1-1-5z" fill="#0B0203"/>
<path transform="translate(786,58)" d="m0 0 8 1 4 5 1 3v27l-1 1h-6v-9l-6 1-1 8h-5l-1-1v-8h-5l3-6 1-1 1-15 5-5z" fill="#FCF9EB"/>
<path transform="translate(231,612)" d="m0 0 11 1 6 4h8l-1-3 1-1 9-1 12 5v-2h12l3 4-1 3-8 3-9-1-12 1-8-3h-9l-1 3-8 1-2-2v-3l-4 1h-11l-10 4-4-1 2-4 7-5h4v2l12-5z" fill="#0C0203"/>
<path transform="translate(536,59)" d="m0 0h8l5 5 1 3v28h-6l-1-1v-8l-6 1-1 8h-6l-1-8-4-2 3-5h2v-15l4-5z" fill="#FCF9EB"/>
<path transform="translate(650,60)" d="m0 0h6l4 4v6l-4 5 4 7 2 1v-2h2l2 3v7l1 4h-7v-2l-4 2h-8l-4-2v-2h-2l-3-8 2-7 4-4v-8z" fill="#FAF7E8"/>
<path transform="translate(1010,754)" d="m0 0 21 1 9 4 26 3 1 7-2 2-21-1h-8l-9-2-9-4h-10v-2l-4-1-1-5z" fill="#0B0203"/>
<path transform="translate(447,707)" d="m0 0 3 1 4 11 5 5 3 7 5 2 5 5v5l-7 5-5-1-11-8-5-10-4-4-1-2v-7l4-6z" fill="#0C0203"/>
<path transform="translate(590,574)" d="m0 0h5l8 8 3 6 4 4 3 6 2 2v6l-5 7-7 1-2-10h-2l-3-6-4-3-3-6-3-3 1-8 1-2h2z" fill="#0B0203"/>
<path transform="translate(523,59)" d="m0 0h1v36h-7l-1-18-5 6-6-6-1 16-1 2h-5l-1-1v-18l1-16 7 6 5 6 7-6z" fill="#FCF9EB"/>
<path transform="translate(320,547)" d="m0 0h2l2 7h5l2 4 4 2 1 1v7l-4 1-2 3h-2l2 5 5 3-1 8-4 6-5 3h-2v2h-2l2-10h3v-2h-5l-3-5 1-3h3v-2h2v-9l1-4-5-2-8 1-1-5 1-2h2l1-6z" fill="#0B0203"/>
<path transform="translate(624,652)" d="m0 0 3 1 3 5 2-2h3l1 4-1 4 8 4-2 6 1 5 8 1 1 5 1 4 1 6-2 1-2 6-5-4v-2l-5 1-1-3v-6l2-5-5 2-3-1v-8l-5-4v-8l-3-1-3-5 2-5z" fill="#0D0203"/>
<path transform="translate(774,58)" d="m0 0 5 1-6 21-5 15-2-1-3-9-2 3-2 6h-2l-11-33v-2h6l4 10 1 5h2l2-10h2l3 8v3h2l1-7 3-9z" fill="#FCF9EB"/>
<path transform="translate(694,59)" d="m0 0h5l1 1v9l5-1 1-9h6v36h-6v-20h-6v19l-1 1h-5l-1-1v-19h-4l2-6h2v-8z" fill="#FCF9EB"/>
<path transform="translate(315,604)" d="m0 0h2v9l7 15 1 9-4 7-5 6-4-1v-15l-3-2-5-11 1-8 3-5z" fill="#0B0203"/>
<path transform="translate(553,60)" d="m0 0h15l6 5 2 4v8l-4 6 2 6 3 6h-8l-7-15 6-3 1-6-3-4-4-1-1 29h-6v-29h-4l1-5z" fill="#FCF9EB"/>
<path transform="translate(848,59)" d="m0 0h13l5 3 4 5v10l-3 4 1 6 3 5v2h-7l-7-14 3-2 3-3v-7l-7-3v29h-6l-1-6v-23l-4-1z" fill="#FCF9EB"/>
<path transform="translate(1029,662)" d="m0 0h2l1 5-4 2 2 6-1 3 2 3h2v-7l2-1 5 5-4 6h-4l1 3 5 2-1 5 5 6 3 2-1 5-7 3-5-1v-5l-5 1-3-3 1-5-4-1v-3h3l2-4 1-5-5-1v6l-2 1-1-3 2-6 4-2-2-6-1-4 5-5z" fill="#0E0404"/>
<path transform="translate(1092,600)" d="m0 0h16l12 2 12 1v4l4 2 2 2 3 2v3h2l4 10 2 6v14l1 2-1 14-1 11-2 8-2 6-1 4-3 1v2l-4 1 1-4h2v-2h2v-6l2-4 1-7 1-1 1-10v-21l-1-11-4-9-6-5-3-6-8-3-15-2-16-1-34 8-10 4-7 4-3-1 2-2 8-4 3-3h4l8-2v-2l10-2 9-1 8-1z" fill="#AE956D"/>
<path transform="translate(723,749)" d="m0 0 5 1 2 1v2l4 1 1 5v9l1 3 16-1-6 7-12 2h-9l-3-4v-11l-1-3-4-1-1-5 3-5z" fill="#0B0203"/>
<path transform="translate(431,66)" d="m0 0h11l6 5 1 2v9l-4 6-4 2h-9l-7-6-1-8 3-6z" fill="#B18F59"/>
<path transform="translate(759,695)" d="m0 0 8 3-5 25-1 2v6l5 3-3 3-8 2h-7l1-6 4-19 2-8-6-1-2-1v-2l9-2z" fill="#0C0203"/>
<path transform="translate(218,667)" d="m0 0h3l2 4-1 4h2l1 8 3-1 14-1 4-1 4 1 10-1h17l5-2h9l9 1h19l4 2 4 6 2 1 3 13v14h-2v2l-5 3-5-1 5-4 4-3v-10l-2-4-1-8-5-6-3-2h-38l-2 1-18 1h-7v2l-2-1 1-2-11 2h-17l-5-8z" fill="#AE956D"/>
<path transform="translate(718,59)" d="m0 0h17v6h-11v3l8 1v5l-1 1h-7l1 13 11 1-1 5-16 1-1-1v-19h-4l1-5 2-2z" fill="#FCF9EB"/>
<path transform="translate(827,59)" d="m0 0h17v5l-1 1h-10v3h7l1 5-7 2-1 13 11 1v5l-6 1-11-1v-19h-4l1-6 2-1z" fill="#FCF9EB"/>
<path transform="translate(593,60)" d="m0 0h17v5l-2 1h-8v2l7 2v5l-7 1v12l10 1v6h-17l-1-19-3-1 2-6h2z" fill="#FCF9EB"/>
<path transform="translate(880,58)" d="m0 0 7 1 4 4v2l-6 1-4-1h-2l1 6 9 4 4 6-1 7-4 5-7 2-6-2-4-4v-2l6-1 7 1 2-7-9-3-5-6v-6l5-6z" fill="#FCF9EB"/>
<path transform="translate(173,729)" d="m0 0 7 1 5 10 1 9-3 6-9 2-2-9-3-8v-8z" fill="#0B0203"/>
<path transform="translate(628,59)" d="m0 0h5l-1 6-5 12-1 18h-6l-1-17-7-17v-1h7l3 7 2 1 2-7z" fill="#FCF9EB"/>
<path transform="translate(232,730)" d="m0 0 5 1 1 4 5 2 4 1 2 3 14 1 3 2 17 1h10l5 1 15-1 4-1h15l3 1 3 6 1 4 2 1v4l-3-1-5-11-14-1-5 2h-26l-24-2-10-2h-7l-5-6-6-3-4-5z" fill="#AE966E"/>
<path transform="translate(499,56)" d="m0 0 2 1v2l4 2 2 5 6 1 2-2 1-5 8-3-2 4-11 12-6-5-6-7-1 15v18l5 1 1-19 5 5h3l5-5v19h7l-1 2-8-1-1-9-6-1-2 2-1 7-1 1h-7l-1-1-1-16 1-20 3-1z" fill="#AE966E"/>
<path transform="translate(707,56)" d="m0 0 5 1h3l2-1h16l4 4-1 5h-1v-6h-17v9l-3 4-1 3h4l1 19h16l1-2-1 4h-19-3-7v-1h6v-36h-6z" fill="#AE956D"/>
<path transform="translate(770,665)" d="m0 0 4 1-2 26-2 5-1 7-1 5h-2l-1 14-1 5 4 6-1 3h-2v2l2 1-10 2-5-2 3-2 10-3-5-4v-6l2-7 4-20-6-2h-3l2-14 2-1 2 6-1 5h-2v2l8-2 1-4v-8l1-4z" fill="#AE966E"/>
<path transform="translate(651,56)" d="m0 0 7 1 2 2 2-1v9l1 5h-2l2 7 5 2 1 9 1 5-1 1h-23l-6-4-1-3-2-1-1-9h2l1-4 3-4v-7l3-5 4-2 2 1zm-1 4-5 4v8l-5 6-1 6 3 7h2v2l4 2h8l4-2v2h7l-1-8-1-4-1-2h-2v2l-4-4-2-5 4-4v-6l-4-4z" fill="#AE956D"/>
<path transform="translate(184,685)" d="m0 0 10 1 1 3 4-1 1 7-4-1v-2l-7 2h-4v2l-7-1h-21l2-4 9-4 5-1z" fill="#0B0203"/>
<path transform="translate(673,59)" d="m0 0h19v6h-7v30h-6v-30h-6z" fill="#FCF9EB"/>
<path transform="translate(763,592)" d="m0 0h23l4 1 2 6 1 10-3 6-3 9-2 4-1 6v6l-2 4h8 3l6 1v2h-16l-3-2v-6l2-10 2-9 3-5 2-7-1-10-4-2-15-1-10 1h-12l-4 3-1 3-3-1 1-7h5l5-1z" fill="#AE956D"/>
<path transform="translate(590,655)" d="m0 0 1 3v5l-3 2-1 15h-2l-1 10 3 14 1 3h3v9l3 9 3 4 3 10v5l4 1v6l4 2 2 2v3l-5-2-5-6-4-14-2-3-2-6-4-6 1-3-2-3-4-14-4-15-1-2 1-2 5-3 1-17z" fill="#AE956D"/>
<path transform="translate(813,59)" d="m0 0h6v30h6v5l-1 1h-10l-2-1v-34z" fill="#FCF9EB"/>
<path transform="translate(708,736)" d="m0 0 4 1 1 4 4 1v2l-6 1 2 8-6-2-6-5h-13l-3-6v-3h21z" fill="#0B0203"/>
<path transform="translate(137,720)" d="m0 0 10 2 5 4 2 6-4 6h-6v-4h-3v-2l-9-1-6-2 6-7z" fill="#0B0203"/>
<path transform="translate(765,662)" d="m0 0 5 2 1 2v10l-1 5v7l-2 5-8 1v-2l2-1-1-6-2-7v-6h4l-3-3v-3l4-1z" fill="#0B0203"/>
<path transform="translate(825,56)" d="m0 0 7 1 12 1v1h-17v9l-3 1-1 6h4v19h11l2 2h-27l1-2h10l1-5h-6v-30h1v8l4-1v-8z" fill="#AE966E"/>
<path transform="translate(462,630)" d="m0 0 7 3 3 3 2 9 2 6 4 1 1 3 4 2v2h5l3 5 1 8h-2v2h-2v6h-2l-1 4-4 7v3h-2v2l-3 3v2l-4 1-3 1 1-3h2v-2l5-5 7-13 4-10v-5l-7-5v-2l-7-2-5-7-2-9v-5l-9-1-5 5h-4l2-4 4-3z" fill="#AE966E"/>
<path transform="translate(370,626)" d="m0 0h14l8 3v2l7 1 1 8 4 2v2l3-1 1 4v2l1 3h2l3 7 3 5h2l3 8 6 9-1 2-10-10-4-9-5-10v-2l-4-2-12-16-4-3-6-2h-12l-9 6-2 1 2-5 4-1v-2z" fill="#AE956D"/>
<path transform="translate(579,60)" d="m0 0h6v29h6l1 1v5h-13z" fill="#FCF9EB"/>
<path transform="translate(803,59)" d="m0 0h5l1 5v30l-1 1h-5l-1-1v-34z" fill="#FCF9EB"/>
<path transform="translate(1082,627)" d="m0 0 1 2-5 6-3 6-3 5h-2l-1 9-2 4-5 7 2 9-1 3v8l2 10 1 4h2l2 6 3 3 1 4-3-2v-2h-2l-6-10-3-11v-13l1-6h-4l-1-4 3-3 4-2 4-10 2-7 4-4 3-7z" fill="#AE956D"/>
<path transform="translate(376,733)" d="m0 0h16l1 1v7l-3 4h-7l-4-3h-14v-2z" fill="#0C0203"/>
<path transform="translate(920,688)" d="m0 0 2 1-2 5-1 4-5 7h2v2l-2 1-1 10-2 13v12l1 5 2 5 2 2-1 2h2l1 3h11l-2 4-2 1h-6l-5-4-4-9-2-12v-12l2-12 2-10-3-1 1-2 3-1 2-5h2l1-5z" fill="#AE956D"/>
<path transform="translate(994,618)" d="m0 0 10 2 4 8 2 18v8l-1 2v9l-3 5h-1l1-14 1-15-1-9-4-8-10-2-3 2h-12l-9 2v-3l5-3h5 3l10-1z" fill="#AE966E"/>
<path transform="translate(1e3 673)" d="m0 0 2 1 1 10-2 1-2 11v8l-5 11 1 2h-2l-1 8-1 4h-2l-2 5-1 4h-2l-2 5-4 6h-2l-1 4-3 1v-3l7-8 8-16 2-7 6-15 1-13z" fill="#AE966E"/>
<path transform="translate(850,681)" d="m0 0 2 1-1 13-1 1-2 13-1 4-3 5-2 2-1 4h-2l-3 9-5 5-7 9-2 5h-6l5-7 5-5 8-12 3-5 6-12 3-8 2-15z" fill="#AE956D"/>
<path transform="translate(681,684)" d="m0 0 2 1-1 12 2 10v8l-2 2-2 15-3 1v4h-2l-1 4h-2v2h-3l-1 5-3-1-2 4h-3l2-4 8-7 7-12 1-8 1-4 2-4-1-7-1-1v-8l-2-1v-5l3-1z" fill="#AE956D"/>
<path transform="translate(591,570)" d="m0 0 5 2 3 1 1 4 5 2 4 6v2l4 1v2l2 1v4l1 4 1 9-2 5-5 1-1 3-4-1v-2l6-3 3-5v-6l-3-3-3-7-4-3-3-6-6-6-5-1v2h-2l-2 8h-1v-7l3-5h2z" fill="#AE956D"/>
<path transform="translate(692,61)" d="m0 0h1v8h-2l-2 6h4v19l-4-1h2v-3h-2v2h-3l-1 3v-30h7z" fill="#AE966E"/>
<path transform="translate(621,616)" d="m0 0h13l7 2 4 3 8 3 3 3h6l2 4 3 2 1 5-8-6-8-3-3-4h-5l-4-4-8-2h-10l-5 2v4h-3v-2l-8 2-1 3-2-2 4-3 1-5 6 1z" fill="#AE956D"/>
<path transform="translate(553,717)" d="m0 0 3 1 1 2h5l2 3-1 4-3 4-1 3-4-3v-2h-10l-2-4 1-5 8-1z" fill="#0C0304"/>
<path transform="translate(1084,723)" d="m0 0 8 1 2 6 7 2 1 4h2v3h4l4 6 2 6 1 17-5 4-6 2-1-3 5-1v-2l3-2v-10l-3-10-7-9-9-5-5-7z" fill="#AE966E"/>
<path transform="translate(743,687)" d="m0 0h4l2 5 1 9-3 1v2l-5 1-1-2-3-1v5l-2-1-1-6 2-7 1-3z" fill="#B18F5B"/>
<path transform="translate(704,619)" d="m0 0 11 1 6 8 4 2v2l6 5 1 11-4-4-2-7-4-5-5-5-1-3-4-1h-8l-6 1h-10l-6 1-1 5-3-3 2-4 5-2 6-1z" fill="#AE956D"/>
<path transform="translate(431,66)" d="m0 0h11l6 5 1 2v9l-4 6-4 2h-9l-7-6-1-8 3-6zm2 2-5 5-1 7 4 7 7 2 5-2 1-4 3-1v-10l-5-2-2-2z" fill="#AE966E"/>
<path transform="translate(911,638)" d="m0 0 2 2-3 4-1 7-5 5-1 9 4-1 10 2 7-1h3l1 3h2v3h-2v-2h-20l-7-1-2-3v-7l7-11 3-7z" fill="#AE956D"/>
<path transform="translate(1e3 752)" d="m0 0 3 1 5-1h7l4 1h14l9 4h4l13 1 2 1v2l3 1-17-1-9-2-7-3-21-1-6 1-1 4-3-1z" fill="#AE966E"/>
<path transform="translate(302,578)" d="m0 0h3l1 4-2 5 1 3 3 3v2l-5 2-2 4h-2v-3h-2l-1-5v-12z" fill="#0C0203"/>
<path transform="translate(199,700)" d="m0 0h2l-1 11 2 4-1 8h-4v-3h-8l-1-1 1-7 7-2v-8z" fill="#0B0203"/>
<path transform="translate(406,754)" d="m0 0h3l-2 5-7 8h-2l-1 4-5 9-5 4-4 1 2-6 6-8 8-9 5-7z" fill="#0B0203"/>
<path transform="translate(583,623)" d="m0 0 8 1 4 7 1 2h-2l-4 8h-5v-8l-4-5 1-4z" fill="#0B0203"/>
<path transform="translate(804,642)" d="m0 0 1 2 5 1 1-2 3 1 13-1 17 5h3v2l5 2-1 8-1 3-3-3 1-5 1-3-13-2-7-3-10-1-7 1h-10l-2-1v-2l3-1z" fill="#AE956D"/>
<path transform="translate(317,605)" d="m0 0 2 4 1 8h2v2h2l4 14-1 10-5 5-3 2-1 2-6-1 1-2h3l7-9 1-8-5-13-3-6v-7z" fill="#AE966E"/>
<path transform="translate(1111,664)" d="m0 0 3 4 1 9 4-1h3l-2 4h-8l-6 5-1-1 1-13z" fill="#110203"/>
<path transform="translate(843,73)" d="m0 0 5 2v11l-3 2-10-4 2-8z" fill="#B18F59"/>
<path transform="translate(493,719)" d="m0 0h15l4 1v2l6 1 1 4 2 3 5 2 3 10-3-3-1-4-5-2-4-5-6-4v-2h-17l-8 6-2-4 5-3z" fill="#AE966E"/>
<path transform="translate(745,61)" d="m0 0h2l10 30v3h2l2-9h3l2 9-6-1v2h-4v-2h-2l-5-16-3-6v-3l-2-1z" fill="#AE966E"/>
<path transform="translate(730,695)" d="m0 0h7l-1 8 2 6-8 7h-4v-5l5-4 1-3h-2z" fill="#0C0203"/>
<path transform="translate(1070,720)" d="m0 0 6 1 3 2 2 4-1 5h-2l1 5-4-4-5-3-3-5 1-4z" fill="#B18F5A"/>
<path transform="translate(876,623)" d="m0 0h9l8 1h7l9 3v2l3 1-1 2 3 1-1 5-3-3v-4l-9-3h-10l-6-1v-2l-8 1-1 6-3-1v-7z" fill="#AE966E"/>
<path transform="translate(700,75)" d="m0 0h6v19l-3 1v-2h-2l-1 3h-6v-1l5-1z" fill="#AE956D"/>
<path transform="translate(264,609)" d="m0 0 1 2 1-2h2v3h12l2-1 5 4-6 1-4-1v2l-4-1-9-3-8 1 1 3-5 1-5-1 4-2 4-4z" fill="#AE966E"/>
<path transform="translate(232,610)" d="m0 0h9l2 1v2l3 1-1 2-4-2-10-1-2 2-11 3-4-1-8 6h-3l2-1 1-5 5-1 1-2 13-1z" fill="#AE956D"/>
<path transform="translate(539,64)" d="m0 0 4 2 1 1v10l-1 3h-7v-13z" fill="#AE966E"/>
<path transform="translate(1050,679)" d="m0 0 3 1 2 3-1 4-1 5 4 1 1 4-2 2-6 1-2-5 1-10v-5z" fill="#B1905D"/>
<path transform="translate(1032,778)" d="m0 0h5v5l-6 6-2 5-6 2v-3l7-14z" fill="#0B0203"/>
<path transform="translate(644,702)" d="m0 0 5 1 2 2 5 2-1 4-2 3-9-2-1-3 1-3-3 1 1-4z" fill="#0B0203"/>
<path transform="translate(787,64)" d="m0 0 5 1v15h-7v-13z" fill="#AE966E"/>
<path transform="translate(173,682)" d="m0 0h3v2l8-1h7l3 3h-10l-14 1-10 4-5 3-1-3h2l1-3 6-3v2l4-2v-1h6z" fill="#AE966E"/>
<path transform="translate(402,76)" d="m0 0 6 1 3 3-1 7-4 3-4-1z" fill="#AE966E"/>
<path transform="translate(891,63)" d="m0 0 2 4-5 2-1 1 3 3 2 1 3 6-3 1-4-6-9-4-1-4 3-3 10 1z" fill="#AE966E"/>
<path transform="translate(856,65)" d="m0 0 6 1 2 2v7l-4 4h-4l-1-9z" fill="#AE956C"/>
<path transform="translate(182,731)" d="m0 0 1 3h2v2l2 1-1 2 3 1-1 10-2 6-4 4-6-1-1-2 8-3 2-5-1-9-3-8z" fill="#AE956D"/>
<path transform="translate(763,718)" d="m0 0 2 4-1 6 4 6-1 3h-2v2l2 1-10 2-5-2 3-2 10-3-5-4v-6z" fill="#AE966E"/>
<path transform="translate(1035,642)" d="m0 0 3 1-1 4h-2v5l3 3-2 5-5 1v-2h-2v-2h-2l1-4 4-2 1-4z" fill="#0B0203"/>
<path transform="translate(604,635)" d="m0 0 6 1 8 2-1 3-5 1v2h-10z" fill="#0B0203"/>
<path transform="translate(408,756)" d="m0 0 3 1-2 4h-2l-2 5-4 2-3 5-2 6-5 5-6 2v-2l6-4 6-10 1-3h2l2-4z" fill="#AE966E"/>
<path transform="translate(468,75)" d="m0 0 7 2 1 2v7l-3 3h-5z" fill="#AE966E"/>
<path transform="translate(968,679)" d="m0 0 4 2 1 2 5-1 2 1-1 5h-3l-1 2-3-2-7-1 1-6z" fill="#0B0203"/>
<path transform="translate(562,741)" d="m0 0h2l2 4-1 6-4 3-4-1v-10z" fill="#0B0203"/>
<path transform="translate(451,711)" d="m0 0 2 1 1 3 7 7 2 5 5 4 3 1 1 3-2 2-3-2v-2l-5-1-3-5-3-6-4-4z" fill="#AE966E"/>
<path transform="translate(1032,665)" d="m0 0 5 4-1 5h-2v7h-4l-2-4 1-4-2-4 4-2z" fill="#AE966E"/>
<path transform="translate(619,657)" d="m0 0 4 2 2 4 2 1 1 8 3 4-5-1-4-4 1-6-6-3v-3z" fill="#B18F5D"/>
<path transform="translate(650,734)" d="m0 0h3l-1 4-3 3-9 1-5 2-2-4 4-2h6z" fill="#100203"/>
<path transform="translate(745,56)" d="m0 0 7 1 4 5 5 2-2 10h-2l-5-14h-8z" fill="#AE956D"/>
<path transform="translate(332,568)" d="m0 0h4l2 3-2 10-7-3-1-6z" fill="#A18964"/>
<path transform="translate(175,711)" d="m0 0 6 1 4 4-1 3-6 1-1-4-4 1-1-2z" fill="#0B0203"/>
<path transform="translate(1038,680)" d="m0 0h3l-1 4h-3v3l5 5-1 5-4-1-1-5 1-1-5-3v-3h4z" fill="#B28D5E"/>
<path transform="translate(649,77)" d="m0 0 4 5 3 6-7 1-3-3v-6z" fill="#AE956C"/>
<path transform="translate(733,753)" d="m0 0h3l1 7v7l14 2-4 2h-11l-2-3v-13z" fill="#AE956D"/>
<path transform="translate(375,728)" d="m0 0 1 3h13l3 2-16 1-7 5-3-1 2-4 6-4z" fill="#AE956D"/>
<path transform="translate(873,77)" d="m0 0h2l1 2 6 1 1 5h-8v-2l-4 3-2-5z" fill="#B18F59"/>
<path transform="translate(537,86)" d="m0 0h6l1 8 6 1-2 2h-5l-1-4h-4l-2 2v-8z" fill="#AE966E"/>
<path transform="translate(1058,729)" d="m0 0h5l6 7-1 4-4-2-8-7z" fill="#0B0203"/>
<path transform="translate(1042,631)" d="m0 0h6l2 2-5 2-2 7-4-2-1-6z" fill="#0E0203"/>
<path transform="translate(724,75)" d="m0 0h7l-2 2-2 1v8l9 1v2h-11l-1-1z" fill="#AE966E"/>
<path transform="translate(876,719)" d="m0 0 5 1 3 2v5l-9-1-1-5z" fill="#0B0203"/>
<path transform="translate(786,86)" d="m0 0h6v9l-3 1v-3h-2v3l-3-1 1-8z" fill="#AE956C"/>
<path transform="translate(1020,670)" d="m0 0h2l3 4v5l-6 4-3-3 1-3 3-3-1-3z" fill="#B09160"/>
<path transform="translate(537,762)" d="m0 0 2 2-7 14-8 5-2-2 4-1 1-3 5-5 4-9z" fill="#AE966E"/>
<path transform="translate(1114,648)" d="m0 0 5 1v2l-3 2-1 5-5-1v-6z" fill="#0B0203"/>
<path transform="translate(315,545)" d="m0 0 4 1 2-1 5 5v2l3 1-2 2-4-1-1-7-5 3h-2l-1 2-1-4z" fill="#AE966E"/>
<path transform="translate(1037,780)" d="m0 0 2 3-1 2h-2l1 3-4 3-1 7h-5l-3-3 5-2 2-5 5-5z" fill="#AE966E"/>
<path transform="translate(568,592)" d="m0 0 5 1-1 3-9 5h-3l1-4h2l1-3z" fill="#0B0203"/>
<path transform="translate(557,711)" d="m0 0 5 1-1 8-4 1-2-3 1-6z" fill="#B0905E"/>
<path transform="translate(294,561)" d="m0 0h9l-2 3-8 2-2 3h-4l2-5z" fill="#0B0203"/>
<path transform="translate(724,65)" d="m0 0h11l-2 4h2v4h-2v2l-2-1 1-5h-6l-2-1z" fill="#AE966E"/>
<path transform="translate(579,627)" d="m0 0 4 2 3 4v6l-3 1-3-5z" fill="#B09161"/>
<path transform="translate(705,733)" d="m0 0 5 2-4 3h-13l-8-1v-2h15l5-1z" fill="#AE966E"/>
<path transform="translate(928,673)" d="m0 0h3l1 6-3 1-2 6-6 2 1-4 5-5z" fill="#AE966E"/>
<path transform="translate(468,765)" d="m0 0h3l-1 4-5 5-3 2-3-1 7-9z" fill="#0F0203"/>
<path transform="translate(335,581)" d="m0 0h1v8 3l-3 2-5 4-1 2h-3l-1-3 8-5z" fill="#AE966E"/>
<path transform="translate(700,754)" d="m0 0 3 1 3 4-1 4-4 4-1-4v-4l-1-3z" fill="#0B0203"/>
<path transform="translate(711,745)" d="m0 0h3l2 4 3 2-2 4h-3l-3-5z" fill="#AF9264"/>
<path transform="translate(1039,720)" d="m0 0 5 2 5 5-6 1-4-4-3-2z" fill="#B1905C"/>
<path transform="translate(760,681)" d="m0 0 2 4 1 6-3 1-1 5-2-1 2-14z" fill="#B0915F"/>
<path transform="translate(975,753)" d="m0 0 2 3-2 4h-2l-1 2-4 3-3 1 1-4 5-5 4-2z" fill="#AE966E"/>
<path transform="translate(688,77)" d="m0 0h2l1 2v9h-2l-1 2-1-2v-10z" fill="#B18F59"/>
<path transform="translate(132,719)" d="m0 0h10l4 2-4 1-5-1-6 3-4 3 1-4z" fill="#AE966E"/>
<path transform="translate(726,759)" d="m0 0 7 2v3l-2 1h-6l-1-4z" fill="#AE966E"/>
<path transform="translate(788,744)" d="m0 0 2 3-3 5h-5l-1-3 5-4z" fill="#160203"/>
<path transform="translate(1038,713)" d="m0 0h5l2 2v3l-6 1-3-2z" fill="#0B0203"/>
<path transform="translate(471,767)" d="m0 0 1 4-1 3h-2v2l-6 1-1-2 8-7z" fill="#AE956C"/>
<path transform="translate(207,675)" d="m0 0 2 1v3h2l2 5v3h-4l-2-4z" fill="#B09161"/>
<path transform="translate(201,700)" d="m0 0h8l2 1-1 4-9-1z" fill="#B18F5A"/>
<path transform="translate(1114,670)" d="m0 0 7 3-3 5-4-1z" fill="#B09262"/>
<path transform="translate(559,690)" d="m0 0 4 2-1 5-2 1-4-4z" fill="#0B0203"/>
<path transform="translate(1050,670)" d="m0 0h3l-1 5-6 2-1-4z" fill="#B0915F"/>
<path transform="translate(613,644)" d="m0 0 7 2-3 5-6-2z" fill="#110203"/>
<path transform="translate(475,82)" d="m0 0 1 4-3 3h-5v-6h2v2z" fill="#AE966E"/>
<path transform="translate(714,768)" d="m0 0 6 1v4l-6 1-1-5z" fill="#0B0203"/>
<path transform="translate(630,681)" d="m0 0 2 1v2l8-1-1 5-2 1-6-3z" fill="#B09262"/>
<path transform="translate(652,676)" d="m0 0h5l-2 4h-2l-1 3-2-1v-2h-4v-2h6z" fill="#B18F5B"/>
<path transform="translate(1032,665)" d="m0 0 5 4-1 5h-5l-1-3z" fill="#B1905C"/>
<path transform="translate(820,77)" d="m0 0h5v9l-4-1z" fill="#B28F59"/>
<path transform="translate(194,705)" d="m0 0h2l1 5-4 2h-3l1-5z" fill="#AF9365"/>
<path transform="translate(569,698)" d="m0 0 4 2 1 7-1 5-2-3z" fill="#B0915F"/>
<path transform="translate(1038,680)" d="m0 0h3l-1 4h-3l-1 5-4-2v-3h4z" fill="#AF9264"/>
<path transform="translate(729,698)" d="m0 0h2l-1 6h2l-1 4-5 3z" fill="#AE966E"/>
<path transform="translate(1076,723)" d="m0 0h3l2 4-1 5-3 1 1-6-3-1z" fill="#AE966E"/>
<path transform="translate(1053,692)" d="m0 0 4 1 1 4-2 2h-5z" fill="#AE966E"/>
<path transform="translate(634,661)" d="m0 0 1 2 7-1v6l-5-2-3-2z" fill="#B1905D"/>
<path transform="translate(317,561)" d="m0 0 4 1 5 2-1 4-6-3v-2h-2z" fill="#AF9367"/>
<path transform="translate(577,720)" d="m0 0h4l1 5h-3l-1 3-2-7z" fill="#AF9366"/>
<path transform="translate(333,554)" d="m0 0 3 4 3 10h-3l-1-7-5-5z" fill="#AE956D"/>
<path transform="translate(566,729)" d="m0 0 4 2-3 5h-4l1-6z" fill="#0B0203"/>
<path transform="translate(1098,693)" d="m0 0 4 2-1 4-5-1v-4z" fill="#0B0203"/>
<path transform="translate(668,666)" d="m0 0h1v5l-6 1-1-3 1-2z" fill="#AE9469"/>
<path transform="translate(738,664)" d="m0 0 6 2 1 4-5-1-3-2z" fill="#0B0203"/>
<path transform="translate(301,559)" d="m0 0 1 2-10 2-5 4v-3l1-2h2v-2z" fill="#AE966E"/>
<path transform="translate(200,705)" d="m0 0 6 3v2h-4v2l-3-1z" fill="#B09161"/>
<path transform="translate(315,545)" d="m0 0 4 1h3l-5 4h-2l-1 2-1-4z" fill="#AE956B"/>
<path transform="translate(1055,711)" d="m0 0 6 2v4h-3l-3-3z" fill="#B0915F"/>
<path transform="translate(803,703)" d="m0 0h2l-1 8h-2v-2h-2l1-4z" fill="#B18F5A"/>
<path transform="translate(214,648)" d="m0 0h3l1 2 3 2-1 1h-7z" fill="#0B0203"/>
<path transform="translate(405,80)" d="m0 0 4 1-2 6-3-1v-5z" fill="#B28F59"/>
<path transform="translate(1052,704)" d="m0 0 4 1 2 4-5 1z" fill="#B09262"/>
<path transform="translate(677,673)" d="m0 0 3 3v2l2 1-6 1-1-4h2z" fill="#AE966E"/>
<path transform="translate(471,78)" d="m0 0 3 1 1 4-2 2h-3l-1-3z" fill="#B18F59"/>
</svg>
