<?xml version="1.0" encoding="UTF-8"?>
<svg version="1.1" viewBox="0 0 880 880" width="1280" height="1280" xmlns="http://www.w3.org/2000/svg">
<path transform="translate(0)" d="m0 0h880v880h-880z" fill="#FDFDFB"/>
<path transform="translate(309,57)" d="m0 0h6v2l6-2 11 2 4-1 3-1h8l6 2 2 7 6 1v2h6 4l27 4 1 5-4 1 5 1 1 7v2h5v1h-5v2h2l2 3 3 1v5l5 2v-4h2l-1 8 6 2-1 3h4v3l-5 1 4 4 2 1 2 4v9l3 4-3 4-1 6h6v4l-7-1 4 8 4 2-6 4v7l3 5-4-1v-2h-2v10l-5-2-2 4-2 13-2 1v-6l-5 2-4 9h-2l1 3 7-2-1 5-3 4-1 4-2 1 1 4 4 11-1 9 2 2v12l-4 5-5 2 2 7 1 4-5-4v-3l-5 1-1 5h-4l-1-8 2-2-1-2-5-1 1-5 4-9 3-8 3-22 1-9h-3l-1 6-4 6-2-4-5-1-2 3-5 2-1 1h-5v-2l4-1v-3h-10v-3h3l-1-3 5-2 1-3h-4v-2l9-3 9-2 3-1 3-5 6 1 1-5-7-2 1 3-3-1-2-4-6-5-4-5v-2h-2l1-4 2-1-2-8-4-3v-2l-4 1-8-7-5 1-9-1-10 3-7-1h-13l-14 2v3l-3 1-2 6-10 10h-2l-2 4-6 7-3 12-4 23-3 10-2-1v-2h-2l-5-5v2l-4-2v-2h-2l-3-8v-6l1-2h2v-2l5-1 1 3-2 5 1 7 3 4 4 1v-20h-2v-2h-2l-1 3-2-3-3-4-3-1-2 5h-3v16l5 14 5 6v2l6 2 1 1 2 32-2 12v14l2 8 1 6v8l-2 6-2 2-1 6v28l4 4v2l3 1 11 15 7 8 6 5 11 4 7 3 18 10 15 11 1-15h1l1 17 4 6 8 8 2 1-1-2v-10l1-9-5-5-2-16-4-9-3 1-1 12-2-1-1-10v-5l1-5 4-12 2-4 1-9-5-1-2-6-1-7 3-12 2-6v-2h2l1-7 8-11 13-18 6-10 3-6 2 2 1 9 4 1v2l7 2 30 10 4 1 10 1 13 4 6 4 3-1 1 6 1-5 4 1-1-2 9 1 3 5 2-2 8 1 12 5 11 7 31 31 4 9v11l-2 14-1 4v18l3 10 4 5 2 1v-3l3 1 2 5h4v3h3l1-2v3h2l1 3-4 1-1-4h-2l2 6 2 9-2 2 1 5 7 2 5 4h2l2 4 2 9 1 9h2v8l-2 4v5l3 4 1 5-1 9 2 5v8l-5 10 1 18-5-2-5-4-10-4-16-2 16 7 10 4 8 5 3 3v7h-2l1 7-3 7-1 10-4-1-7-9-10-6-9-3-9-1 8 4 15 8 8 6 3 4 1 5-4 7-4 6-1 8v13h-2v2h-2l-3-7-6-8v-2h-3l-1 4 5 2 5 8v2h2l1 17-2 2-4-2-1-4 4 1-2-5-9-6 2 5h2v6l-4-1-1-4h-2v-2h-2l2 10-4 2-8-7-6-1v3h-3v-7l-4-1v5l8 8 4 8 1 4-6-1-7-3 3 9-1 3-7-4-11-1v2h9l3 3 1 5-1 1-7-1 3 6 3 2h8l2-11 4-4 5-3 8-3 1-1v-9l3-1 7 3-2 3h-3l5 8 2 1-1 5-3 3-4 14-5 7-6 3-2 3-2 10-7 12-2 9h-4l-1-4-7 3-4 1-5-2-4-25-4-7-3-2-8 1-20 7-18 7-9 3v7l1 2 7-1 14-9 5-2 5 1 2 3h5l9-7 5-2-6 11-9 14-6 9-9 11-8 11-4 3-5 1-2 3v8l4 6h2l6-8 8-7 10-9 4-7h2l2-5 8-11 7-6-3 9-7 10-4 7-10 11-7 8-14 12-4 5-12 3-3 2h-4v-2l-5-2-6-2-5 1-10 7-5 8v3l3-5h2l1-4 5-2v-2l3-1h10l3 2-1 4-16 6h-2v2l11-2 4-3h9v6h2l-2 5-5 9-4 4-10 2-9-6-3-3v-2h-3l4 8 5 4 4 3 3 12 2 7v6l-8 12-1 1h-204l-3-25-1-15-4-7v-4l-8 1-3-4-3-5-11-7h-9l-4-3-2-6-2-2 1-4 11-12-2-5-14-14-2-3-3-1-1 3-5 5-9 10-4-2 1-5 11-13 6-7-2-5-9-11-5-5-4 1-8 8-6 8-3 1-7-8-8-8-7-6-8-10-6-9-9-9-3-5-1-13-4-14-2-9-1-6 5-5-1-6-4-6 1-7 9-8v-6l-2-6v-15l3-11 5-12 6-13v-7l7-19 4-7v-27l-2-15v-17l5-22 2-11 4-10 5-9 6-11 2-15 3-9 9-14 7-6 10-5 15-9 29-15 15-8 8-11 10-15 8-14 3-6-10 3h-11l1-3h11v-7l-3-1-1-5h-3l-4-6-1-9v-12l-1-2 2-8 3-8 1-1h5v-4h-2l-3-3v2l-2-1 1-6 3 1 1 3h3l1-5 2-6v-3l-4 1 2-5-1-9 3-5 1-3-1-21 1-6h5l-2 5-1 5h2l2-4 5-20 11-18 6-9 1-1 9-1 8-8-5 4-3 3-4 1 2-5 4-6 3-3 2-4 5-2h4v-2l5-2 5-7 7-1-1-5 4 1v2l6-3 4-4h3l1-2h2v-2h2l-1 4-2 4-3 2 1 1 3-1 1-4 4-1v-3h5z" fill="#0E0B0F"/>
<path transform="translate(684,113)" d="m0 0h5l3 5 3 9h21l14 3 11 2 10-1h106l13 4 10 5v110h-141l-7-1-1-3-14 7-11 7-15 9-17 8-18 11-8 4h-9l-5-5v-10l4-1v-2l17-5 21-9 10-4 7-4 1-3-6-6v-10l1-4v-18l-1-6h-9l-17 4 3 15 6 12 1 4v8l-5 5h-6l-8-6-4-10-2-7-1-15-10 2-10 4-2 3 1 5 5 3 2 6v14l-3 6-4 4h-7l-5-4-2-5-1-12h-2v-7l-6 1-7 6-13 9-16 8-14 6-15 5-6 1h-8l-7-2-3-5 1-6 6-4 5-1 2-20-1-16-2-26-1-29-18 4h-7l-8-5-1-6h2v-2l8-3 13-2 16-2h26l21 4 12 5 2 4 3 1 2 5v8l-2 9 1 1h13v-7l4-19 3-7 4-5 5-3 5-1h7l7 3 5 8 3 10 3 9 3 14 3 9 3 1 18-4 6-2v-10l-3-22-3-9-5 1-7 1-7-2-2-3v-8l5-3 13-4 2-6 2-7z" fill="#E52D34"/>
<path transform="translate(343,147)" d="m0 0 10 1 4-1 8 7h4l6 7 1 6-3 1-1 4h2l8 10 4 3 1 3 2 1-2-4 7 1 2 2-1 5h-4-3l-3 5-5 2-12 2-4 1v2h4l-1 4-4 2v2h-3v3h10v3l-4 1v2l6-2 5-2 2-3 5 1 2 3 3-4 2-6h3l1 6-2 13-3 15-5 12-3 7h5l1 3 2 1-3 1v6l-3-1-1-4 1-2-4-1-1 7-2-1-7 14-18 24-5 8-1 5h-2l1 3-3 9-2 8 1 7 1 4v2l3-1 3 2-1 11-2 2-3 10-1 2-1 10 1 8 1-9 4-2 3 5 2 5 2 16 5 6-1 8v12l-4-2-9-9-2-4v-6l-1 5-9-6-14-9-11-6-10-4-8-3-12-11-13-18-7-7v-28l2-9 2-2 1-3v-8l-2-12-1-2v-14l2-12-2-32-6-3-6-8-5-14v-10l1-6h3l2-5 4 1 2 3 2 1h3v2h2l1 8v10l-1 2-5-1-4-7 1-7 1-4h-5v2h-2v8l2 8h2l4 4v-2l4 2 1 3h2l1 2 3-9 5-28 3-9 14-14 6-7 2-4 3-3-1-2 15-2h13l8 1z" fill="#D07E61"/>
<path transform="translate(731)" d="m0 0h149v94h-149v-23l79 1-1-2-30-5-35-6-13-2v-19l73-12h5v-3h-78z" fill="#0E0B0F"/>
<path transform="translate(261,258)" d="m0 0 2 2 7 15-1 2 3-1 7 8 2 1v2l4 2 7 6 16 10 8 3 18 2 6 2 4-2h6l-2 5-2 7h-2l1 3-3 9-2 8 1 7 1 4v2l3-1 3 2-1 11-2 2-3 10-1 2-1 10 1 8 1-9 4-2 3 5 2 5 2 16 5 6-1 8v12l-4-2-9-9-2-4v-6l-1 5-9-6-14-9-11-6-10-4-8-3-12-11-13-18-7-7v-28l2-9 2-2 1-3v-8l-2-12-1-2v-14l2-12z" fill="#A36F5B"/>
<path transform="translate(870,817)" d="m0 0h10v63h-148l-1-7v-16l8-3 36-8 34-7 1-2h-79v-18l1-1z" fill="#0F0C0F"/>
<path transform="translate(791,756)" d="m0 0h72l7 3 10 7v34l-12 8-5 2-8 1h-108l-7-3-5-5-4-6-2-7 1-16 5-9 9-6 10-2z" fill="#0F0C0F"/>
<path transform="translate(732,629)" d="m0 0h148v58l-12-2-37-9-18-4-9 1-49 12-19 5h-4v-25l20-4 27-6 6-1 1-2-53 1-1-1z" fill="#0F0B0F"/>
<path transform="translate(766,193)" d="m0 0h114v57h-141l-7-1-1-5 14-15 5-4h52l-1-6-44-1-1-2 7-16z" fill="#0E0B0F"/>
<path transform="translate(732,254)" d="m0 0 41 4 89 11 18 2v34l-1 1-23 2-68 8-29 3-5 1-22 1v-25l31-3h7v-14l-21-1-18-2v-21z" fill="#110D10"/>
<path transform="translate(732,497)" d="m0 0 18 2 33 3 41 5 56 6v34l-53 7-43 5-22 3-25 3h-5v-26l38-4v-13l-33-2-6-2v-20z" fill="#100C10"/>
<path transform="translate(836,691)" d="m0 0h21l12 3 8 6 3 2v35l-10 7-8 3-6 1h-27v-21l1-1 31-1 1-8-5-1h-14l-9 2-13 9-15 12-14 9-12 3h-18l-15-2-6-3-7-8-3-6-1-5v-13l3-9 5-6 9-5 13-2h31v21l-1 1-33 1-4 1-1 10h26l7-3 10-8 13-11 14-9 10-3z" fill="#0F0C0F"/>
<path transform="translate(759,568)" d="m0 0h105l10 6 6 5v32l-14 10-2 1h-37v-20l1-1h32v-9l-31 1-76 1-2 1v6l41 1v21h-41l-8-1-9-8-3-8-1-4v-12l4-10 7-7 6-3z" fill="#110D10"/>
<path transform="translate(731,326)" d="m0 0h149v48h-21l-1-23-39-1v21h-16l-1-20h-52l-1 24-1 1h-17z" fill="#161012"/>
<path transform="translate(756,439)" d="m0 0h35v12l-1 10-40 1-1 7 131-1v24l-33 1h-100l-10-5-6-8-1-4v-17l4-10 6-6z" fill="#0F0B0F"/>
<path transform="translate(751,131)" d="m0 0h106l13 4 10 5v37l-10 7-10 3h-33v-22l34-1v-8h-97l-7-10-13-10-2-3 1-1z" fill="#130E11"/>
<path transform="translate(483,702)" d="m0 0 7 1 5 6 3 13 1 15 8 1 4-3h4l2 4h3l-2 6-7 12-13 17-7 8-13 10-24 16-11 6-5 3h-3v-5h2v-2h3l1-8h-7l-8 2 3-3 12-3 8-9 10-8 11-12 8-10 5-9 4-6 2-6-7 7-9 14h-2l-1 4-7 8-8 7-3 1-1 3-5 5-3 4-4-2-3-5v-8l5-5 5-1 8-10 9-12 4-5 8-13 10-16-5 3-8 6h-5l-3-4-6 1-8 4-11 7h-5l-2-3v-7l6-3 17-6z" fill="#A66E5A"/>
<path transform="translate(732,381)" d="m0 0h148v25h-131v22l-1 1h-16z" fill="#0E0B0F"/>
<path transform="translate(355,165)" d="m0 0h2l2 6h-2l1 2h4l3 1v3l-2 2 2 4 5-2v2h5v9l4 1 1 3-2 3-11 1-5 3-7 1v3h2l1 2v10l4 1 2 2 7 1 4 2h7l7-10 2-6h3l1 6-2 13-3 15-5 12-3 7h5l1 3 2 1-3 1v6l-3-1-1-4 1-2-4-1-1 7-2-1-7 14-18 24-13 1-10-2v-2h-7l-2-2-5-2 1-2 2-2 7-1 4-3h2v2h3l2-4h2v2l5 1 7-6 1-2h2l2-5 5-2v-4l-14-4-1-2-6-1-3-1v-2h2l1-4 2 1-1-4 1-2 4-1 3-1 1-2h2l3 3v-2h2v-3l-7-1-2-4 2-1-1-5 2-1-1-2h3v-3l-4-2-3-2 2-1-1-6 2-6 1-7-2-4 1-6h-2v-2l-5-1-5-4-2-1 2-5-3 1 1-4 5 2 4-1-2-5 1-3 6-2 2-2-1-3z" fill="#EB9577"/>
<path transform="translate(731,100)" d="m0 0h120l29 1v25h-149z" fill="#140F12"/>
<path transform="translate(466,804)" d="m0 0h1l1 24h2l1 11 4 4v8l6 14 1 5v10h-62l-3-5-5-5-4-9 1-7 2-5-3-1-1-6 8-4 7-8 3-6 21-8 14-8z" fill="#0E0B0F"/>
<path transform="translate(171,547)" d="m0 0h4l11 17 10 12 2 17v11l-5 9h-2v2l-7 6-2 5v26l3 13 7 18 5 9v5l-5 8-3 6-4-2-10-8-8-8-5-10-5-5-12-7 1-5 3-1-1-5-2-2 1-5h6l1-9 4-2 1-7v-10l3-12 6-13 7-12 3-11-1-16-3-7-3-3z" fill="#FCFAF8"/>
<path transform="translate(698,139)" d="m0 0h15l17 2 1 1v7l-1 3v14l4 9 5 6 10 5 5 1-1 5h-22v25h7l2 1-2 4-10 9-11 8-8 3-4-23-1-7v-9l10-4 7-2 4-4-1-9-5-1h-18l-2-6-3-17v-19z" fill="#FDFCFB"/>
<path transform="translate(289,311)" d="m0 0h2l1 2h2v2l4 2v-2h3l2 6 5 1 2 5h4l-1-4h4v4l6 1-2 1-1 6 2 1-2 7-4 7h-2l1 6-1 2h6l2 6v2l-2 1 3 3v2l3 1-1 2 2 1h-4l3 7v9 3l-3 3-3 10-6-1-11-6-10-3-6-4-10-9-13-18-5-5-1-4 9 4 6 3 7 3h2l1 2 6 3h4v-4h3v-3l11-3 2-4-1-4-3-1-1-5 1-2-3-1v-2l-6-2-1-3v-2-3h-3v-2h-2l-1-4-1-3-2-1v-3l-3-1 1-6z" fill="#D28063"/>
<path transform="translate(766,156)" d="m0 0h95v8l-2 1h-32v22l33-1 10-3 8-6h2v16h-110l-3-1 1-5h23v-23h-23l-2-4z" fill="#FDFBF9"/>
<path transform="translate(496,735)" d="m0 0h2v2l9 1 4-3h4l2 4h3l-2 6-7 12-13 17-7 8-13 10-24 16-11 6-5 3h-3v-5h2v-2h3l1-8h-7l-8 2 3-3 12-3 8-9 10-8 7-8 8-4h1l2-4 5-4-1-2 3-3v-5l4-1 1-7z" fill="#CE7D61"/>
<path transform="translate(574,199)" d="m0 0h20l4 1 1 6-4 10-4 5-2 5-8 7-8 6-16 8-5 2h-4l-3-7-1-10v-22l15-7z" fill="#FDFDFC"/>
<path transform="translate(351,838)" d="m0 0 9 1 9 4 12 12 4 5 2 8-4 5-14 7h-53l2-4 9-10 14-15 5-4 4 8h20l-5-5-4-1-3 2h-5l1-5-4-2v-5z" fill="#D07F61"/>
<path transform="translate(391,209)" d="m0 0h3l1 6-2 13-3 15-5 12-3 7h5l1 3 2 1-3 1v6l-3-1-1-4 1-2-4-1-1 7-2-1-7 14-9 12-7 9h-5l-1-5 5-2h2v-2l6-5-2-7 5-2-1-4 1-4-1-5h-2l-1-6-2-2 2-5-3-6-2-7 4-1 2 1-4-4v-7l6-6h2v-2h2v2l2-1h3l1 2 9-1 2-4 5-8z" fill="#EAB5A1"/>
<path transform="translate(261,258)" d="m0 0 2 2 7 15-1 2 3-1 7 8 2 1v2l4 2 7 6 16 10 8 3 8 2 1 5-5-1-2-1-1 4-3-3-7-2-3-1-2 2-2-4h-7v-3l-6-1-3-3-8 1-2-2v-7l-1-4h-2l-2-3-2 1 2 8v7l-1 2 5 1-2 2 2 4-1 3 5-1v7 4l1 9-3 1-1 7h-2v2l-4 2-8-1-3-2v-11l2-9 2-2 1-3v-8l-2-12-1-2v-14l2-12z" fill="#945441"/>
<path transform="translate(346,311)" d="m0 0 4 1-3 5-1 5h-2l1 3-3 9-2 8 1 7 1 4v2l3-1 3 2-1 11-2 2-3 10-1 2-1 10 1 8 1-9 4-2 3 5 2 5 2 16 5 6-1 8v12l-4-2-9-9-2-4v-6l-2 2-1-2v-6l-3 1v-2l-2-1 1-3h-5v-2l-2-1 1-2 6 1-1-8-4-4-2-10 1-5v-3-7l2-6-2-1h3v-2h2l-2-7v-17l1-1 1-8-2-1 4-2 1-2 5-1v-2h2z" fill="#935441"/>
<path transform="translate(286,209)" d="m0 0h6l1 3 6 4 6 3 5-1 9 1 4-1 5 1v6l4 2-7 1-1 4 3 2-2 6-4 3-1 5h2l1-2-1 4-1 3-5 2-4 1 3 1-1 2-2-1-1 4 1 2-6 2v-3l-4-2v-3h-3v-2l-2-1v-4-2h-5l-3-5v-6l1-2-3-1 1-5h2l1-5-4-1-1-9 2-4h-2z" fill="#EB9577"/>
<path transform="translate(290,332)" d="m0 0h2v2h3v3l2 1-1 4 6 2 3 3v7l4 1 1 4-5 5-5 2h-4v3h-3v4h-2l-1 2-4-3-4-2v-2l-3 1-20-10-2 1v-17l13 3v2l7-3 2-4 5-1-1-3 6-3z" fill="#C46551"/>
<path transform="translate(869,39)" d="m0 0h11v23l-13-1-37-6-12-2-12-1-2-4 35-5z" fill="#FBF7F5"/>
<path transform="translate(812,780)" d="m0 0h48l1 1v6l-1 1-11 1-68 1h-30l-1-1v-7l1-1z" fill="#F8F1EE"/>
<path transform="translate(538,159)" d="m0 0h27l8 3 2 3v7l-4 5-11 6-4 2-14 1-3-2-4-19v-5z" fill="#FDFDFB"/>
<path transform="translate(212,793)" d="m0 0h6l2 6 4 5v2l4 2 4 5 4-4 5 1 5 5-3 9v11l1 3 7 1 2-3h2v-7h-6l-5 1 4-2v-7l2-2 4 1 6 4v7l-7 14-2 2h-8l-6-4-1-1v-7h-3v2l-4-1-5-4-4-7v-2l5-4 2-5-6-3-3-4-2-8-5-3z" fill="#F5E7E1"/>
<path transform="translate(407,797)" d="m0 0 7 1 8 4v2h4v3h2l2 7 1 6h2v2l-8 2-2 6-9 10-6 2 1 6 2 1-2 7 1 7 4 9 5 4 1 4h-22l6-10 2-3-1-11-3-10-2-5-6-4-4-5-1-5h3l5 6 7 4 10-2 4-4 4-8 3-5h-2v-6l-9 1-4 3-7 1-5 1 1-3 14-6 4-1v-3l-2-1h-13v2l-5 2-1 4h-2l-2 6-2-1 1-4 4-7 8-6z" fill="#F0DBD2"/>
<path transform="translate(732,144)" d="m0 0 7 1 9 7 3 4-1 6 6 2v20l-1 2h-9l-9-6-6-8-2-6v-14z" fill="#100C10"/>
<path transform="translate(545,641)" d="m0 0 5 2 6 5v4l-3 1v2h-2v8l-5 5-1-4 4-2-7-3h-2l1 2v7l-3 3-8 3-6 2-3 12-3 3h-6l-5-4-1-5h7l-1-7h-8l-3-1v-2h11l7 4-2-9v-2l5 1 8 3-6-12-8-8v-5l4-1 2 2-1 7h3v-3l3-1 7 4 4 4 3-1-1-5-1-3 1-2h2v2h2l2 4 3 1v-6h-2z" fill="#F4E5DE"/>
<path transform="translate(628,159)" d="m0 0 5 1 6 12 4 17v10l-10 5-3 1h-7l-2-6v-25l2-9 3-5z" fill="#FDFDFC"/>
<path transform="translate(405,803)" d="m0 0h10l3 2-1 4-16 6h-2v2l11-2 4-3h9v6h2l-2 5-5 9-4 4-10 2-9-6-3-3-1-9v-3l3-5h2l1-4 5-2v-2z" fill="#A76F5A"/>
<path transform="translate(511,735)" d="m0 0h4l2 4h3l-2 6-7 12-13 17-7 8-13 10-12 8h-2v-6l10-7 9-10 7-8 6-9 2-1 2-4h2l2-4 2-5-5 2-3 5-6 2 3-9 4-3 7-3z" fill="#D18164"/>
<path transform="translate(319,331)" d="m0 0h2v3h2v7l4 1v4l3 1-2 20 2 7v3l-1 7 3 10 3 2 1 9-7-2 1 5 5-1 1 5 3 1 2 11-9-6-14-9 5-12h2l1-4-1-1v-9l-2-4v-3l2-1v-2l-3-3v-2l-3-1 3-1-2-6-4-1-2-1v-8h2l1-4 3-5 1-5z" fill="#C46551"/>
<path transform="translate(136,767)" d="m0 0 4 2 7 9 6 5-1 6-10 13-2 3-5-1-7-8-5-5-2-3v-5l12-13z" fill="#181316"/>
<path transform="translate(495,724)" d="m0 0 1 2-2 5-3 1-2 4-4 4-4 7-8 12h-2l-1 4-7 8-8 7-3 1-1 3-5 5-3 4-4-2-2-3v-4l5-3h2v-2l5-5 3-1 1-6 2-1 2-5 7-10 4-1 2-4 6-2 3-5 3-2 3-6 2-1 1 2z" fill="#D27F62"/>
<path transform="translate(193,798)" d="m0 0h3l3 7 3-1 3-5 4 1 5 5 2 5-2 9 4 5-1 4h-6l-5-7-1 1h-8l-6-4-10-1v-2l-5-2 1-5 7-5 7-3z" fill="#F1E0D9"/>
<path transform="translate(115,736)" d="m0 0 5 2 9 10 2 4-1 4-11 14-4 6-8-8v-7l-5-1-3-4 2-4 8-10z" fill="#120D11"/>
<path transform="translate(872,845)" d="m0 0h8v15l-6 1h-62v-3l25-5z" fill="#F8F1EE"/>
<path transform="translate(263,364)" d="m0 0 9 3 4 1v2l5 2 13 10 7 7 6 4 3 5 5 5 1 3-6-1-7-4-10-3-6-4-10-9-14-19z" fill="#FBF6F3"/>
<path transform="translate(248,192)" d="m0 0 4 1 2 3 2 1h3v2h2l1 8v10l-1 2-5-1-4-7 1-7 1-4h-5v2h-2v8l2 8h2l4 4v-2l4 2 1 3h2l1 2 3-9 1-5h1l1 9h-2l-1 14-4-3-1 10h-1l-2-6-5-2-6-8-5-14v-10l1-6h3z" fill="#975744"/>
<path transform="translate(483,702)" d="m0 0 7 1 2 2v4h-2l-1-2h-5l-2 4-3 5h-2l-1 2-6-1 1 5h-5l-2-3-6 1-8 4-11 7h-5l-2-3v-7l6-3 17-6z" fill="#C57259"/>
<path transform="translate(767,164)" d="m0 0h24v23h-23l-1-1z" fill="#171114"/>
<path transform="translate(343,147)" d="m0 0 10 1 4-1 8 7h4l6 7 1 6-3 1-1 4h2l8 10 4 3 1 3 2 1-2-4 7 1 2 2-1 5h-4-3l-3 5-3-1 2-4v-2h2l-3-6-7-4-4-4-3-6 1-3 3-2-1-5-2-2h-5v-2h-2v-3l-5-2-13-1-13 1h-11l-12 1-4 2-5 5-6 4-9 10-1 3-2 2-2 5-2 2-1 3v-2l-2 2-3 9v8l-3 5-1-3 3-18 3-9 14-14 6-7 2-4 3-3-1-2 15-2h13l8 1z" fill="#A35E4B"/>
<path transform="translate(344,388)" d="m0 0 3 1 4 9 2 16 5 6-1 8v12l-4-2-9-9-2-4v-22l1-14z" fill="#F7E9E3"/>
<path transform="translate(820,218)" d="m0 0h60v8h-40l-21-1v-6z" fill="#F8F3F0"/>
<path transform="translate(731,193)" d="m0 0h23l-1 6-8 16-3 2h-11z" fill="#0E0B0F"/>
<path transform="translate(829,652)" d="m0 0h51v13l-27-5-22-5z" fill="#FAF6F3"/>
<path transform="translate(203,182)" d="m0 0 2 1-1 4 1 6-3 5 5-2 1 2-2 3-2 7-1 4-4-1v-3l-2 1-1 4 1-1 3 1v2h2v4l-6 2-1 5-2-3-3 1v-13l2-2 1-4h2v-5h2v-5l-3 1-2-1v-6l6-3h3z" fill="#A46C58"/>
<path transform="translate(407,797)" d="m0 0 7 1 8 4v2h4v3h2l2 7 1 6h2v2l-8 2-1-4 1-2h-2v-6l-9 1-4 3-7 1-5 1 1-3 14-6 4-1v-3l-2-1h-13v2l-5 2-1 4h-2l-2 6-2-1 1-4 4-7 8-6z" fill="#DDA38D"/>
<path transform="translate(351,838)" d="m0 0 9 1 9 4 7 7v6l-5 1-26 1-3 1-4-2-6 5 2-4 11-11 3 3 2 5h20l-5-5-4-1-3 2h-5l1-5-4-2v-5z" fill="#BB624E"/>
<path transform="translate(329,377)" d="m0 0 1 3-1 4 3 10 3 2 1 9-7-2 1 5 5-1 1 5 3 1 2 11-9-6-14-9 5-12h2l1-4-1-1 1-12z" fill="#A36F5B"/>
<path transform="translate(755,218)" d="m0 0h46l1 1v6h-51v-4z" fill="#FCFAF8"/>
<path transform="translate(214,435)" d="m0 0 4 1 2 6v11l7 57v9l-2-3-2-5-4-23-3-25-1-5z" fill="#D9AA98"/>
<path transform="translate(320,270)" d="m0 0h9l1 1 9 1 19 2 1 5-9 1h-12l-2-1v2h-7l-5-2v2h-4v-3l-9-3v-3l1-1z" fill="#C1604E"/>
<path transform="translate(302,184)" d="m0 0 10 1 22 9 6 5-1 3-8-1-12-4-12-6-8 1-7 3-3 1 2-6 8-5z" fill="#0E0B0F"/>
<path transform="translate(291,53)" d="m0 0 2 1-4 6h4l2 5-5 1-4 5-5 1-2-1v-2h-2l1 5-7 3-6 7h-4v2l-6 1 1-4h-3v-6h2v5l2-3h2v2h3l2-4 2-7 3-4 3 1-4 8 2-1 2-6 5-5h3l1 3 2-4h-2v-2l6-1 2-4z" fill="#AB715B"/>
<path transform="translate(300,198)" d="m0 0h12l13 4 4 2-3 10-5 1 1-2h2l-1-6-6-4h-2l-1 8-3 1-4-2-1-5h-5l1 5 5 4 6 2-3 2-8-3-6-5-2-4v-5l2-2z" fill="#0F0C0F"/>
<path transform="translate(517,665)" d="m0 0 5 1 5 2 5 1v2l3 1-5 2-6 2-3 12-3 3h-6l-5-4-1-5h7l-1-7h-8l-3-1v-2h11l7 4-2-9z" fill="#F0E2DB"/>
<path transform="translate(790,524)" d="m0 0h10l36 3-1 3-39 4h-6z" fill="#FAF4F1"/>
<path transform="translate(367,199)" d="m0 0h13v1l-12 2-4 1v2h4l-1 4-4 2v2h-3v3h10v3l-4 1v2l6-2 5-2 2-3 5 1 1 1v6l-3 3h-7l-4-2-7-1-3-3-3-1-1-12h-2v-3l8-3z" fill="#C37359"/>
<path transform="translate(790,282)" d="m0 0h13l24 2 9 1 1 2-2 1-39 3h-6z" fill="#F8F1ED"/>
<path transform="translate(481,721)" d="m0 0h1l1 6-5 6-2 6h-2l-1 5-4 2-8 8-5 8v3h-3l1 3-8 9h-2v2l-5 3h-2l-1 2v-8l5-5 5-1 8-10 9-12 4-5 8-13z" fill="#945441"/>
<path transform="translate(377,817)" d="m0 0h6l5 2 1 8-7 4h-4v-4l-5 2 2 5-5-1-5-9-2-4 13-2z" fill="#B07762"/>
<path transform="translate(483,702)" d="m0 0 7 1 2 2v4h-2l-1-2h-5l-2 4-3 5h-2l-1 2-6-1 1 5h-5l-2-3-4-2 4-5 6-3-1-2z" fill="#CD7F62"/>
<path transform="translate(511,735)" d="m0 0h4l1 6-1 7-2 3h-4l-2 6-1-2h-2l-1 2-1-4 3-3 1-4-5 2-3 5-6 2 3-9 4-3 7-3z" fill="#E99476"/>
<path transform="translate(495,724)" d="m0 0 1 2-2 5-2 1v-2l-9 7-4 6-11 14-8 10-3-2 2-4-1-3 6-9 4-1 2-4 6-2 3-5 3-2 3-6 2-1 1 2z" fill="#D68365"/>
<path transform="translate(490,730)" d="m0 0h2l-2 5-5 5-4 7-8 12h-2l-1 4-7 8-5 1 1-5 9-11 10-13 7-9z" fill="#E2AB97"/>
<path transform="translate(69,608)" d="m0 0h2v8l5 1 2 1v3h-5l-1-1-1 6 3 5 8 4 14 3 3-9 1-5v-10l-2-1h6l1 3-4 19-2 4h-12l-12-4-5-3-2-4 1-10-4-5v-4z" fill="#CFA493"/>
<path transform="translate(303,190)" d="m0 0 6 1 15 7 15 4v-4h2v5l-5 1v3h-2l-2 4-2 2h-3v2l-3-1h2l2-10-11-4-16-2v-1l7-1v-2h-3v-2h-6z" fill="#B76E56"/>
<path transform="translate(367,769)" d="m0 0 4 1 2 9-1 5-2 1-4 10-3 6 1 6-3 2-4-1 1-7 2-4h-12l-8 3-3 4h-3v-3l6-4 8-3h12l3 2 2-6 2-4 1-11z" fill="#DAAE9D"/>
<path transform="translate(344,388)" d="m0 0 3 1 4 9 2 16 5 6-1 8v12l-4-2-3-4-1-12v-19l-4-12-2-2z" fill="#CD7E61"/>
<path transform="translate(406,857)" d="m0 0h2l4 12 5 5 3 4v2h-22l6-10 2-3z" fill="#D39882"/>
<path transform="translate(557,428)" d="m0 0h5v3l3 1 2 4v5l-2 3h5l1 4-5 7h-6l-2-2 1-5 1-3-2-7-1-1v-5h2l1 3 3-1v-2l-6-1z" fill="#CC8D75"/>
<path transform="translate(434,801)" d="m0 0 7 1-1 8h-3v2h-2v5l6-3 2 1-2 4-8 2-2-1-3-7v-6h-2v-3z" fill="#FBF3EF"/>
<path transform="translate(115,733)" d="m0 0 4 1 8 8 8 11-2 4-12 14-4 4-1-2 10-13 4-5-1-5-7-9-5-4-4 2-9 10-5 5v-3l9-11z" fill="#F3E1D9"/>
<path transform="translate(545,641)" d="m0 0 5 2 6 5v4l-3 1v2h-2v8l-5 5-1-4 4-2-7-3-3-1 2-3-1-5-1-3 1-2h2v2h2l2 4 3 1v-6h-2z" fill="#ECD6CD"/>
<path transform="translate(495,728)" d="m0 0 3 1 1 8-1-2-7 6-3 9-4 1 1 5-3 6-3 1-1 3-2 1-1 4-2-1-4 3-2-1 11-13 5-9 4-6 2-6-5 4 2-4 5-6z" fill="#A0624E"/>
<path transform="translate(364,154)" d="m0 0h5l6 7 1 6-3 1-1 4h2l8 10 4 3 1 3 2 1-2-4 7 1 2 2-1 5h-4-3l-3 5-3-1 2-4v-2h2l-3-6-7-4-4-4-3-6 1-3 3-2-1-5-2-2h-5z" fill="#945441"/>
<path transform="translate(541,545)" d="m0 0 19 2 12 5 6 5h3l1 5h-5l-13-7-14-5-9-4z" fill="#F1DDD5"/>
<path transform="translate(405,803)" d="m0 0h10l3 2-1 4-16 6-8 2 1-5h2l1-4 5-2v-2z" fill="#110D10"/>
<path transform="translate(223,641)" d="m0 0h6l3 1 11-1h13v2l-2 1-39 3-21 3h-6l4-2 19-3 8-3z" fill="#DEBCAE"/>
<path transform="translate(534,575)" d="m0 0 12 1 10 4 10 6 6 9-3 1-6-5-9-5-11-6-9-4z" fill="#ECD7CF"/>
<path transform="translate(407,797)" d="m0 0 7 1 8 4v2h2v5l-4 1-1-4-4-2h-13v2l-5 2-1 4h-2l-2 6-2-1 1-4 4-7 8-6z" fill="#F6EAE5"/>
<path transform="translate(419,824)" d="m0 0 1 4-3 5-3 3-10 2-8-5v-2l9-2 9-3z" fill="#100C10"/>
<path transform="translate(349,841)" d="m0 0 1 3 5 1v4h-2v2l6-2 5-1 6 5v2l-9 1h-11l-4-7 1-5z" fill="#945441"/>
<path transform="translate(135,764)" d="m0 0 4 1 9 10 8 8 1 4-12 13v4h-2l-1-4 9-11 1-6-6-5-8-10-4 2-12 12v-3l10-12z" fill="#EED3C8"/>
<path transform="translate(496,755)" d="m0 0 2 1-2 6-10 13-10 10-7 4-2-1 13-13 13-17z" fill="#0E0B0F"/>
<path transform="translate(203,182)" d="m0 0 2 1-1 4 1 6-3 5 5-2 1 2-3 3-5-2h-1v2h-2v2h-2v-3h2v-5l-3 1-2-1v-6l6-3h3z" fill="#C5846B"/>
<path transform="translate(177,781)" d="m0 0h4l-2 4-2 2 1 5 2 3 4-1 5-2-2 4-7 6h-2l-1-2-3-1-4-6v-6l4-4z" fill="#F4E6E0"/>
<path transform="translate(485,780)" d="m0 0h3l-2 6-17 12-5 2v-6l10-7 6-4h2z" fill="#E99B7F"/>
<path transform="translate(429,147)" d="m0 0h3v6h2l1 7 4 1 1 9-5-3-1-2h-6l-2 7-1-3 1-3-2-1 7-4-4-2-3-5v-3l7 1v-4z" fill="#B47C66"/>
<path transform="translate(517,643)" d="m0 0 4 1 1 4-1 4h3v-3l3-1 3 2 1 3 4 4v5l-4-1-4-3-5-3-6-6v-5z" fill="#E5CBC1"/>
<path transform="translate(73,578)" d="m0 0 9 1 22 4 1 1v19l-2 4h-3l2-12v-9l-16-3-16-2z" fill="#CE9078"/>
<path transform="translate(212,793)" d="m0 0h6l2 6 4 5v2l4 2 3 5-2 1-1 3-1-3-6-3-3-4-2-8-5-3z" fill="#ECD6CD"/>
<path transform="translate(455,760)" d="m0 0 1 4-3 1 1 3-8 9h-2v2l-5 3h-2l-1 2v-8l5-5 5-1z" fill="#9C5844"/>
<path transform="translate(402,87)" d="m0 0 8 1 4 5 3 3-1 5-1-2h-2v4l-5-2v-5l-4-1-1-3h-2z" fill="#BA826D"/>
<path transform="translate(242,828)" d="m0 0 6 1 4-1 3 1 1 4-1 3h-2l-2 4-7-1-2-4z" fill="#1D1516"/>
<path transform="translate(234,814)" d="m0 0 4 1 3 3-1 5-3 5-4 1-3-1-1-2v-6z" fill="#120E11"/>
<path transform="translate(517,665)" d="m0 0 5 1 5 2 5 1v2l3 1-5 2-6 2-2 6-5-5 2-1-2-9z" fill="#E1C2B6"/>
<path transform="translate(202,805)" d="m0 0 12 4-3 5-3 3-9-1-1-5 3-5z" fill="#100C10"/>
<path transform="translate(411,820)" d="m0 0h11l1 3-3 4-1-2-13 4-1 1h-7l-1-3 1-1h7l1-4z" fill="#C3785E"/>
<path transform="translate(466,773)" d="m0 0 1 2-1 2 2 1-7 8-7 3-9 7-2 4-15 4-2-1 5-3 10-2 8-9 10-8z" fill="#9C5B46"/>
<path transform="translate(267,213)" d="m0 0h1l1 9h-2l-1 14-4-3-1 10h-1l-2-8v-3l-2-6v-4l4 1v2h2l1 2 3-9z" fill="#A16753"/>
<path transform="translate(269,66)" d="m0 0 3 1-4 8h3l-2 4-4 5h-4v2l-6 1 1-4h-3v-6h2v5l2-3h2v2h3l2-4 2-7z" fill="#C88D77"/>
<path transform="translate(486,706)" d="m0 0 4 1v3h2v5h-3l-2 3-4 1 2-5-5 3-8 6h-5l4-1-1-5h6l3-1 2-5z" fill="#874D3C"/>
<path transform="translate(399,257)" d="m0 0 5 1 2 2-5 5h-2l2 7 1 4-5-4v-3h-5l-1-4 6-7z" fill="#D5A593"/>
<path transform="translate(295,192)" d="m0 0h10v2h3v2l3 1-10 1-6 3-2 4v-4l-3 1 1-4h-3l1-3z" fill="#C4785E"/>
<path transform="translate(315,202)" d="m0 0 5 2 5 5-1 4-4 2-12-1v-2l6 1v-10z" fill="#D1947E"/>
<path transform="translate(283,173)" d="m0 0 2 1-1 3-2 2-2 5-2 2-1 3v-2l-2 2-3 9v8l-3 5-1-3 3-18 3-9 6-6h3z" fill="#BB624E"/>
<path transform="translate(345,847)" d="m0 0 3 3 2 5 21 1v1l-26 1-3 1-4-2-6 5 2-4z" fill="#C16753"/>
<path transform="translate(250,819)" d="m0 0 4 1 6 4v7l-3 1-2-1v-2h-6l-5 1 4-2v-7z" fill="#F6EDE9"/>
<path transform="translate(214,435)" d="m0 0 4 1 2 6v10l-2 7-3-1z" fill="#DBB0A0"/>
<path transform="translate(479,323)" d="m0 0 11 4 7 1 1-2 5 2v3h-6l-4 5-4-2-5-5-4-2z" fill="#D2A391"/>
<path transform="translate(287,781)" d="m0 0h22l10 1 1 4-23-1-10-2z" fill="#D7AE9F"/>
<path transform="translate(313,149)" d="m0 0h13v1l-18 2-5 2v2h-3l-1 3h-2l-2 4-4 5-5 5h-3v2l-2-1 7-7 6-7 2-4 3-3-1-2z" fill="#945441"/>
<path transform="translate(467,708)" d="m0 0 4 1-5 4-2-1-2 4-2 2-10 3-1-4 8-6z" fill="#E39073"/>
<path transform="translate(408,194)" d="m0 0h4l1 8-3 6-2-1-6 2-1-4h2l1-5z" fill="#E7CCC2"/>
<path transform="translate(377,817)" d="m0 0h6l5 2 1 8-3 1 1-5-7 1-4-1-2 1v-2l-11-1v-1l13-2z" fill="#945441"/>
<path transform="translate(446,322)" d="m0 0 7 3 5 1 6 1 4-2h3l-1 5-9 2v2l-3-1-4-4-6-2z" fill="#D5A593"/>
<path transform="translate(200,226)" d="m0 0 3 3-2 4-1 1 3 2v6l-1 2-6-1-1-8 2-6z" fill="#CC9A86"/>
<path transform="translate(425,821)" d="m0 0 1 2-5 10-7 7-6 2-2 3-1-7 10-4 3-3 4-8z" fill="#EED3C9"/>
<path transform="translate(344,388)" d="m0 0 3 1 4 9 1 22 2 1-2 13h-1l-2-12v-19l-4-12-2-2z" fill="#EFC0AE"/>
<path transform="translate(384,378)" d="m0 0 9 1 13 5 4 4v2l-5-1-10-5-10-3-5 4 2-5z" fill="#E6C7BA"/>
<path transform="translate(244,208)" d="m0 0 2 3 1 8h2l3 6 3 5v2l2 1-4 1-6-7-4-11z" fill="#B5745B"/>
<path transform="translate(418,812)" d="m0 0h5v6h2l-1 4h-2v-2h-13l2-5h3l1-2z" fill="#AB715B"/>
<path transform="translate(188,804)" d="m0 0 8 1-1 6-3 2h-6l-3-2 1-5z" fill="#0F0C0F"/>
<path transform="translate(219,453)" d="m0 0h1l1 8v24l-2-2-3-20-1-3 3-2z" fill="#D9AA97"/>
<path transform="translate(429,808)" d="m0 0 7 1 4-1v2h-3v2h-2v5l6-3 2 1-2 4-8 2-2-1-3-8h2z" fill="#F6E7E0"/>
<path transform="translate(557,428)" d="m0 0h5v3l3 1 2 4v5l-4 4-2-1v-4h-2l-2-3v-5h2l1 3 3-1v-2l-6-1z" fill="#D69C86"/>
<path transform="translate(212,814)" d="m0 0h1l2 6 3 4-1 4h-6l-3-4v-6z" fill="#F8ECE6"/>
<path transform="translate(407,797)" d="m0 0 4 1-5 3 8 1v1l-12 1v2l-5 2-1 4h-2l-2 6-2-1 1-4 4-7 8-6z" fill="#DFBEB1"/>
<path transform="translate(507,738)" d="m0 0 3 1-4 5-10 10-4 1 3-9 4-3 7-3z" fill="#EA987B"/>
<path transform="translate(71,597)" d="m0 0 4 5 6 5 9 3 7 1 1 2-14-1-10-3-2-2z" fill="#DDB1A0"/>
<path transform="translate(339,198)" d="m0 0h2v5l-5 1v3h-2l-2 4-2 2h-3v2l-3-1h2l2-11h4l-1-2 8 1z" fill="#945441"/>
<path transform="translate(474,785)" d="m0 0 2 1-6 5-4 3h-2v7l-7 5-4-1 8-7h2l-2-5 5-5 4-1z" fill="#A25C49"/>
<path transform="translate(291,53)" d="m0 0 2 1-4 6h4l2 5-5 1-2-2-2 3h-3v-5h-2v-2l6-1 2-4z" fill="#AE7863"/>
<path transform="translate(457,796)" d="m0 0 5 1-4 5-9 5-3 2h-3l1-4 1-1h5l1-4z" fill="#FDFAF8"/>
<path transform="translate(233,570)" d="m0 0 3 1-1 18 2 12-2-1-4-11v-8z" fill="#D7A692"/>
<path transform="translate(361,848)" d="m0 0 4 1 5 4v2l-13 1-4-2z" fill="#0E0B0F"/>
<path transform="translate(426,810)" d="m0 0 4 4 1 6h2v2l-8 2-1-4 1-2h-2v-6h3z" fill="#CA8369"/>
<path transform="translate(247,216)" d="m0 0h2v2h2l4 4v-2l3 1-2 1 2 9 2 2-2 3-5-1 3-2-6-9-1-5-3 1z" fill="#945441"/>
<path transform="translate(358,750)" d="m0 0 7 1h12l3-1h8v2l-11 3-15-1-4-2z" fill="#DEB1A0"/>
<path transform="translate(98,613)" d="m0 0h6l1 3-4 19-2 3h-2l2-9 1-5v-10z" fill="#E3C0B2"/>
<path transform="translate(257,343)" d="m0 0 13 3-2 4-8 2h-3z" fill="#BA6854"/>
<path transform="translate(387,202)" d="m0 0 4 2-1 5-6 1v-2l-6 1-2-1 1-3 9-2z" fill="#C6856E"/>
<path transform="translate(132,753)" d="m0 0h3l-2 4-12 14-4 4-1-2 10-13z" fill="#F6E9E3"/>
<path transform="translate(227,540)" d="m0 0 2 1-10 9-12 5-6 1v-2l20-9z" fill="#E8CCC1"/>
<path transform="translate(205,799)" d="m0 0 4 1 5 5v3l-9-1-3-3z" fill="#F3E6E1"/>
<path transform="translate(243,641)" d="m0 0h13v2l-2 1-14 1h-10l2-1v-2z" fill="#E4C0B2"/>
<path transform="translate(438,721)" d="m0 0h3v2h2l-1 4-1 3h-6l-2-7z" fill="#E79274"/>
<path transform="translate(236,809)" d="m0 0 5 1 5 5-2 5-4-2-5-4z" fill="#F8EEE9"/>
<path transform="translate(348,794)" d="m0 0h12l2 3-2 2v-2h-12l-8 3-3 4h-3v-3l6-4z" fill="#D7A795"/>
<path transform="translate(320,270)" d="m0 0h9l2 3h-10v2l-5 2-6-3 2-3z" fill="#B75D4A"/>
<path transform="translate(483,754)" d="m0 0 2 2-3 6-3 1-1 3-2 1-1 4-2-1-4 3-2-1 8-9 4-3 3-5z" fill="#C26450"/>
<path transform="translate(371,393)" d="m0 0 13 4 7 4-1 4-20-10z" fill="#D7A490"/>
<path transform="translate(101,584)" d="m0 0h4v19l-2 4h-3l2-12v-9z" fill="#E2B3A1"/>
<path transform="translate(302,59)" d="m0 0h6l-1 4h-5v3l-4 2-1 3-5 3 1-4 3-1 2-5 1-3-2-1z" fill="#C9907A"/>
<path transform="translate(406,874)" d="m0 0 7 1 3 5h-14l1-4z" fill="#0E0B0F"/>
<path transform="translate(445,779)" d="m0 0 5 1-2 5-5 6-3-1v-5z" fill="#E4AC96"/>
<path transform="translate(301,204)" d="m0 0h5l2 6 6 1v2l-6-1v2l-5-2-3-3z" fill="#D49077"/>
<path transform="translate(204,201)" d="m0 0h1v5l-2 6-4-1v-3l-3-1 2-4z" fill="#D19D89"/>
<path transform="translate(186,778)" d="m0 0 4 1 3 5v5h-4l-5-7z" fill="#F5E8E2"/>
<path transform="translate(545,641)" d="m0 0 5 2 6 5v4l-5-1-1 3-1-1v-7h-2z" fill="#EED9D0"/>
<path transform="translate(547,621)" d="m0 0 3 1 7 10 2 5-3 1-5-8v-2l-5-2z" fill="#EACEC2"/>
<path transform="translate(379,215)" d="m0 0 5 1v5l-4 3-7-1 1-3z" fill="#F9ECE6"/>
<path transform="translate(259,811)" d="m0 0 4 1v7l-3 1-6-2 1-4z" fill="#EEDAD1"/>
<path transform="translate(427,173)" d="m0 0h4l1 5-2 1-3-1v2h-3v5h2l1 6h-2l-3-7 1-10h2l1 2 1-1z" fill="#CD8F77"/>
<path transform="translate(384,217)" d="m0 0h1v6l-3 3h-7l-4-2-6-1-1-3h2v2l6-2 4-1-2 1v2l6 1 4-2z" fill="#905746"/>
<path transform="translate(224,493)" d="m0 0h1l2 17v9l-2-3-2-5-1-10h1z" fill="#C58D77"/>
<path transform="translate(88,619)" d="m0 0 5 2v5l-2 2-5-1-1-4z" fill="#BA826D"/>
<path transform="translate(503,746)" d="m0 0h3l-1 5-5 5-2 4-1-4 1-4 3-5z" fill="#CC5045"/>
<path transform="translate(265,76)" d="m0 0 1 3-2 3h-5l2 4-6 1 1-4h-3v-6h2v5l2-3h2v2h3l2-4z" fill="#7A5345"/>
<path transform="translate(363,795)" d="m0 0 1 3-1 6 1 3-3 2-4-1 1-7z" fill="#EBCEC3"/>
<path transform="translate(457,770)" d="m0 0 1 2 2 1-6 6h-2l-1 3-1-2-5-1 4-3 7-4z" fill="#D8876A"/>
<path transform="translate(493,749)" d="m0 0 1 3v2l3-1-2 4-3 4h-4l-1 2-1-3h2l1-6z" fill="#DD8C70"/>
<path transform="translate(359,213)" d="m0 0 1 3h10v3l-5 2-1 2-3-3-3-1v-5z" fill="#BF6D57"/>
<path transform="translate(202,188)" d="m0 0 1 4-1 6 5-2 1 2-3 3-5-2v-4h-2l-1-4z" fill="#E1C4B8"/>
<path transform="translate(411,820)" d="m0 0h7l1 3-7 3h-5v-4z" fill="#EEBBA7"/>
<path transform="translate(355,165)" d="m0 0h2l2 6h-2v3h-4l-3-1-1-3z" fill="#EC9678"/>
<path transform="translate(490,737)" d="m0 0 2 1-2 5-2 7-4 1-1 4-6 8v-3l7-11z" fill="#A65443"/>
<path transform="translate(154,785)" d="m0 0h3l-2 4-10 11v4h-2l-1-4 9-11 1-3z" fill="#F1DCD3"/>
<path transform="translate(470,744)" d="m0 0h3l-2 6-4 2-3 3-4 1 2-4 4-4h2z" fill="#B96854"/>
<path transform="translate(258,358)" d="m0 0 9 4 6 3 1 3-9-3-2-1-1 2-4-5z" fill="#DD967B"/>
<path transform="translate(246,801)" d="m0 0 5 1v5l-4 2-5-3v-2z" fill="#F5E8E2"/>
<path transform="translate(353,416)" d="m0 0 5 3-1 9v12h-2l-1-8-1-3 1-2v-8z" fill="#A3705C"/>
<path transform="translate(198,234)" d="m0 0 5 2v6l-1 2-6-1z" fill="#A66C57"/>
<path transform="translate(267,213)" d="m0 0h1l1 9h-2l-1 14-3-3-1-5h2z" fill="#B5614D"/>
<path transform="translate(135,764)" d="m0 0 3 1-3 1zm-1 2m-2 1 3 1-12 14-2-2z" fill="#E1BFB1"/>
<path transform="translate(457,759)" d="m0 0 3 2-2 4-2 5-5 4-3-1 4-2 1-6 2-1z" fill="#C36450"/>
<path transform="translate(528,652)" d="m0 0 5 2 2 3v5l-4-1-4-4z" fill="#171113"/>
<path transform="translate(72,584)" d="m0 0h2l1 5h2v5l-5 1-1-1v-9z" fill="#C18C77"/>
<path transform="translate(365,459)" d="m0 0 6 5v6h-5l-1-2z" fill="#EFDBD2"/>
<path transform="translate(322,352)" d="m0 0h6l1 5-2 2-4-1-4-2v-2z" fill="#D17F61"/>
<path transform="translate(304,782)" d="m0 0h15l1 4-15-1z" fill="#E4BFB0"/>
<path transform="translate(197,772)" d="m0 0 5 1 1 5-1 2-5-1-1-6z" fill="#F2E3DD"/>
<path transform="translate(268,590)" d="m0 0h2l4 4-2 4-4 1-3-3 2-4z" fill="#D8B2A3"/>
<path transform="translate(423,448)" d="m0 0h7v3h3v3l-9-1v-2h-2z" fill="#AD7560"/>
<path transform="translate(387,185)" d="m0 0 7 1 2 2-1 5h-4z" fill="#B07058"/>
<path transform="translate(453,571)" d="m0 0 2 3 5 13 2 3-1 3-5-7-3-10z" fill="#CA907A"/>
<path transform="translate(560,447)" d="m0 0h4l2 8h-6l-2-2 1-5z" fill="#7D5446"/>
<path transform="translate(244,208)" d="m0 0 2 3 1 8h2l1 5-4 1-3-9z" fill="#AD6450"/>
<path transform="translate(319,150)" d="m0 0h7v1l-17 2-4 2-5 5-3 1v-2l5-5 6-3z" fill="#AB6D59"/>
<path transform="translate(627,140)" d="m0 0h7l5 2-2 1-9-1-7 2-9 9 1-4 4-5 5-3z" fill="#DC816E"/>
<path transform="translate(411,870)" d="m0 0h2l5 5 2 5-5-1-2-5h-4v-3z" fill="#E5B6A4"/>
<path transform="translate(466,773)" d="m0 0 1 2-1 2 2 1-7 8-2-1 2-6z" fill="#B9614D"/>
<path transform="translate(463,763)" d="m0 0h3l-1 6-4 3h-3l1-5z" fill="#EBBEAD"/>
<path transform="translate(511,735)" d="m0 0h4l1 6-2 4-3 1-1-3z" fill="#EABCAA"/>
<path transform="translate(448,302)" d="m0 0 13 2 2 1 1 4-5-3v7l-3-4 1-4h-2l-1 2-6-4z" fill="#C48770"/>
<path transform="translate(210,148)" d="m0 0h5l-2 9-2 3-3-1 1-5 3-5z" fill="#E0B9AA"/>
<path transform="translate(402,87)" d="m0 0 8 1 2 2v4l-4-1-5-1h-2z" fill="#9F7161"/>
<path transform="translate(90,591)" d="m0 0 5 1-1 6-5 2-2-3 2-1z" fill="#DDB6A7"/>
<path transform="translate(437,810)" d="m0 0h6v4l-5 3h-3v-5h2z" fill="#905846"/>
<path transform="translate(74,632)" d="m0 0 5 2 10 3 7 1 1-2v2l2 1h-12l-12-4-2-2z" fill="#C58A73"/>
<path transform="translate(191,279)" d="m0 0 1 2 2 1-6 3-1 5 8 7h-3l-5-3-2-3v-6l4-4h2z" fill="#CE917A"/>
<path transform="translate(514,257)" d="m0 0 2 4 2 5 13 3v1h-8l-7-2-3-5z" fill="#DD927A"/>
<path transform="translate(400,258)" d="m0 0 3 3-2 4h-2l2 7 1 4-5-4-1-4z" fill="#201718"/>
<path transform="translate(203,182)" d="m0 0 2 1-1 4 1 6-2 2-1-6-3 2h-3v2l-3-1 3-3 6-2z" fill="#865C4E"/>
<path transform="translate(424,151)" d="m0 0 4 1 3 1v7l-4-1-3-5z" fill="#E9C6B8"/>
<path transform="translate(365,846)" d="m0 0 6 3v3l2 1-1 3h-11v-1h9l-5-6z" fill="#945441"/>
<path transform="translate(418,812)" d="m0 0h5v6h2l-1 3-5-4-4-1v-3z" fill="#0E0B0F"/>
<path transform="translate(429,808)" d="m0 0 7 1 4-1v2h-3v2h-2l-1 4v-2h-3l-1 2-2-4h2z" fill="#EBB5A0"/>
<path transform="translate(229,798)" d="m0 0h5l1 2-3 5h-3l-2-4z" fill="#F2E0D9"/>
<path transform="translate(471,715)" d="m0 0 6 1-1 2-6-1 1 5h-5l-4-5z" fill="#B8624E"/>
<path transform="translate(517,643)" d="m0 0 4 1 1 4-1 5-5-4v-5z" fill="#F4E2DB"/>
<path transform="translate(413,436)" d="m0 0 6 5 3 8-4-1-5-8z" fill="#DDB8AA"/>
<path transform="translate(379,272)" d="m0 0h2l2 3 5 2-1 3h-3l-4 1-1-5z" fill="#D69982"/>
<path transform="translate(288,63)" d="m0 0h1v5l-3 3-5 1-1-6 3-1v2l3-1z" fill="#DEAE9C"/>
<path transform="translate(384,823)" d="m0 0h3l-1 6-7 1 1-5z" fill="#F7E3DB"/>
<path transform="translate(551,651)" d="m0 0 2 4h-2v8l-5 5-1-4 4-2-5-2v-1h5v-5h2z" fill="#AA7A68"/>
<path transform="translate(197,212)" d="m0 0 3 1v2h2v4l-8 1 2-6z" fill="#DEB3A3"/>
<path transform="translate(344,388)" d="m0 0 3 1 4 9v11h-1l-2-11-3-7-2-2z" fill="#BC785F"/>
<path transform="translate(384,378)" d="m0 0 9 1 2 2-1 2-9-2-5 4 2-5z" fill="#DEB7A7"/>
<path transform="translate(262,350)" d="m0 0 4 1-1 4h-6l-1 5h-1v-8z" fill="#CF7D60"/>
<path transform="translate(383,262)" d="m0 0 5 1v2l2 1-3 1v6l-3-1-1-4 1-2-2-1z" fill="#CB927C"/>
<path transform="translate(307,214)" d="m0 0h14l3 2-6 2h-7l-1-2z" fill="#985645"/>
<path transform="translate(319,205)" d="m0 0 2 1v6l-3 2-3-2 1-6z" fill="#FDFCFA"/>
<path transform="translate(355,147)" d="m0 0 5 2 4 4-1 4v-3l-5-2-6-1 1-3z" fill="#A1604D"/>
<path transform="translate(387,79)" d="m0 0 8 1 2 1-1 3-9-1-2-1v-2z" fill="#DBAE9C"/>
<path transform="translate(367,769)" d="m0 0 4 1 2 10h-4z" fill="#D19A85"/>
<path transform="translate(501,672)" d="m0 0h11l5 4-5 1v-2h-8l-3-1z" fill="#D4A391"/>
<path transform="translate(207,149)" d="m0 0h5l-2 5-1 2-1 9h-1l-1-10z" fill="#765044"/>
<path transform="translate(193,798)" d="m0 0h3l1 6h-8l2-4z" fill="#F8F1ED"/>
<path transform="translate(355,779)" d="m0 0h5l-1 7-4 1-1-3z" fill="#E0A994"/>
<path transform="translate(138,778)" d="m0 0 7 2v3l-6 1-2-2z" fill="#E1B7A6"/>
<path transform="translate(116,746)" d="m0 0h2l-1 7-1 1h-6l1-3z" fill="#EEDCD4"/>
<path transform="translate(488,710)" d="m0 0h4v5h-3l-2 3-4 1 2-5z" fill="#945441"/>
<path transform="translate(278,322)" d="m0 0h2l5 7-2 4-4-1 1-7h-2z" fill="#955643"/>
<path transform="translate(335,203)" d="m0 0 5 1-4 7-3 1-1 2-5 1v-2l5-3 2-3h2z" fill="#C46551"/>
<path transform="translate(392,816)" d="m0 0h7l2 3-5 2-3 2v-3l-3-1 1-2z" fill="#C27A60"/>
<path transform="translate(214,807)" d="m0 0 2 1-2 8h-3l-2 2-2 4-1-3-2-2 5-2 4-5-2-2z" fill="#CC9C8A"/>
<path transform="translate(203,791)" d="m0 0h4v3l-5 3-4-1v-3z" fill="#EFDDD6"/>
<path transform="translate(483,766)" d="m0 0 2 1-2 5-2 3-4 1 1-5z" fill="#E08C6F"/>
<path transform="translate(500,745)" d="m0 0h2l-2 5-4 4-4 1 2-6 4-1z" fill="#EBB39E"/>
<path transform="translate(108,740)" d="m0 0 3 1-7 8-5 5v-3z" fill="#EDD0C5"/>
<path transform="translate(366,223)" d="m0 0h5l4 2 7 1v1l-10 2-2-3-1 2-2-1z" fill="#DB896C"/>
<path transform="translate(405,812)" d="m0 0 3 1-1 2 4-1-1 2-7 1-5 1 1-3z" fill="#DA9B83"/>
<path transform="translate(442,779)" d="m0 0h2l-1 4-2 2-2 4-2-3v-4z" fill="#CD765D"/>
<path transform="translate(510,736)" d="m0 0 2 4-3 5-3 3-1-4 4-5-1-2z" fill="#D48163"/>
<path transform="translate(282,433)" d="m0 0 4 2-1 3h-7v-4z" fill="#D6A896"/>
<path transform="translate(363,203)" d="m0 0 1 2h4l-1 4-4 2v2l-3-1 1-3 2-2h-2z" fill="#965341"/>
<path transform="translate(426,810)" d="m0 0 4 4v4h-3l-1-3h-2l1 3h-2v-6h3z" fill="#835849"/>
<path transform="translate(474,785)" d="m0 0 2 1-6 5-5 2h-3v-2l5-3 6-2z" fill="#D33234"/>
<path transform="translate(437,595)" d="m0 0 4 5 6 9 1 2-4-1-7-12z" fill="#BC816B"/>
<path transform="translate(255,580)" d="m0 0h4v7l-5-1v-5z" fill="#EDD3C9"/>
<path transform="translate(271,190)" d="m0 0h1v16l-3 5-1-3z" fill="#AF5D4A"/>
<path transform="translate(425,821)" d="m0 0 1 2-4 8h-3l1-4 3-5z" fill="#F1D6CB"/>
<path transform="translate(126,762)" d="m0 0v3l-8 10-2-2 5-7z" fill="#F5E2DA"/>
<path transform="translate(198,196)" d="m0 0 3 3 4 2-7 3-3 3-1-2 1-2h2v-2h2z" fill="#1B1416"/>
<path transform="translate(434,118)" d="m0 0 2 1-2 4v2l-8 3v-2h2l2-4z" fill="#C88E78"/>
<path transform="translate(348,794)" d="m0 0h12l2 3-2 2v-2l-11-1z" fill="#BF8670"/>
<path transform="translate(358,750)" d="m0 0 7 1 6 1-1 2h-8l-4-2z" fill="#E3BFB0"/>
<path transform="translate(100,624)" d="m0 0 2 4-2 9-3 1 2-9z" fill="#E2BDAF"/>
<path transform="translate(73,578)" d="m0 0 9 1 2 2h-14z" fill="#EAC9BC"/>
<path transform="translate(479,323)" d="m0 0 10 4-2 4-7-4z" fill="#D19984"/>
<path transform="translate(340,248)" d="m0 0h3v2l4 1v1h-10l-2-1 1-2z" fill="#C46551"/>
<path transform="translate(406,235)" d="m0 0h1v9l5-5 2-1-1 4-3 3-2 3-3-4z" fill="#CA8B74"/>
<path transform="translate(374,209)" d="m0 0 3 1v2l5 2-5 5-2-4v-2l-2-3z" fill="#9E614C"/>
<path transform="translate(322,198)" d="m0 0 9 2 2 4-11-2v-3z" fill="#B45F4B"/>
<path transform="translate(382,165)" d="m0 0h5l1 5-3 2-2-1z" fill="#AC6A53"/>
<path transform="translate(403,91)" d="m0 0h4l4 7 1 2h-4v-4l-4-1z" fill="#E9CEC3"/>
<path transform="translate(212,793)" d="m0 0h6v4l-4 1-3-2z" fill="#F4E9E5"/>
<path transform="translate(371,760)" d="m0 0 4 1 4 3v3l-4-1-4-3z" fill="#CB8A72"/>
<path transform="translate(516,739)" d="m0 0h4l-2 6-3 6-2-2 1-1z" fill="#C88066"/>
<path transform="translate(372,848)" d="m0 0 4 2v6h-4l-1-6z" fill="#C56752"/>
<path transform="translate(436,723)" d="m0 0h3l1 5-1 1h-5v-5z" fill="#EDB7A2"/>
<path transform="translate(227,540)" d="m0 0 2 1-10 9h-2l-1-3 6-3z" fill="#DBB2A2"/>
<path transform="translate(474,764)" d="m0 0 2 1v5l-5 1-4 2 6-8z" fill="#AF5D4A"/>
<path transform="translate(495,721)" d="m0 0 3 1v7l-3-1v-3l-3 3-2-1z" fill="#BE775D"/>
<path transform="translate(271,419)" d="m0 0 2 1v3h2l-2 4-4-1 1-5z" fill="#C78E78"/>
<path transform="translate(299,213)" d="m0 0 11 4-2 3-5-1-4-4z" fill="#BF7258"/>
<path transform="translate(252,83)" d="m0 0h4l-2 5-2 1-2 3v-7z" fill="#DDAF9E"/>
<path transform="translate(276,63)" d="m0 0 2 3-3 6h-3v-4l2-2z" fill="#DFA28B"/>
<path transform="translate(384,819)" d="m0 0 4 1 1 7-3 1 1-5-6 1z" fill="#B2735C"/>
<path transform="translate(69,608)" d="m0 0h2v4h-2v2l-4-1v-4z" fill="#DFBCAF"/>
<path transform="translate(233,570)" d="m0 0 3 1-1 11-3-2z" fill="#D79B84"/>
<path transform="translate(191,248)" d="m0 0 2 2v8h-1v-6h-7l-4 1v-2l9-2z" fill="#DE9F87"/>
<path transform="translate(193,208)" d="m0 0v3l-2 3h2l-1 7-2-1v-9z" fill="#DB9B83"/>
<path transform="translate(315,202)" d="m0 0 5 2-1 2h-3l-1 5h-1v-8z" fill="#CC8E77"/>
<path transform="translate(321,787)" d="m0 0 2 1-2 10-2 2v-7z" fill="#D9AA98"/>
<path transform="translate(216,450)" d="m0 0h2l1 8h-4z" fill="#F1CABA"/>
<path transform="translate(321,272)" d="m0 0 11 1 1 2h-12l-2-2z" fill="#E7212C"/>
<path transform="translate(399,257)" d="m0 0 5 1 2 2-3 3-2-3-2 2v-2l-3-1z" fill="#C1836C"/>
<path transform="translate(404,215)" d="m0 0h1v9l-2 4-2-5 1-4h2z" fill="#DEA691"/>
</svg>
