<?xml version="1.0" encoding="UTF-8"?>
<svg version="1.1" viewBox="0 0 1000 1000" width="1280" height="1280" xmlns="http://www.w3.org/2000/svg">
<path transform="translate(0)" d="m0 0h1e3v1e3h-1e3z" fill="#042C42"/>
<path transform="translate(417,257)" d="m0 0h17l7 2 10 5 3 6v12l-3 6-7 6h-3l-2 5-3 3h-2v17l-1 11h-2l1 3-2 5-4 4h-2l1 4h-2l-2 6h-2l1 3v3l5 6 2 6-1 6-4 11 2 8h2v2l5-1 4-1 5-4 3-9 2-10 3-6 2-6 2-4h-2l-2 4-1 1h-8l-4-4 1-5h3l1 2 8-2 6-7h2l1-6 6-10 4-5-13 4-9 3-1 3-2-4 5-5-7-6-1-2v-6l5-8 2-1h6v2l-4 1-2 4v6l2 3 8 2 10-3 10-6 12-8 11-4 13-1 12 3h2l-3-7-1-12v-7l1-7v-6l3-2 1 18 6 20 4 9 2-9 5-5-1 7-2 4v7l7 12 1 7-1 2h2l1-2 2 10h2l1-3 5-3 5-4h2v2l-4 4h-2l-2 6-4 9-1 14-2 1v8l-3 4-2-1 1 4-8 10h-2l-2 7-4 2-1 6 12-6 5-2 4-10 3-3 3-12 6-9 3-1 5-7 7-6 1-3-2-6-4-5-3-9-1-7 2-8v-8l-2-8 1-11 3-5 7-6 10-2h13l16 8 1 4-1 1h-9l1 3-5 1 2 2h2l3 3 1-1-2-2h2v-2h-2v-2l6-1 5-2 15 8 10 5 11 6 1 3 6 2 12 10 6 7 4 1 5 4 16 12 17 14 8 6 19 19 11 14 13 16 9 11 7 8 9 11 4 4v2h2l5 5 6 7 10 8v3l-10-3-11-7-8-4-5-3-11-7-7-4-20-16-3-2 8 10 9 10 12 13 3 3v2l4 2 11 12 5 4v2l4 2-1 3-9-1-17-7-12-7-11-7-9-4-11-9-17-13-10-8-5-1v2l4 2 19 19 2 1v2l3 1v2h2l7 8 6 7 2 4 11 9 12 11 12 9v2l-9-1-17-5-14-6-13-7-6-4v-2l-4-1-10-7v-2h-2l6 9 2 4 4 3v2l-4-2-5-4 4 6v2l-14-7-2 6 3 5 5-1v3l-2 2 4 12 3 3 5-1 2-2 1 3-3 5-7 2-5-3-1-1-1 4 2 6 5 8v7l-3 3-4 1-1-3 2-1-1-4-5-6-1 3v15l-3 7-1 5-6-3-7 8-4 5 2 1-1 2h-3l1 13 2 5 3 4 1 3v-2l6-1 6 3-1 3h6l1 3-3 1 2 3 2-3h2l1 3v3l3 1 2 5v3h-2v4h3l1 11h-2l-1 3h3l-2 10h-2v5h2v2l9 1 5 3v2l3 1v2l3 1v2l5 2h7l5-3 3-6-1-9-6-12-11-13-10-13-5-8-2-7v-15l5-12 5-8 6-12-1-5-8-8-1-7 1-2h2l1 7 4 3-5-11v-13l1-2h2l1-3-1-5 1-2h2l2 7 3 2-2-6 1-8 2-2 4 1-4 2 3 8 1 4h2l1-2v4h-2l1 6h2l4 10-1 10 4-3 4 2v2h-5l-11 17-7 6-9 14-3 10v8l3 9 8 10 7 6 3 3v2l3 1v2l4-1 3 5v2h3l6 13 1 10 3-4v-12l2-2 4 1v2h-3l1 7v9l-5 10-7 4-3 3 5-1v3l-5 1 2 1v2l-10 1-5-2 1 8h6l5-1v3l-7 3-8-1-6-4-5-9-2-10-1-3-5-2h-5v3l2 5 2 19 4 5h5l2-1-1 4-3 2-1 3 5 2v2l3 1v2h-5v2l4 1 1 5 4 4 1 10 3 4v3l6 1v2l-6 1 2 4 3 2v2l-6-1v7l-3 3-1-3-4 10-10 3-4-1h-2v-2h-3l-1 2h-2l-4-8 3-7 3-2 11 1-2-9-1-14-1-4h-2l-3-5-11-6-4-2-4-4-2-4v-3l-6-1-3-11-3 2 1-6-2-1v4 3h-2l1 5v3l2 6-3 4h-2l-2 5h-4l1 6-1 5-1 4-2-1-1-5-3-1v-5l-2 2h-3v2h-2v-4l-9 3-5-2-8-4-2-3 1 6 4 4-1 2-5-3-2 6v11l-2 4h-2l-1 3-1-1 1-11-3-1-2 7-6 3-3-6-4 8h3l2-2 2 3 4 2-1 12 1 2v9l-1 1h21l13 3 8 5v2h-2l1 5-2 16h-3l-10-5-10-2-19 1-10-2-11-6-9-8-3-3-5-2-6 1-2 9-5 3h-7l-8-4-14-9h-13l-7 1h-20l-10-3-9-6-2-2 2-18-1-4v-7l2-4 10-5h3v-2l-6 1-4 2v2l-6-1-12-7-13-10-10-9-9-11-8-16-4-10-4-17-1-3h-2l-1-4v-7l1-4-7-1 3 4-3 1-3-3-2-9-2 1-1 2-8-3-5 7-4 8v4l3 1 2 5 2-1 1-5 10 1v-3l4 1 2 4 5 1-2 4h-2l4 11v10l-1 2-8 1-1 6 5 6 1 6-1 7 5 6 7 3 2 3 1 5 9 1 4 2 1 7-5 5-6 4 4 5h21l3 1h13v-3l-7-1v-2l6-1 5 5 1 4-1 3-5 5-2 3-5 1 1-4 3-4-3-2h-4l1 2 4 2-4 2-2-1-9-1h-2l-5 2v-2l-7-1 6 11 7 8 12 9 3 3 10 2v2h-2l-2 4h-8l-6-4-7-2-3-7-10-7-8-7-4-8-2-6h-7l-8 7-7 9h-2v2l-8 8h-2v-6l5-9 1-9h-2l-1 5-4 4 1 7-3 1-1 4h-2l-3-11-3 5h-4l2-4-17 5-10 2-1 2-7 2-3 3-7 1-10 2 1-5 5-2 11-3 7-2-6-1-2 2v-4l-6-1v-1l7-2 5-5 11-4 3-6-3 1 1-5-9 6-7 1 4-4 9-7 6-7-6 5h-4l-2 4-14 7-8 1v-3l8-3-8 1-6-1 1-2 9-2 16-8 10-8v-2l-4 2v-3l-8 3v-3l14-11h-1l-8 5-15 5-4 6h-3v2l-6 4-1 4h-4l-3 3h-4l-4 13v8l-2 8h3v3l5-1v-2l3-2 4 1 4 7 1 5-2 3-2-2-3 2-1 4h-2v-3l-5 2-1-1-1 5h-2l-1-2-11 1-8-1-1-2h3v-4h-6l-2 1h-8l-5-2-16-8-13-5h-12l-9 4-4 5-2 6 1 10h2v2l10 1 4-1 3-7-1-8h-9l-2 3h-2l1-5 4-5h7l4 2v3h2l-1 13-4 6-7 3-8-2-5-5-3-6 2-10h-7l-4-4 1-7 4-5 2-1h6l2 5v5h-2l-2-4-4-1-4 4 1 5 9-1 9-6 10-3 9 1 7 1 8 5 16 7h3l-1-2 7 2h4l1-6h-5l-1-3 3-1 3-7h-2l-1 3-5-1v-2h2l1-7 3-3 8-3 2-3v-9l-1-4 3-3 4-1-2-5-2 1h-6l-1-3 7-1 5-2h3l-2-2 1-4h2v3l5-2v-13l-2-11-1 1-4 5-5 5-3 4-3-3-5 4-2-1 2-3-9 4h-2l1-3v-1l-8 2 1-3 6-2-9-3-9-8-7-14-6-4-3-4-1-10v-12l-2-4-4-2-2 4h-2l1-5 3-3h6l3 2v2h3l2 5v4h2l1 10 2-6h3l1 4 5-8v-3l4 2 4-6 4 2v-2l11-9 6-10v-12l-6-8-10-7-11-4-15-3-10-5v-2h-2l-6-10v-2h-5l-2 4-3-3 1-5 3-2 5 1 3 3-1-14-4-7-4-2h-4l-2 3h-2l1-5 6-4 6 1 5 3 9 3 6 5 6 7 3 6v13l4-2v3l-1 5 4 4 16 8 8 6 6 9 2 7-1 8-6 11-8 8-11 8-7 8-1 2 9-4 5-2h3v-4l-2-1 4-1 2 6-4 5v5l-1-2-5 1-5 6-7 5v7l6 7 8 3 11-1 9-5 6-7 3-7 6-8 5-3 6-8h2l2-5 5-13 4-18 4-10 1-2-6-4-4-6-2-5-3 3-6 2-4-6 3-2 2 2-1-4-5-4-4-9-1-8-3 4-6 1-4-4-1-3 3-1 1 2h6v-6l-6-11v-12l4-7 2-4-2-2v-9l2-5-8 7-5 4-1 2-3-1 4-9 5-10h2v-2l-4-2v-2l-11 8h-2v-2l-8 4-15 12-9 6-4 1-7 5-7 2-5-1 5-6 2-3h2l2-4 5-5h-2l-5 1-9 4-8 1h-10l2-4 9-6 14-12 13-12 7-8 8-9 5-7h2l2-4 7-8 13-15 4-5h2v-2h2l-1-3-6 4-6 8-8 6-9 10-13 12-8 7-11 9-6 3-9 7-4 2h-2l-9 6-5 1-5 3-6 1-4 1-8 1h-2v-3l6-4 9-7 10-8-15 4-12 1v-3l13-9 10-9 15-14h2l2-4 17-17 7-8 6-7h2l2-4 9-11 12-14 7-8 15-16 23-23h2v-2l6-5h2v-2l20-15 14-10 16-10 15-9 4-2 10-7 3-3 10-5 2-4 7-4z" fill="#D0A23B"/>
<path transform="translate(564,433)" d="m0 0 9 4 5 2 2 4 12 9v2l14 11 11 8 15 8 6 1v2l-3 1 2 4 1 8 4 2 2 2 8-1 2-2 5 1 3 5-2 6-2 2h-17l-1 1-1 3h2v-2h18l3 3 4 2v7l-6 2-10-4-6 1-5 1v-3h-2l1 6-12 3-6 5-3 6h-2v-2h-4l-3 3-3 5-4 1-4 8h2l-1 4h-2l-1 7h-1v-9l-2-8 2-6 1-2h-3l-3-5-9-7-8-8 2-5h2l2-9 1-5h-2l-1 6-3 1 1 6-6-5-3-3 9-1 1-5v-3h-4v-3l-3 1-2-3h-12l-3 1-1-3-7-1-3 2-4-1-6-4-6-2-22-1-14 4-10 4-10 2-1 3-2-1 1-2-4-2-5 1-1 1-13 1-4 4-1 5-2 1h-6l-2 5-1 1 1 10 1 4-11 7-12 12-5-5-6-3 1-3 2-2 2-7-5 4-6-1-4-6-4-10-6-5-7-2 2-4 3-3 1-3h-2l-2 4h-5l2-4 7-8 3-3h2l7-12 1 3-1 8-1 2-1 15 1 7 2-4 2-5h2l5-11 1-7 4-8 1 2v20h2l2 7 2 1 3-10 4-13h1v13l3 1h15l10-5 2-5 4 5 2 3-1-7-1-9h4l6 9 3 1v-12l2-7h4l8 17 2-4 2-13 3-4 3 3 2 5 4-4 4 2 3 8 1 3h2l2-14 2-3h2l5 13 3-1 4-9 4 1 4 15 1 1 6-14 4-1v5l4-1 2 4v11l4-4 4-7h3v10l-1 3h2l3-10 2 4 12-2 1-2 5-2 4-4 1-3 8 7v2l5 2 9 6v2l4 2 5 4 4 4-5-12-6-10-9-11-9-10-5-5v-2l-4-2-5-3-4-5-7-3v5l1 2-2 4h-1z" fill="#03283C"/>
<path transform="translate(288,54)" d="m0 0h17l10 3 11 8 7 10 5 13 2 8v27l-4 14-8 11-8 6-11 4h-15l-12-4-10-8-7-10-4-8-3-12-1-7v-15l3-14 5-10 7-8 10-6z" fill="#032B41"/>
<path transform="translate(543,528)" d="m0 0h2l3 4-4 2-3 2 1 3h-3l4 3v2l-4 1-2-4h-3v2l3 1v1h-7v3l5 1 9 7 5 4 11 14 1 5-4 4-3 22-5 1-5-1-2 5-3 1 3-6-3 1-2 5h-2v2l5-1h10l3 1-1 8 10-4 4 7 1 4v12l-5 10-4 6-1-3 2-4v-8l-7-6-4-5-5-1-2-8-1 1 1 10h-2v5l-2 1-1-6 2-1 1-3-3 1v-2l2-1 1-3-3 1 3-6-4 1 1-5-5-1 1-3-6 2 1-5-4 3-1-5-4 2-1-4-2 5h-2l-1 7 12 1 1-2 4 6 1 8-4 2-10-1-5-1-1 2 2 1-2 4v1l-1 8-2-1v-18l5-19 2-1v-2l-2-1-1 3h-2v-10l-2-3-7-1-5 1-2 2v8l1 4h-2v4h-3v-2h2v-3l-2 1-1 4-4 1 3-6-3 1-2 5-1-3 1-2h-3l-1 7-1-4h-3v3l-3 1v-3l-5 3-3 1v-2l3-3-3 1-3 4-2-1 1-2h2v-2h-4l-1 5h-2l1-4h-2l-2 6-3 1v-2l3-3-4 1-3-10v-11l7-16 8-12 9-9 9-6 7-3 1-2h2l2 5h2v2l6 2 4-2 3-10 4 1 1 5 1 2 3 1 1 4h2l2 2 4-1 2-4 4-5v-7l7-5 1-2h2v-2z" fill="#042A3F"/>
<path transform="translate(294,48)" d="m0 0h12l12 2 12 5 9 6 7 7 7 12 4 13 1 16-3 16-7 14-9 10-9 7-8 4h-2l5 5 11 9 10 7 18 11 17 9 18 7 12 3 7 1h14l11-2 9-4 5-2v4l-9 6-10 4-12 2h-12l-19-3-21-6-19-8-16-9-14-9-13-9-14-10-4-2-15-3-16-8-12-11-7-12-4-15v-15l4-16 6-11 7-9 11-8 11-5zm-6 6-10 4-9 7-7 10-4 12-1 7v15l3 15 4 10 7 11 8 7 8 4 7 2h15l11-4 9-7 7-10 4-14v-27l-5-16-5-10-6-7-11-7-8-2z" fill="#DBAB3E"/>
<path transform="translate(741,501)" d="m0 0 4 1-4 2 3 8 1 4h2l1-2v4h-2l1 6h2l4 10-1 10 4-3 4 2v2h-5l-11 17-7 6-9 14-3 10v8l3 9 8 10 7 6 3 3v2l3 1v2l4-1 3 5v2h3l6 13 1 10 3-4v-12l2-2 4 1v2h-3l1 7v9l-5 10-7 4-3 3 5-1v3l-5 1 2 1v2l-10 1-5-2 1 8h6l5-1v3l-7 3-8-1-6-4-5-9-2-10-1-3-5-2h-5v3l2 5 2 19 4 5h5l2-1-1 4-3 2-1 3 5 2v2l3 1v2h-5v2l4 1 1 5 4 4 1 10 3 4v3l6 1v2l-6 1 2 4 3 2v2l-6-1v7l-3 3-1-3-4 10-10 3-4-1h-2v-2h-3l-1 2h-2l-4-8 3-7 3-2 11 1-2-9-1-14-1-4h-2l-3-5-11-6-4-2-4-4-2-4v-3l-6-1-3-11-3 2 1-5 4-5 5-5h2l2-4v-4l-2-1 1-2h5l1-3 2-4 3-5 5-2h2v2l9 1 5 3v2l3 1v2l3 1v2l5 2h7l5-3 3-6-1-9-6-12-11-13-10-13-5-8-2-7v-15l5-12 5-8 6-12-1-5-8-8-1-7 1-2h2l1 7 4 3-5-11v-13l1-2h2l1-3-1-5 1-2h2l2 7 3 2-2-6 1-8z" fill="#D8A93D"/>
<path transform="translate(727,516)" d="m0 0 3 3v14l4 8v3l-4-2-1-1v-7h-2l1 9 8 8 1 5-9 17-6 12-1 3v15l3 8 7 11 11 13 9 12 4 9 1 9-3 6-3 3-3 1h-7l-5-3-4-5-5-4-11-3v-2h-2l-1-7 1 2h2l2-10h-3l1-4 2 1-1-11h-3v-4h2l-2-5v-3l-3 1-2-4 1-4h-2l-2 4-3-4 2-2 2 1-1-2-6-1-1-3-4-2h-6l1 5-2-2-2-5-2-3-2-6-1-10 1-2h3l-1-5 9-9 3-4 5 5 1-7 2-5v-17l2-3 4 6 3 3-1 4h-2l2 2 5-3v-7l-6-9-1-6 1-5 4 4 4 1 6-1 2-5z" fill="#042A3E"/>
<path transform="translate(564,433)" d="m0 0 9 4 5 2 2 4 12 9v2l14 11 11 8 15 8 6 1v2l-3 1 2 4 1 8 4 2 2 2 8-1 2-2 5 1 3 5-2 6-2 2h-17l-1 1-1 3h2v-2h18l3 3 4 2v7l-6 2-10-4-6 1-5 1v-3h-2l1 6-12 3-6 5-3 6h-2v-2h-4l-3 3-3 5-4 1-4 8h2l-1 4h-2l-1 7h-1v-9l-2-8 2-6 1-2h-3l-3-5-9-7-8-8 2-5h2l2-9 1-5h-2l-1 6-3 1 1 6-6-5-3-3 9-1 1-5v-3h-4v-3l-3 1-2-5 18-6 9-7 11 7 7 3 6 5 4 4-5-12-6-10-9-11-9-10-5-5v-2l-4-2-5-3-4-5-7-3v5l1 2-2 4h-1z" fill="#042B40"/>
<path transform="translate(659,64)" d="m0 0h24l10 14 13 15 12 13 9 11 6 6v2h2l7 8v-58l-3-6-4-2-7-1-1-2h38l-1 2-10 2-3 4-1 3v81l-3 2-11-12-9-11-12-13-9-11-12-13-9-11-4-3v58l2 9 13 3v2h-37v-2l9-2 5-5v-73l-1-5-6-2-7-1z" fill="#DBAB3E"/>
<path transform="translate(683,691)" d="m0 0 3 1v3l2-1 1 6 1 7 6 1 2 4v3l4 2v2l7 2 9 6 2 2v3h2l2 4 1 14 2 10h-7l-5-1-3 2-3 7-5-1-15-7v-2l-6-1-8-5 3-2 4-2 8-1 5 2 1 3h2l-2-4 7-1 4-5 3-5 2-3h-2l-1-2-14 1-4 3h-2l-1 4v-5l1-2-3 3v7l-4 4-10 3-1-2-6-2-9-8-11-5-11-1 2 2h-2l1 6-2 9-3 3-3-1 1-3 2-1 1-3v-11l2-7 6 3-1-3-4-4v-5l4 4 7 3 7 2 4-2h3v4h2v-2l3-1 2-2 2 6 2 1 1 5 1-3 1-11 4-1 2-4 4-4-3-8 2-3-2-1 1-2h2v-3l-2-1z" fill="#03283C"/>
<path transform="translate(545,50)" d="m0 0 1 4-8 22-2 5h-1l-1-8h-29v30h20l5-3 4-6 2-4 2 2-7 18-4 10h-1l-2-7-20-1 1 27 2 5 4 2h33l5-2 5-10h2l-3 9-7 20-2 1v-7l-25-1h-42v-2l11-3 3-5v-74l-4-4-10-2v-2l57-1 6-4z" fill="#DBAB3E"/>
<path transform="translate(632,50)" d="m0 0h2l-3 10-7 20h-2l-2-7h-28v30h19l6-3 4-6 2-4h2l-3 10-7 20h-2l-2-7h-19v25l2 6 5 2h33l4-2 2-4 4-7 1 3-10 27-2 1-1-7-2-1h-64l1-3 10-2 3-4v-75l-4-4-9-2-1-3h57l5-3 5-8z" fill="#DBAB3E"/>
<path transform="translate(579,695)" d="m0 0h2l3 15-1 4-12 3-2 2-7 2-3 4v6l5 5 1 2-16 5h-4l-6-2-2-4v6l4 4 13 6h4l1-3 5-1v-2l-4-1 3-2-1-3 6-2 14 9h2l-1 5 4 1 6 2 11 7 5 5 4 8-1 3-12-4-12-11-4-3-7-1-6 3v8l-1 1-7-1-9-8-4-2-7-1-40-1-10-2 3-2 16-5 4-5-2-1 1-4 16-6 16-8 14-10 4-2 2-4 8-9z" fill="#042A3E"/>
<path transform="translate(362,63)" d="m0 0h41l1 2-11 3-4 5v53l4 13 7 8 8 3h15l10-5 6-9 3-12v-48l-3-7-3-2-8-1v-3h36l1 2-11 3-3 5-1 4-1 46-3 14-4 8-7 7-9 4-5 1h-19l-10-3-8-6-4-7-3-8-1-8-1-51-2-5-4-2-9-2z" fill="#DBAB3E"/>
<path transform="translate(347,707)" d="m0 0v3l-11 9-4 4 10-3-1 3 5-2-3 5-11 8-16 8-7 1 6 1 9-1-4 3-6 2 3 1 10-3 6-4 4-2 1-2 5-2 6-4-2 4-8 8-9 6 6-1 10-6-1 5h2l-2 6-5 3-8 3-5 5-4 1 4 1 1 2 4-1 5 1-2 2-16 5-7 1 1 4 12-3 3 2-7 2-6 2h-8l-2-1-1 5-10 1v-5l2-1v2l5-2v3h2l1-5 4-2 1 2 1-3-3-7-2-4-6 1v2l-5 1v-3h-3v-6l1-2v-9l4-12 5-1 4-3 3 1 1-5 4-3h2v-2l3-1 4-6 14-4 3-3 6-3z" fill="#032537"/>
<path transform="translate(386,474)" d="m0 0 1 3-1 8-1 2-1 15 1 7 2-4 2-5h2l5-11 1-7 4-8 1 2v20h2l1 8 5 2 1-4h4v2h14v2h2l-2 6-2 2 1 10 1 4-11 7-12 12-5-5-6-3 1-3 2-2 2-7-5 4-6-1-4-6-4-10-6-5-7-2 2-4 3-3 1-3h-2l-2 4h-5l2-4 7-8 3-3h2z" fill="#032B3F"/>
<path transform="translate(677,649)" d="m0 0h3l3 13 3 2 1 9-2 6-2-2v-4l-2 2-4-4-2 2-2-2-2 4-2-6-2-4 1 3-3 3-4-1 4 3-1 2-2 1 4 7h3l-3-4 1-2 2 1 2-2 4 5 3-2 2 5-1 5h-2v5l-4-4-3 5 1 1 2-2 3 5-1 2h-2v3h-3l-1 4-15 6h-5l-2-3-7-1-1 2h5l1 2-5 1v-2h-2l-2-5-2-2-4-11v-6l-1-5 6 1-4-5 1-2 13 3-7-7 2-1 15 2-2-4-1 2-8-1-2-4 2-1 8 1 12-1-1-1-6-2v-1l16-3-2-1-11-2 4-2 6-2 5-2z" fill="#0A2E3F"/>
<path transform="translate(367,646)" d="m0 0v3l-1 5 4-2 1 3v-2h3l-1 4-2 3h-2l1 9-4 4h4v2l2 1-2 4v11h-2v4h-14l-2-1h-6l-10 5h-4v-11l-2-5 1-5 1-1 1-8-6 5v-6h2l1-4 4-3 12-6 5-2 1 1 9-3z" fill="#032A3E"/>
<path transform="translate(633,731)" d="m0 0h7l10 3 10 6 7 6 5 3 10-3 3-1v-9l4-4 2 1-2 3 6-4 14-1 1 3h2l-2 4-6 9-5 2-3-1 2 3 3 2-3 1-3-2v-3l-7-1-8 2-3 2 9 5 4 1v2l19 8v2l-2 2-7-1v2h-2v-3l-6-2-8-5 1 5 2 4v9l-5 9-4 2-2-5-3-9 2-8 4-4 1-4-2-2-6-4v-3h-7l-8-3-6-4-3-9v-2l-3 2-4 1-1-2 1-3h-2l-2 4h-3z" fill="#D5A63C"/>
<path transform="translate(564,868)" d="m0 0h20v3l-6 1v21h31l-1-20-6-2 1-3h20v3l-6 1v39l1 9 6 2v2h-22v-2l6-2 1-23h-31v23l7 2v2h-21l1-3 4-1v-47l-6-2z" fill="#DBAB3E"/>
<path transform="translate(632,590)" d="m0 0h1l1 8-3 2-1 10 2 6v5l-3 2 8-2 4 10h1v-5l-2-1v-5l8 8 2 4-17 10-10 4h-2l-3 3h-1l-2-6-1-5 1-2-7 1-4-4-8-1 1-6h2l4 4 2 1 1-2 1 1 1-3 1-8 3-1 1-7h2l-1-7 3-4 2 8v-5l3 4 4-8 3-1 2-5z" fill="#04293D"/>
<path transform="translate(772,734)" d="m0 0h2v13l-5 10-4 3h-3l-4 6-3 2 7-1 11-5 6-3 18-3h10l3 3 4 2 9 1-1-4-2-2h-6l3-2 7-1 4 1-1 8-2 2-8 1 4 5 3 6v8l-4 7-6 3h-9l-6-4-3-6 1-7 3-1v-2l2-1h6l3 3v8l-3 3-1-3v-6l-5-1h-2l-1 8 5 6h10l6-5 1-3v-7l-3-1-1-5-5-6-9-4h-15v2l-7 1-15 6h12l10 9-1 5h-8l-10-4-3-3-1-3-2-1h-6l-11 4h-7l-2-1v2l-5-1v-2l16-4 4-4 5-3 1-1v-14l9-10z" fill="#D9A93D"/>
<path transform="translate(525,713)" d="m0 0 3 1-1 1 2 1 1 2h4l5 3h3l2-1 3 1-6 4h-2v-2h-2v2l-2 1 1 2-4 1v2l-10 5-8 2-1-5-5 7 1 5-3 3h-2v2l-11 4-1 2-7-2-6-5-1-6 8-6 24-6 5-2v-3l-9 4-5-1-9-3 4-2 7 1v-1l11-1v-2l-2-2z" fill="#10110A"/>
<path transform="translate(500,698)" d="m0 0h31l11 1-5 5-11 6-15 6h-4v2l-10-1-10-3-11-6-6-4v-3l15-2z" fill="#03293D"/>
<path transform="translate(677,649)" d="m0 0h3l3 13 3 2 1 9-2 6-2-2v-4l-2 2-4-4-2 2-2-2-2 4-2-6-2-4 1 3-3 3-4-1 4 3-1 2-2 1 4 7h3l-3-4 1-2 2 1 2-2 4 5 3-2 2 5-1 5h-2v5l-4-4-3 5 1 1 2-2 3 5-1 2h-2v3h-3l-1 4h-4l1-4v-3l-2-6-1-2-3-1-2-6-3-6v-3l-2-1-1 3-6-1h-3l-5-4 2-1 15 2-2-4-1 2-8-1-2-4 2-1 8 1 12-1-1-1-6-2v-1l16-3-2-1-11-2 4-2 6-2 5-2z" fill="#1D1809"/>
<path transform="translate(255,867)" d="m0 0h9l11 2 1 13h-2l-5-8-7-3h-10l-8 3-5 5-4 9v12l3 10 4 6 10 5h14l2-5v-8l-1-3-7-1v-3h21l-1 3-3 1v17l-5 2-6 1h-15l-10-3-6-4-7-8-2-5-1-11 2-9 5-8 8-6 8-3z" fill="#DBAB3E"/>
<path transform="translate(579,695)" d="m0 0h2l3 15-1 4-12 3-2 2-7 2-3 4v6l5 5 1 2-16 5h-4l-6-2-2-4-1 5-1-4-7 2-9 3-1 7-3 3-9 3v2l4 1-14-1-3-2 16-5 5-3 2-3-2-1 1-4 16-6 16-8 14-10 4-2 2-4 8-9z" fill="#030402"/>
<path transform="translate(469,613)" d="m0 0h2v2l-4 3h-2l-2 4-3 11-8 5-4 7-1 9 1 3 1-4v-7l2-1 1 6-1 7 1 1 1-3 1 4-4 2v-2l-4 1h-3v-2h-7v2l-4 2h-3l-3 1-1-4-2 2-1 2h2l-1 5-2-2-2-7v-5l6-1v4h2v-3l7 1v-3h2l1-4h2v-9l-1-3 5-12 5-5 7-4 9-1 3 1v-2z" fill="#032B40"/>
<path transform="translate(537,469)" d="m0 0h3v5l4-1 2 4v11l4-4 4-7h3v10l-1 3h2l3-10 2 4 12-2 1-2 5-2 4-4 1-3 8 7v2l5 2 9 6-4 1-11-7-9 7-18 6-12 1-3 1-1-3-6-2-1-4-7-6-2 3-4-1 6-14z" fill="#030402"/>
<path transform="translate(289,884)" d="m0 0h18l7 3 3 6-2 7-5 5 7 11 4 5 4 2v1h-7l-6-4-8-12-6-2 1 15 4 1v2h-15v-2l4-2v-32l-4-2z" fill="#DBAB3E"/>
<path transform="translate(389,408)" d="m0 0h1v5l4-2-7 21h2l-1 13h-1v-10l1-2-3 3-10 18-11 16-2 5-6 8-3 5h-7l-3-3 1-5 7-8 2-3 5-3 13-18 13-20 4-7v-2l-7 11-5 3-4 4-10 15-3-1-1-2-2 3h-3l2-4 4-6-1-2 2-8 2-2-1 16 1 1 12-17 5-3 8-11 1-7z" fill="#030402"/>
<path transform="translate(466,467)" d="m0 0 3 1 8 17h-3l-6-12h-1l-1 13-1 3h-6v3l2 2-5 3-13 1-4 4-1 5-7 1v-2l-3 1-1-2-12-1v-2h-4l-1 4-5-1-1-4 4 3 3-10 4-13h1v13l3 1h15l10-5 2-5 4 5 2 3-1-7-1-9h4l6 9 3 1v-12l2-7z" fill="#040503"/>
<path transform="translate(537,606)" d="m0 0 1 3-1 2h-2v2l5-1h10l3 1-1 8 10-4 4 7 1 4v12l-5 10-4 6-1-3 2-4v-8l-7-6-4-5-5-1-2-8-1 1 1 10h-2v5l-2 1-1-6 2-1 1-3-3 1v-2l2-1 1-3-3 1 3-6-4 1 1-5-5-1 1-3-6 2 2-5 5 1v2z" fill="#032639"/>
<path transform="translate(247,136)" d="m0 0 4 4 7 8 10 7 11 5 15 3 10 6 8 6 16 11 18 11 16 8 18 7 15 4 19 3h12l15-3 14-7 3-3h2l-1 5-3 1v2l-8 4-15 4h-25l-16-3-20-6-4-2v-2l-7-1-16-8-9-6-12-7-10-7-2-1v-2l-4-1v-2l-5-2-8-5-18-4-15-8-10-9v-2h-2l-3-6z" fill="#030402"/>
<path transform="translate(388,627)" d="m0 0 1 2 5 1h3l2-1 1-2 3 13h4l-3-5 8 2v15h-8l-2-2v-3l-4-1v3l-10-1v5l-4 2-1-6-4-1 1-6 3-6 4-5z" fill="#032436"/>
<path transform="translate(504,346)" d="m0 0 1 3 4 4v11l-3 10-6 9-4 5-3-8-2-1-1-7-1-2 2-13h2l2-5z" fill="#03293D"/>
<path transform="translate(634,717)" d="m0 0 4 4 7 3 7 2 4-2h3v6l5-1 2 3-1 2v7l4 3h8l3-2v-11l-2-1 2-1 2 1 2 7h2v6l-4 4-10 3-1-2-6-2-9-8-11-5-11-1 2 2h-2l1 6-2 9-3 3-3-1 1-3 2-1 1-3v-11l2-7 6 3-1-3-4-4z" fill="#03293D"/>
<path transform="translate(465,64)" d="m0 0 2 1-1 3-10 3-3 5-1 50-4 16h-2l-2 5-6 7-5 3-5 2-6 1h-14l-11-2-10-5-6-5-2-4v-5l2 2 4 7 7 5 10 3h19l10-3 6-4 6-7 4-12 1-7 1-46 3-8 4-3z" fill="#030402"/>
<path transform="translate(606,433)" d="m0 0 17 4h5v2h-11l22 22 16 14-1 4-6 1v-2l-4-2-14-14-4-3-1-3-8-7-3-2-1 2-5-5-3-6-2-3h3z" fill="#072430"/>
<path transform="translate(380,884)" d="m0 0h2l13 36 5 2v2h-15v-2h3l-3-13h-13l-3 13h3v2h-12v-2l4-1 8-20 6-16z" fill="#DBAB3E"/>
<path transform="translate(291,882)" d="m0 0h17l8 4 3 6 1 6-3 5h-2l-1 6 3 5 4 2 2 4 4 1v3h30l2-9 4 4 1-2h2l-2 5h-4v2h12v-2h-3l1-8 2-5 3-1h8l3 3 2 6v5l-2-1-2-10-4 1-5-1-1 4v11l-3 2-6-1h-45l-5-2-3-3 1-2 5 3h6l-5-3-9-13-1-3 5-2 2-9-3-6-6-2-18-1z" fill="#030402"/>
<path transform="translate(612,546)" d="m0 0h9l-3 10-4 3-6 1-1 2h-2v3l9-3 1 3 10-1-2 5-6 3-2 3h-5l4 2h2l-2 4-1-2h-2l-1 3-6 3v-5l-2-5h-2l-1-3 1-1-1-3 2-10h3l3-6v-3l2-1v2l2-1z" fill="#96752A"/>
<path transform="translate(283,418)" d="m0 0 1 4h-2v2h-2l-2 4-10 11-6 7-5 1-8 7-3 4h-2l-1 3h-2l-1 3-4 1-2 4-8 6-11 8-8 5-5 2-3 1v2l-14 5-6 2-9 2-8-1 4-2 9-1 4-2 5-1 4-3 6-1 9-6h2l10-7 4-3 7-4 13-12 11-9 10-10 6-7 5-3 8-10z" fill="#030402"/>
<path transform="translate(288,54)" d="m0 0h17l10 3 11 8 7 10 2 6h-2l-6-10-6-7-13-6-5-1h-10l-12 4-4 1v2l-8 7-4 8-4 13v22l3 13 5 10 4 7 8 7h-3l-8-7-8-14-4-14-1-7v-15l3-14 5-10 7-8 10-6z" fill="#030402"/>
<path transform="translate(212,766)" d="m0 0h12l13 5-3 2-5-2v-2h-18l-7 10-1 3 4-4 9 1 2 5-1 7-5 5h-7l-5-2v-2h-2l-2-5 1-9 4-6 5-4z" fill="#03293D"/>
<path transform="translate(318,50)" d="m0 0 9 1 9 5v2l5 2 2 4 3 1 7 11v2h2l3 10 2 9v20l-3 15-1 2h-2l-2 6-3 3-5 7h-2v2l-6 4h-2v2l-9 4 4 5 7 4 1 4-6-4-11-9v-2l13-7 10-9 7-10 5-12 2-13-1-16-4-13-7-12-8-8-16-8z" fill="#030402"/>
<path transform="translate(593,569)" d="m0 0 2 4h3v3h-2l3 8 4 1-2 4-2 3-4 14h-2l-3-21h-1l-1 10 1 9-2 3v-8l-5 1v12l-3 4-1-10h-2v11l-2 4-1-2v-8l-3 2-3-1 5-4 8-14 7-10z" fill="#0F1009"/>
<path transform="translate(439,884)" d="m0 0h27l1 8h-3l-2-4-4-1h-8l-1 15h11l1-5h2v12h-3l-2-4-9-1 1 16 4 1h7l5-2 2-4h2l-1 7-1 2h-30v-2l5-2v-32l-4-2z" fill="#DBAB3E"/>
<path transform="translate(328,884)" d="m0 0h26l1 1v8l-2-1-2-4-13-2v16h11l1-5h2v12h-3v-4h-10v15l3 1h10l4-4 1-2h2l-2 9h-30v-2l4-1 1-9v-19l-1-6-3-1z" fill="#DBAB3E"/>
<path transform="translate(348,732)" d="m0 0v3l-9 9-9 6 6-1 10-6-1 5h2l-2 6-5 3-8 3-5 5h-6l-1-5-2-4-4-3 1-3 12-4 6-4 4-2 1-2 5-2z" fill="#03293C"/>
<path transform="translate(444,259)" d="m0 0 5 1 4 4 3 5 1 12-3 8-7 6h-3l-1 5h-2v2l-5 5v25l-1 2h-2l-1 6-4 6h-2l-2 6h-2l2 10 3 1 2 8-1 8-3 11-1 3-2-1-1-5 5-13-1-7-4-7-3-3 1-5h2l2-6h2l-1-4 4-1 2-4 1-7 1-3 1-12v-11l5-5 3-5 5-3h2l1-3h2l2-6v-12l-3-6-6-3z" fill="#030402"/>
<path transform="translate(575,780)" d="m0 0 6 1 5 3 5 5 6 5 9 5 10 2 19-1 10 2 12 6 2-19v-2h3l-1 22-2 2-4-1-13-5-10-1h-20l-4-1v-2h-6l-6-5-4-2-2-3-5-2v-4l-11-1-1 7h-2l-1 3-8 3-6-1-9-5v-2l-5-2 2-2 9 6 5 2h7l4-2 2-10z" fill="#030402"/>
<path transform="translate(659,673)" d="m0 0 3 4 4 6h3l-3-4 1-2 2 1 2-2 4 5 3-2 2 5-1 5h-2v5l-4-4-3 5 1 1 2-2 3 5-1 2h-2v3h-3l-1 4h-4l1-4v-3l-2-6-1-2-3-1-2-6-3-6 1-4 3-1z" fill="#2D240D"/>
<path transform="translate(504,541)" d="m0 0 4 1 1 7-4-1-5 8-7-1-5-5-4 1-8 4-8 6h-2l-2 5-4 2-2 6-5 8-5 11-1 10 3 7 2 1-1 5-3 1v-2l3-3-4 1-3-10v-11l7-16 8-12 9-9 9-6 7-3 1-2h2l2 5h2v2l6 2 4-2z" fill="#030402"/>
<path transform="translate(706,731)" d="m0 0 4 1v2h2l-2 4-6 9-5 2-3-1 2 3 3 2-3 1-3-2v-3l-7-1h-6l3-5v-7l4-4 2 1-2 3 6-4z" fill="#D5A63C"/>
<path transform="translate(191,759)" d="m0 0h6l2 5v5h-2l-2-4-4-1-4 4 1 5 9-1 7-5h2l-1 3-5 4-3 8 1 10h2v2l10 1 4-1 3-7-1-8h-9l-2 3h-2l1-5 4-5h7l4 2v3h2l-1 13-4 6-7 3-8-2-5-5-3-6 2-10h-7l-4-4 1-7 4-5z" fill="#DAAA3D"/>
<path transform="translate(681,83)" d="m0 0 7 6 11 13 10 11 9 11 11 12 6 8h-3l-9-11-5-6-5-5-1-3-4-2-1-4-3-1-7-8-8-9-4-5-2-1 1 58 1 2 3 1v2h5v2l-6-1-4-2-2-3-1-6v-58z" fill="#030402"/>
<path transform="translate(506,882)" d="m0 0 2 1h34l-1 9-2 1-1-5-5-1h-7v35h5l-1 2h-16v-2l5-2v-33h-8l-4 2-2 3h-2l2-9z" fill="#DBAB3E"/>
<path transform="translate(704,883)" d="m0 0 10 1 2 6v2h-3l-3-5h-10v7l4 5 9 6 3 5v7l-3 5-6 3h-7l-7-3-1-8h3l3 6 2 1h8l2-1v-8l-5-5-8-6-3-5 1-7 6-5z" fill="#DBAB3E"/>
<path transform="translate(433,882)" d="m0 0h1l-1 11-2-1-2-4-4-1h-7v31l1 3 4 1v2h-17l1-2 4-1 1-35-11 2-3 4h-2l2-9h34z" fill="#DBAB3E"/>
<path transform="translate(251,734)" d="m0 0 2 1 2 7v13l-3 9 1 5 5 6-5-2-11-13-1-6v-8l6-9z" fill="#D7A83D"/>
<path transform="translate(764,65)" d="m0 0h2v3l-8 2h-3l-3 10v80l-6-1-2-1v-2h-2l-6-8 1-2 10 11 2-2v-80l3-6 5-3z" fill="#030402"/>
<path transform="translate(653,882)" d="m0 0 2 1h34l-1 9h-2l-2-4-12-2 1 36h5v2h-17v-2l5-2v-33h-7l-5 2-2 3h-2l2-9z" fill="#DBAB3E"/>
<path transform="translate(515,603)" d="m0 0 1 3-1 2h-2l-1 7 12 1 1-2 4 6 1 8-4 2-10-1-5-1-1 2 2 1-2 4v1l-1 8-2-1v-18l5-19z" fill="#03293D"/>
<path transform="translate(486,883)" d="m0 0 10 1 2 4v4h-2l-4-5h-8l-2 3 1 6 11 8 4 5v9l-4 5-5 2h-7l-6-2-1-9h2l3 5v2l8 1 4-2 1-6-3-5-10-7-3-4v-8l4-5z" fill="#DBAB3E"/>
<path transform="translate(252,870)" d="m0 0h10l7 3 4 5 1 4h-2l-1-5-4-2-3-1h-12l-6 3-5 4-3 9-1 7 2 9 3 7 6 5 3 1 15 1v-12l-7-3 1-2 7 1 2 4v8l-2 5-1 1h-14l-10-5-6-9-2-8v-12l4-9 4-5 6-3z" fill="#030402"/>
<path transform="translate(493,613)" d="m0 0 2 1 3 14-6 3-4-1v-2l-15 3v-8l5-8h2v2l-1 1 8-2z" fill="#032536"/>
<path transform="translate(537,469)" d="m0 0h3v5l4-1 2 4v11l4-4 4-7h3v15l-4-1v2l4 1-6 3-1-3-6-2-1-4-7-6-2 3-4-1 6-14z" fill="#080B08"/>
<path transform="translate(524,762)" d="m0 0h21l5 2-2 2-9 1-2 2 3 2-1 1 3 2-5 3-17 1-2-2 6-1v-2h-7l3-2h-7l-3-2 11-1-1-5z" fill="#050603"/>
<path transform="translate(739,884)" d="m0 0h16v2l-4 1v34l4 1v2h-16v-2l4-1v-34l-4-1z" fill="#DBAB3E"/>
<path transform="translate(469,613)" d="m0 0h2v2l-4 3h-2l-1 2-2-2-10 3h-3l-1 3-2 1-1 5-2 1-1 9v9l-4 2-1 2 2 1-1 3 5-2 2 4-2 2v-2h-7v2l-4 2h-3l-3 1-1-4-2 2-1 2h2l-1 5-2-2-2-7v-5l6-1v4h2v-3l7 1v-3h2l1-4h2v-9l-1-3 5-12 5-5 7-4 9-1 3 1v-2z" fill="#030402"/>
<path transform="translate(402,65)" d="m0 0 4 1-3 3-9 1v2h-2l-1 6v42l2 14 5 9 10 5 3 1h9l11-4h3l-8 5-3 1h-15l-9-4-7-8-4-13v-53l5-6z" fill="#030402"/>
<path transform="translate(259,586)" d="m0 0 6 2 2 1v2l5 2 5 4 5 9 2 7-1 9-3 8h-2l-2 5-4 5-5 1v5l-2 2v4l-15 6h-2l2-5 3-3h2l1-3 13-10 7-8 4-8 1-8-3-9-7-9-12-7z" fill="#030504"/>
<path transform="translate(690,606)" d="m0 0 7 2h3l1 4 3 3h3l1 3-1 3 1 5 3-1v3h-2l1 14-1 2-3-1-1-5-3-5-1-4-3-5-2-5-2-2-2-5-2-4z" fill="#032436"/>
<path transform="translate(543,528)" d="m0 0h2l3 4-4 2-3 2 1 3h-3l4 3v2l-4 1-2-4h-3v2l3 1v1h-7v3l5 1 9 7 5 4 11 14 1 5-2 2-2-6-7-10-5-5-8-6-7-4-3 3h-2l-2 4-4 2-1-3 4-1 2-4 4-5v-7l7-5 1-2h2v-2z" fill="#0B0A04"/>
<path transform="translate(552,522)" d="m0 0 5 4 3 4 2-2v2h2l3 8 3-2 5 10 4-2 4 10 1 4-4 3-8-12-7-7v-2l-3-1 1-7h-2v5l-5-3-7-5-4-2z" fill="#050706"/>
<path transform="translate(359,768)" d="m0 0 2 1-4 6-1 9-5 6-8 4-7 1 3-10 7-10 11-3z" fill="#D7A83D"/>
<path transform="translate(299,746)" d="m0 0 16 7 5 4 1 8-2 2h-8l-5-3-7-10-1-7z" fill="#D6A73C"/>
<path transform="translate(683,64)" d="m0 0 3 1v2h2l4 6 6 8v2l4 2 3 5 5 5 11 12 3 3 7 9 10 10v-51l-1-7-11-3v-2l9 1 4 5 1 3v59l-7-6-1-3h-2l-7-8-12-14-13-14-9-11-9-13z" fill="#030402"/>
<path transform="translate(432,538)" d="m0 0h1l1 11v7l-5 10-2 3-4-4-4-6-2-2 1-3h2l3-6 7-9z" fill="#03293E"/>
<path transform="translate(531,718)" d="m0 0 5 1 3 2h3l2-1 3 1-6 4h-2v-2h-2v2l-2 1 1 2-4 1v2l-4 2-11 1-1-6 3-8 7-1z" fill="#052B3E"/>
<path transform="translate(350,653)" d="m0 0 2 2v6l-2-2v5l3 1-5 3-6 1v-2l6-2-1-1-1-3-2 4-5 1-1-4-3 5h4l-1 3h-2l-2 10-1 7 2 1 1 8v3h-4v-11l-2-5 1-5 1-1 1-8-6 5v-6h2l1-4 4-3 12-6z" fill="#030403"/>
<path transform="translate(761,884)" d="m0 0h15v2l-4 2v34h4v2h-15v-2h4v-36h-4z" fill="#DBAB3E"/>
<path transform="translate(631,884)" d="m0 0h15v2h-4v34l4 2v2h-15v-2h4v-36h-4z" fill="#DBAB3E"/>
<path transform="translate(575,763)" d="m0 0 9 1 3 3-1 3 4 1v4l3 2v2l5 2-2 1-4-2v-2l-6-1-2-1v2l2 1-2 1-5-2-6 1-2 1 1-16z" fill="#060602"/>
<path transform="translate(592,72)" d="m0 0h28l2 2v6h-2l-1-4-25-1v27l18-1 4-1 2-4 2 1-4 5-5 2h-19l-1-1v-30z" fill="#030402"/>
<path transform="translate(225,888)" d="m0 0h1v11l2 9 4 6 7 6 7 3 5 1h15l10-2v-17l6-3 1 4-4 2 1 16-4 2-8 2h-15l-13-4-8-6-5-6-3-7v-14z" fill="#030402"/>
<path transform="translate(370,453)" d="m0 0 1 2h2l-2 5-7 10-2 5-6 8-3 5-6-2-1-3 4-7 9-9h2v-3l5-5z" fill="#03283B"/>
<path transform="translate(505,72)" d="m0 0h27l3 3v6l-2-4v-2h-26v27l20-1 5-6 2 1-6 7-3 1h-20l-1-1v-30z" fill="#030402"/>
<path transform="translate(402,584)" d="m0 0h3l5 13 6 11-2 8-1 2-1-1v-5h-2v-3l-5-2-3-1-4-4-8-4 2-1 8 1 4-2v-2l-6-2 1-3 2-1z" fill="#030402"/>
<path transform="translate(654,498)" d="m0 0 5 1 3 5-2 6-2 2h-17-2-3v-2l-6-1-3-3v-2l8 4 15-1h4l-2-1h-17l4-2 3-1-2-2 2-2 2 2 8-1z" fill="#03131A"/>
<path transform="translate(504,112)" d="m0 0h20l2 2 1 7h-2l-2-5h-16l1 28 6 1h29l5-2 2-5 2-1-1 4-5 5-2 1h-33l-5-3-2-5z" fill="#030402"/>
<path transform="translate(553,726)" d="m0 0 4 1v5l7 4 1 2-16 5h-4l-2-5h-3l-1-4 8-4 4-3z" fill="#092B3A"/>
<path transform="translate(704,533)" d="m0 0 4 5 1 2-3 3v14l-3 6v5l-9-1-4 5h-2l-2 5-1 3v10l2 6-1 4-3-4-2-6-1-10 1-2h3l-1-5 9-9 3-4 5 5 1-7 2-5v-17z" fill="#030402"/>
<path transform="translate(500,698)" d="m0 0h31l11 1-4 4-7-1h-37l-17 2v2l4 4-5-2-6-4v-3l15-2z" fill="#030402"/>
<path transform="translate(702,886)" d="m0 0h8l3 3-1 3-4-2h-6l2 7 8 5 4 4 2 3 1 10-4 6-3 2-11 1-8-4-2-4v-7l2 1 1 8 6 2h7l7-4 1-3v-7l-4-6-9-6-3-4 1-7z" fill="#030402"/>
<path transform="translate(478,66)" d="m0 0h7l5 3 2 3v74l-3 5-7 3-4-1 9-4 2-2 1-72-1-3-6-3h-4z" fill="#030402"/>
<path transform="translate(592,112)" d="m0 0h19l2 2v6l-5-5-13 1-1 5 1 22 6 2h29l3-2 3 1-4 3h-33l-6-3-2-6v-25z" fill="#030402"/>
<path transform="translate(299,886)" d="m0 0 8 1 4 5v7l-4 5h-9v-17z" fill="#030402"/>
<path transform="translate(667,663)" d="m0 0 3 4 1 6 2-4 2 3 3-3 3 5 3-3 1 5-3 1-2 4-3-1-2 3-4-6-3 2 2 4-1 2h-3l-6-10 1-2h3l-4-2 1-2h4l2-2-1-2z" fill="#A27F2E"/>
<path transform="translate(756,424)" d="m0 0 4 2 11 9 12 9 9 5 10 6 13 7 1 2-6-1-9-5-3-3-5-2-4-2v-2l-6-2-9-6 2 3-1 3-7-7v-2l-3-1-9-11z" fill="#030606"/>
<path transform="translate(458,519)" d="m0 0 7 6 4 2-12 6-12 9-1 2h-2l1-6 1-7 4-2 4-1 5-8z" fill="#111008"/>
<path transform="translate(587,585)" d="m0 0h1v10l1 9-2 3v-8l-5 1v12l-3 4-1-10h-2v11l-2 4-1-2v-8l-3 2-3-1 5-4 8-14z" fill="#040503"/>
<path transform="translate(755,544)" d="m0 0 5 1-5 5-6 9-4 4-4 6h-2l-2 4h-2l-2 5-5 10-1 5 1 13 6 8-1 2-7-8-2-8v-8l3-10 7-11 8-9h2l2-5 8-12z" fill="#030402"/>
<path transform="translate(396,292)" d="m0 0h2v2h8l-2 6 10-2-3 3-4 2-1 2 9-1 2 4h-3v-2l-6 1h-7l-19 12-7 2-12 7-5-2 3-3 1 2 8-4 6-4 10-4 16-10v-4-3l-6-1z" fill="#030402"/>
<path transform="translate(569,155)" d="m0 0h59l4 4-2 3-1-3-62-1-1-2z" fill="#030402"/>
<path transform="translate(712,620)" d="m0 0h2l1 5h-2v4h3l1 11h-2l-1 3h3l-2 10h-2v-2l-5 2v-2h2l-2-7 1-4-1-10 1-2h2z" fill="#BA9235"/>
<path transform="translate(669,661)" d="m0 0m-4 1h4l-1 3v3l-3 3-4-1 4 3-1 2-2 1-3-3v2l-6 1-1 3-6-1h-3l-5-4 2-1 15 2-2-4-1 2-8-1-2-4 2-1 8 1 12-1-1-1-6-2v-1z" fill="#221C0A"/>
<path transform="translate(578,897)" d="m0 0h31v23l-6 2v-2l4-2v-17l-27-1 1 17 4 3-1 2-6-2-1-18z" fill="#030402"/>
<path transform="translate(283,418)" d="m0 0 1 4h-2v2h-2l-2 4-10 11-6 7-5 1-8 7-2 2v-3l13-13 6-7 5-3 8-10z" fill="#030504"/>
<path transform="translate(646,884)" d="m0 0 2 2-1 3-2 1v29l3 3v5h-14l-1-3h13v-2l-4-1-1-1v-32l1-2h4z" fill="#030402"/>
<path transform="translate(474,771)" d="m0 0 4 2 10 6 8 2h20l7-1h13l7 4-4 1-9-2-10 1h-27l-13-5-6-7z" fill="#030402"/>
<path transform="translate(371,762)" d="m0 0h1l1 9-4-1-4 2-5-2h-2l-3 3-6 2h-8l-3 2-10 2 2-4 8-1 1-3 10-2 14-4h3l-1 4 4-2z" fill="#040502"/>
<path transform="translate(567,739)" d="m0 0 12 7 5 2v3l-5-1-8-4-5-1v2l2 1h-3l-1 4-3 1-1 3h-7l-10-5-5-3-2-2 1-3 4 4 13 6h4l1-3 5-1v-2l-4-1 3-2-1-3z" fill="#070703"/>
<path transform="translate(265,497)" d="m0 0h2v4l-10 5-7 6-9 6-4 2-3 3-13 5h-9l1-2 6-1 6-2 8-5 5-2 16-12 7-6z" fill="#070703"/>
<path transform="translate(382,432)" d="m0 0 2 2h-2l-1 6-2 2-1 2h-2l-1 4-2 1 2 5-4 1h-2l-6 9h-2v3h-2l-2 4-4 1-2 4-4 7 1 5-4-2-1-5 8-9 2-3 5-3 13-18 10-15z" fill="#030402"/>
<path transform="translate(320,765)" d="m0 0 7 2 1 2 4-1 5 1-2 2-16 5h-6l-3-4v-2l-2-1 3-2 8-1z" fill="#03293C"/>
<path transform="translate(623,870)" d="m0 0 1 4-4 2v42l4 2v2l-7-2-1-9v-35l1-4z" fill="#030402"/>
<path transform="translate(670,676)" d="m0 0 5 5 3-2 2 5-1 5h-2v5l-4-4-2 3h-2l-2-5h-3l-3-5 2-4 4 4h2l-3-4 1-2 2 1z" fill="#2A220D"/>
<path transform="translate(346,517)" d="m0 0h2l4 8v12l-2 3-2-6h-2l1 7h-2v-2l-4 1v2l-5 2-2-3 4-4 7-2v-3h2l-2-9-2-1z" fill="#030403"/>
<path transform="translate(525,713)" d="m0 0 3 1-1 1 2 1 1 2-4 2-7 1-2 7h-2v-2l-9 4-5-1-9-3 4-2 7 1v-1l11-1v-2l-2-2z" fill="#080803"/>
<path transform="translate(612,546)" d="m0 0h9l-3 10-4 3-6 1-1 2h-2l-1 2-4-1 1-5h3l3-6v-3l2-1v2l2-1z" fill="#042D43"/>
<path transform="translate(431,698)" d="m0 0 5 5 9 10 15 12 9 6 8 4 4 1v-2l3-3h7v2l-9 4-4 1-1 4h-2l1-5-6-2-8-5-4-2-3-3-5-4-7-6-10-12z" fill="#030402"/>
<path transform="translate(356,746)" d="m0 0 1 2-3 12-6 5-4 1h-14l2-4 6-2 9-2 4-4 3-6z" fill="#030402"/>
<path transform="translate(564,433)" d="m0 0 9 4 5 2 2 4 12 9v2l14 11 2 3h-2v3h2l1 5-4-4-9-11-9-9v-2l-4-2-5-3-4-5-7-3v5l1 2-2 4h-1z" fill="#030402"/>
<path transform="translate(484,155)" d="m0 0h41l17 1 2 1-1 4v-2h-57l-7-1v-2z" fill="#030402"/>
<path transform="translate(304,761)" d="m0 0 4 4 3 1v2l-2 1 5 8h-2l1 4 12-3 3 2-7 2-6 2h-8l-2-1-1 5-10 1v-5l2-1v2l5-2v3h2l1-5 4-2 1 2 1-3-3-7-4-8z" fill="#030402"/>
<path transform="translate(297,746)" d="m0 0 2 3 2 7 3 4v6l-5 2v2l-5 1-1-6 1-2 1-14z" fill="#032537"/>
<path transform="translate(672,886)" d="m0 0h8l5 2 1 4h-2v-2h-8v28l2 4h-5l-1-2z" fill="#030402"/>
<path transform="translate(795,759)" d="m0 0h8l9 4 7 8-1 3-3-5-7-5-5-2-11 1-13 3-1 3-14 1 4-3 16-6 4 1v-2z" fill="#030402"/>
<path transform="translate(417,609)" d="m0 0 5 3v2l5 2 9 6-3 1-1 5h-5l-1-2h-2l-1 2-2-4v-4l-4-1z" fill="#0B0A04"/>
<path transform="translate(616,600)" d="m0 0h1l2 9-3 5-3 7-1 5 1 5-3 1v4l2 1h-4l-4-4-8-1 1-6h2l4 4 2 1 1-2 1 1 1-3 1-8 3-1 1-7h2l-1-7z" fill="#030403"/>
<path transform="translate(602,294)" d="m0 0 1 2 3 1-1 8 13 12 13 6-3 1-5-2v1l10 9 4 4-5-2-13-12-3-3h-3l-7-8-5-2-2-1 3-5z" fill="#030402"/>
<path transform="translate(417,420)" d="m0 0 2 4-2 13-2-2-4 4-4-1-1-3-4 1-6 11-1 2h-3l-1 3-5-1-2 6-1-3 4-7 1 3h3v-2l4-4 6-11 4-3 2-3 2 10 3-2 4-13z" fill="#030402"/>
<path transform="translate(757,771)" d="m0 0h6l3 2 3 5 10 4h8l-1-5v-3l4 4-1 6h-15l-6-3-5-7-9 2-8 3-9-1v-3h9z" fill="#030402"/>
<path transform="translate(418,886)" d="m0 0h7l5 2 2 5-3-1v-2l-9-1 1 30 1 3-4-1-1-9v-25z" fill="#030402"/>
<path transform="translate(436,663)" d="m0 0 2 1 2 4 8 1-2 5 4 3v3l9-1-4 2-3 5 5 1-5 5-1-3h-3l1-4-5-9-3-1-2-5-2 1-1-4-4 1 2-4z" fill="#040502"/>
<path transform="translate(610,297)" d="m0 0 5 1 12 8 14 7h2l-1-5 2 1v3l5 2 7 5-4 2-8-4-6-2-9-6 2 5-3-1-6-7-9-6-4 1v-3z" fill="#030402"/>
<path transform="translate(407,751)" d="m0 0 7 1 2 3-1 3-2-1v-2h-7l-1 3-8 7-6 8-7 6-3-1 7-8h2v-2h2l2-4 7-8z" fill="#030402"/>
<path transform="translate(526,886)" d="m0 0h7l5 2 1 4-5-2-6-1v29l1 4h-3l-1-2v-33z" fill="#030402"/>
<path transform="translate(347,707)" d="m0 0v3l-11 9-5 3v-2l-6 1-3 5-8 6-3 1-2 4-1-5 5-4h2v-2l3-1 4-6 14-4 3-3 6-3z" fill="#030402"/>
<path transform="translate(584,869)" d="m0 0 2 4-5 3v15h26v-15l-5-5h5l2 2v20h-31l-1-4 1-17 6-1z" fill="#030402"/>
<path transform="translate(679,729)" d="m0 0 3 1 2 7h2v6l-4 4-10 3-1-2-6-2-5-6 5 1 4 3h8l3-2v-11l-2-1z" fill="#030403"/>
<path transform="translate(367,646)" d="m0 0v3l-1 5 4-2 1 3v-2h3l-1 4-2 3h-2l-1 4-2-2-6 2v-2l-2-1 4-2-1-5-8 2-1-2 9-3z" fill="#1C1709"/>
<path transform="translate(500,572)" d="m0 0h2v2h2l-1 5 5-1 2 4h-2l-1 3-4-2v6l-3 1-2-1-1-4 3-2-7 2v-2l-3-1 3-3 5-1 2 1v-3h-2z" fill="#D7A83D"/>
<path transform="translate(469,527)" d="m0 0 5 1 8 6 2 1v9l-2-4-1-3-5-2-3-3-3 4-2-2-6 4-3 3-6-1 4-4 12-7z" fill="#0B0A04"/>
<path transform="translate(430,65)" d="m0 0 8 2 4 5 1 4v48l-2 9h-1l1-12v-22l-1-23-2-5-10-4z" fill="#030402"/>
<path transform="translate(504,346)" d="m0 0 1 3 4 4-2 1v-2h-6l-7 8v15l2 5-1 4-2-4-2-1-1-7-1-2 2-13h2l2-5z" fill="#030402"/>
<path transform="translate(474,914)" d="m0 0h1l1 9-3-3-2 6-3 1h-23l-5-1 1-2h27l2-9z" fill="#030402"/>
<path transform="translate(199,760)" d="m0 0 2 3 1 6-5 4-9 1-2-3 1-5 5-3 5 3v3h2l-2-8z" fill="#03293D"/>
<path transform="translate(774,736)" d="m0 0 2 1v12l-5 9h-2l-1 2v2l3 1-10 5-7 1 6-7 3-3 5-2 5-10v-7z" fill="#030706"/>
<path transform="translate(712,429)" d="m0 0 7 4 16 13 10 7-3 1-5-3-4-4-6-5-3-1 4 5-1 2-15-15-2-1v-2z" fill="#030808"/>
<path transform="translate(529,545)" d="m0 0 1 3 5 1 9 7 5 4 11 14 1 5-2 2-2-6-7-10-5-5-8-6-7-4-3 3h-2l-2 4-4 2-1-3 4-1 2-4z" fill="#030402"/>
<path transform="translate(369,615)" d="m0 0 4 5 5 2 6 4-2 4-5-1-1 3h-6l-1-9z" fill="#161307"/>
<path transform="translate(399,713)" d="m0 0h3l2 3 9 2 1 5-10 4-3-2-2-7z" fill="#030402"/>
<path transform="translate(802,773)" d="m0 0h6l3 3v8l-3 3-1-3v-6l-5-1h-2l-1 8 5 6 10 1v2h-9l-6-4-3-6 1-7 3-1v-2z" fill="#DBAB3E"/>
<path transform="translate(560,684)" d="m0 0 3 1-2 4-4 12h2v2l-5 3-3-2-8 7-2-1v-3h3l2-4-3-3 12 1 1-6-1-4 3-4h2z" fill="#221C0A"/>
<path transform="translate(376,397)" d="m0 0 2 1-6 7-6 12-3-2 4-5-5 4-4-1-1 3-5 2-8 9-2-1 4-5-4 1-1-3 9-3 8-5 5-1 5-5z" fill="#030402"/>
<path transform="translate(348,732)" d="m0 0v3l-9 9-11 7-12 1 1-3 10-3 6-4 4-2 1-2 5-2z" fill="#030402"/>
<path transform="translate(567,65)" d="m0 0 9 3 3 4v75l-4 4 2-6v-71l-2-3-10-4z" fill="#030402"/>
<path transform="translate(511,886)" d="m0 0h8l1 1v33l-2 2h-3v-2h3l-1-30h-7v2l-4 2-2-2 5-5z" fill="#030402"/>
<path transform="translate(220,575)" d="m0 0 2 1v2h2v2l6 2 7 3 16 3 10 5 9 7-2 1-11-7-7-3-15-3-8-4-5-1v-2l-4-2z" fill="#030402"/>
<path transform="translate(492,902)" d="m0 0 4 1 3 3 2 7v7l-5 6-7 2-9-1-4-2v-2l13 1 6-3 2-3v-9z" fill="#030402"/>
<path transform="translate(660,66)" d="m0 0 9 1 4 4 1 3v73l-3 3 1-4v-74l-9-3z" fill="#030402"/>
<path transform="translate(773,886)" d="m0 0 5 1-3 3v32h-3l-1-2v-32z" fill="#030402"/>
<path transform="translate(565,661)" d="m0 0 2 1-1 5-8 17-3-1-1 4-1-4 1-5-4-2 7-1v-4h2v-2h2l1-4z" fill="#040503"/>
<path transform="translate(675,729)" d="m0 0 5 2 1 2v9l-4 3h-8l-5-4v-7l3-1 3 8h6l2-5-4-5z" fill="#DBAB3E"/>
<path transform="translate(361,65)" d="m0 0 10 2 4 4 1 3 1 51 2 14-2-1-2-10-1-50-2-8-9-2-2-1z" fill="#030402"/>
<path transform="translate(350,653)" d="m0 0 2 2v6l-2-2v5l3 1-5 3-6 1v-2l6-2-1-1-1-3-2 4-5 1-1-3 2-5z" fill="#161307"/>
<path transform="translate(386,474)" d="m0 0 1 3-1 8-1 2-6 3-5 4v3h-2l-2 4h-5l2-4 7-8 3-3h2z" fill="#030402"/>
<path transform="translate(304,735)" d="m0 0 4 1v3l-3 2-7 2-2 6-1 14-1 5h-3v-6l1-2v-9l4-12 5-1z" fill="#030402"/>
<path transform="translate(718,668)" d="m0 0 7 1 5 5-1 3-4-4v-2l-5-1 3 12 1 12 2 6h6l-1 2h-5l-5-6-2-19-3-8z" fill="#030402"/>
<path transform="translate(690,606)" d="m0 0 6 2-1 4 6 10v5l3 1 1 5h4l1 9-1 2-3-1-1-5-3-5-1-4-3-5-2-5-2-2-2-5-2-4z" fill="#030402"/>
<path transform="translate(593,579)" d="m0 0 4 1 2 4 4 1-2 4-2 3-2 6h-2l-4-15z" fill="#032639"/>
<path transform="translate(432,538)" d="m0 0h1l1 9h-2l-1-3h-2l-1 4-2 1-4 10 3 4v2l4-1-1 5-3-1-6-9-2-2 1-3h2l3-6 7-9z" fill="#030402"/>
<path transform="translate(401,474)" d="m0 0 1 2v20l-2-4v-2l-2 1-3 9-5 6-2 3-1-4 2-5h2l5-11 1-7z" fill="#090904"/>
<path transform="translate(618,785)" d="m0 0h13l5 5-8 1h6l-1 3h-2l1 3-5 1-9-1 3-5-1-2 4-1-6-3z" fill="#110F06"/>
<path transform="translate(624,737)" d="m0 0 1 2h2v6l-4 4-2 1-2 3-5-1v-3l-3 2-2-1 1-6 3-3 4 6 5-3z" fill="#0B0A04"/>
<path transform="translate(659,886)" d="m0 0h7l1 1v33l-4 2 2-10v-23l-9 2-2 4-4-2 4-5z" fill="#030402"/>
<path transform="translate(828,754)" d="m0 0 2 1v6l-3 5h-5l4 10-1 10-1 3h-2l-1 4-4 1-1-2 3-1 4-7v-8l-5-9-2-3 9-1z" fill="#030403"/>
<path transform="translate(428,754)" d="m0 0h8l-1 3-2 1 2 5 6 8 15 11v2l9 2v1l-9-1-8-7-8-6-8-9-4-7z" fill="#030402"/>
<path transform="translate(381,366)" d="m0 0 2 1-7 10-8 4-6 4-12 4-8 3-2-1 3-3 9-3 6-3 9-3 10-8h2l1-4z" fill="#030402"/>
<path transform="translate(456,663)" d="m0 0 4 1 1 4 6-5-1 4-1 2h5l-6 6h-11l-3-2 6-2 1-2-2-1z" fill="#4F3F17"/>
<path transform="translate(338,175)" d="m0 0 4 1 10 6 1 2 10 5 9 5 13 7-1 2-17-8-18-11-11-8z" fill="#030402"/>
<path transform="translate(556,135)" d="m0 0 2 1-2 10-3 6-4 14-4-2 9-26z" fill="#030402"/>
<path transform="translate(772,647)" d="m0 0 3 1v18l-7 10-2 2-2 3-4-1h-2l1-3 6-3 3-1 1-4 3-6z" fill="#030402"/>
<path transform="translate(537,92)" d="m0 0h2l1 3-4 13-3 7-2 5-3 2-1-3 9-25z" fill="#030402"/>
<path transform="translate(515,651)" d="m0 0 2 3v2l3-1 1 4 2 1h-2v3l4-1 2 1v3l-4 2-2-2-1-4-2-1v-2l-1 7v3l-5 2v-3l-4-2-2-4 5 2 4 2z" fill="#060603"/>
<path transform="translate(548,377)" d="m0 0 4 2-2 5-3 5-5 5-2 6-3 2v3l-5 1 1-6 4-3 1-7 4-1 4-6h2z" fill="#030402"/>
<path transform="translate(579,702)" d="m0 0 2 1 3 7-1 4-12 2-3-2h2v-2l5-4z" fill="#03283B"/>
<path transform="translate(657,636)" d="m0 0 5 2 8 5-3 2-8 1-11 2 8-8-1-2h2z" fill="#030403"/>
<path transform="translate(301,889)" d="m0 0 6 2 3 2-1 7-2 2h-6l-1-5v-7z" fill="#042D43"/>
<path transform="translate(404,886)" d="m0 0h8v35l-3 1 1-5v-28l-7 2-3 3h-2l1-5z" fill="#030402"/>
<path transform="translate(259,660)" d="m0 0h5l-1 3-10 8-4 1 1 10 4 2 1 3-4-2-5-6v-7l11-9z" fill="#030402"/>
<path transform="translate(546,50)" d="m0 0 2 2 1 4-6 15-4 11-2-1 1-8z" fill="#030402"/>
<path transform="translate(633,52)" d="m0 0 3 1-2 8-7 19-3 2-2-2h2l1-6z" fill="#030402"/>
<path transform="translate(384,754)" d="m0 0h2v9l-5 9-2 5h-5l-1-4 1 2h2v-6l1 2 2-1-1-8 3-1z" fill="#030503"/>
<path transform="translate(672,669)" d="m0 0 3 3 3-3 3 5 3-3 1 5-3 1-2 4-3-1-2 3-3-4z" fill="#896C27"/>
<path transform="translate(515,603)" d="m0 0 1 3-1 2h-2l-1 7 3 1-4 1v11l-1 2 2 1-2 4v1l-1 8-2-1v-18l5-19z" fill="#110F06"/>
<path transform="translate(472,531)" d="m0 0 5 2 2 4-8 4-3-1-6 3-2-1 1-5 8-4h2z" fill="#8D6F28"/>
<path transform="translate(228,506)" d="m0 0 3 1-6 4-2 2-4 1h-4l-4 2-13 1-3-3 17-2 12-5z" fill="#030402"/>
<path transform="translate(466,467)" d="m0 0 3 1 8 17h-3l-6-12h-1l-1 13-1 3-4-1 2-1v-12l2-7z" fill="#030402"/>
<path transform="translate(259,586)" d="m0 0 6 2 2 1v2l5 2 5 4 5 9 2 7-1 9-1 2h-2l1-11-3-9-7-9-12-7z" fill="#030402"/>
<path transform="translate(476,888)" d="m0 0h2v10l4 5 9 6 3 5-1 6-5 3-6-1-5-5v-2l4 2v3h8l2-1v-8l-4-2-8-5v-2h-2l-2-6z" fill="#030402"/>
<path transform="translate(407,281)" d="m0 0 2 1-10 9h-7l2-2-9 1-9 3v-2l17-7h2v2z" fill="#030402"/>
<path transform="translate(338,886)" d="m0 0h10l5 3 1 4h-2v-2l-4-1h-7l-1 10h6l3-1v3h-11z" fill="#030402"/>
<path transform="translate(531,718)" d="m0 0 5 1 3 2h3l2-1 3 1-6 4h-2v-2h-2v2l-2 1 1 2-4 1-5-5v-4z" fill="#251F0D"/>
<path transform="translate(388,627)" d="m0 0 1 2 5 1 3 2-5 1-4 3-3 7-2 1-1 4h2l-1 3v-2l-4-1 1-6 3-6 4-5z" fill="#030402"/>
<path transform="translate(483,464)" d="m0 0 4 3 2 5 4-4 4 2-1 4-2-2-3 3-4-2-1-2-3-1v7l-2 10-3-2 3-17z" fill="#030402"/>
<path transform="translate(537,606)" d="m0 0 1 3-1 2h-2v2l5-1h10l3 1v5l-3-3-7-1-1 2-7 3 1-5-5-1 1-3-6 2 2-5 5 1v2z" fill="#030402"/>
<path transform="translate(643,135)" d="m0 0 2 4-4 12-2 2-2 9-2 3-3-1 9-26z" fill="#030402"/>
<path transform="translate(357,773)" d="m0 0 2 2v8l-2 5-7 6-7 3-7-1 4-2 9-4 5-4 1-2 1-9z" fill="#030402"/>
<path transform="translate(450,645)" d="m0 0 2 4-1 9 1 1 1-3 1 4-4 2v-2l-4 1-3-5-5 1-1-6 3-1 1-2 5 8h3v-10z" fill="#C49937"/>
<path transform="translate(335,359)" d="m0 0 2 1-14 15-1 2h-2l-2 4-5 4h-3l-7 8-2-1 4-5h2l2-4 2-2 5-2 7-8h2l2-4z" fill="#030402"/>
<path transform="translate(450,886)" d="m0 0h8l5 2 1 4-3-2-9-1v10l4 1 4-1v3h-11v-15z" fill="#030402"/>
<path transform="translate(633,726)" d="m0 0 7 3 3 1v2h-9l2 2h-2l1 6-2 9-3 3-3-1 1-3 2-1 1-3v-11z" fill="#060603"/>
<path transform="translate(508,386)" d="m0 0h6v5l-2-1v-2l-4 2-4 4-2 5-3-1-2 4-8 15-1-3 9-17 8-9z" fill="#030402"/>
<path transform="translate(595,359)" d="m0 0 2 1-1 2 4 2 13 4h2l1-2 9 5-3 1-5-3v2l-9-2-2-1v2l4 2-2 2-4-4v-2l-5-2-4-2v3l-2-1 1-3-3-1z" fill="#030402"/>
<path transform="translate(339,904)" d="m0 0h8l2 1-1 4-7-1v9l3 3h9v-2l3-1-2 4-2 1h-10l-4-2v-15z" fill="#030402"/>
<path transform="translate(382,884)" d="m0 0h2l9 23 3 10 4 5-5-1-4-9-9-26z" fill="#030402"/>
<path transform="translate(656,320)" d="m0 0 7 1 10 6 17 7 4 2v3l-5-2-12-5-6-3-5-2-6-4-4-2z" fill="#030402"/>
<path transform="translate(731,716)" d="m0 0h5l2 6 4 5 2 11 4 6 2 2-6-1-4-7-1-10-5-5 1-4-4-1z" fill="#030402"/>
<path transform="translate(291,687)" d="m0 0 2 1v8l-5 1-3 3-2 4h-12l5-5 3 3 6-8 5-5z" fill="#030402"/>
<path transform="translate(356,531)" d="m0 0h1l2 9v-8l2 4 5 9-1 2-3-4-2 9-2 1v-3h-3z" fill="#0E0C05"/>
<path transform="translate(696,154)" d="m0 0 3 2-2 2-9 1h-26l-1-3 11-1h16l8 1z" fill="#030402"/>
<path transform="translate(634,717)" d="m0 0 4 4 7 3 7 2 4-2h3v4l-4 2-5-1-6-1v-2h-3v2h-2l-5-6z" fill="#030402"/>
<path transform="translate(338,524)" d="m0 0h3v2h2l1 3-5 2-3 3-5 3-2 2-2-4-2-2h3l4-2v-3l7-1z" fill="#030402"/>
<path transform="translate(624,93)" d="m0 0h3v3h-2l-1 8-5 14-3 3-1-4 8-23z" fill="#030402"/>
<path transform="translate(683,762)" d="m0 0 7 4v2h-2l1 6v9l-6 10h-5l5-6 3-6v-9l-3-6z" fill="#030402"/>
<path transform="translate(739,762)" d="m0 0 2 4v5h-2v2l-7 1 1 3-10 1-8-3 1-3 3 1v2h2l1-2v2h2l1-2 1 2 9-3 3-9z" fill="#070703"/>
<path transform="translate(406,597)" d="m0 0 4 4 4 6-1 4-5-2-6-3-1-4 3-3h2z" fill="#03273A"/>
<path transform="translate(650,297)" d="m0 0 10 3 5 5 7 4 10 8 4 5v2l3 1h-4l-7-8-12-9-4-2-4-4-8-4z" fill="#030402"/>
<path transform="translate(240,773)" d="m0 0 13 6 5 2h8l5-1 3 1v4l-4 1-2-1-9-1-10-4-8-4z" fill="#070703"/>
<path transform="translate(758,682)" d="m0 0h5l2 10h-2l-1-4-1 1h-13v4l4 1h-6l-1-5v-4l11 1h4v-2l-3-1z" fill="#030402"/>
<path transform="translate(425,665)" d="m0 0h3l2 6 3-1 2-2 4 8-2 4-3-1-2-2-2 2-4-8z" fill="#32280F"/>
<path transform="translate(632,590)" d="m0 0h1l1 8-3 2-2 7-2-2-4 6-4-2v-6l3 4 4-8 3-1 2-5z" fill="#030402"/>
<path transform="translate(629,52)" d="m0 0h2l-2 6-5 5-3 1h-52v-1l48-1 5-2h3v-2h2z" fill="#030402"/>
<path transform="translate(298,906)" d="m0 0h5l9 12v2h-2v-2l-3-1-3-6-3-1 1 12-4-1z" fill="#030402"/>
<path transform="translate(710,518)" d="m0 0 4 5h-2l2 6 4 6 1 4v9l-2 2h-5l-1-2 5-3v-7l-6-9-1-6z" fill="#030402"/>
<path transform="translate(751,886)" d="m0 0 5 1-2 1-1 3v31l-3-1v-34z" fill="#030402"/>
<path transform="translate(358,654)" d="m0 0h3l2 6-9 4h-4l-1-7 2 2 2-4z" fill="#D5A73C"/>
<path transform="translate(641,514)" d="m0 0h18l3 3 4 2v7h-1l-2-6-13-2h-10l-1-2h2z" fill="#0F0D05"/>
<path transform="translate(751,497)" d="m0 0 13 5 17 5 8 2-4 2-23-6-13-6z" fill="#030402"/>
<path transform="translate(776,447)" d="m0 0 4 1 1 4 3 1 5 5 6 7v2h2v2l3 1 5 5 3 5-4-2-10-10-4-5-14-14z" fill="#030402"/>
<path transform="translate(449,904)" d="m0 0h9l3 5-2 2-1-2-6-2v8l2 6-5-1z" fill="#030402"/>
<path transform="translate(629,684)" d="m0 0 7 1-1 3h-2l1 8 3 8 3 6-1 2h5l1 2-5 1v-2h-2l-2-5-2-2-4-11v-6z" fill="#030402"/>
<path transform="translate(551,648)" d="m0 0 1 2-2 3 1 2-1 2 2 1-3 4h-2l-2 5h-2l-2 4 2 1-4-1-3-5h4l1-3 3 1v-5l3-2v3l1-3-1-5z" fill="#030402"/>
<path transform="translate(693,893)" d="m0 0 6 9 11 8 1 2v8l-3 2h-8l-5-5 1-2 6 5h7v-7l-10-8-5-5z" fill="#030402"/>
<path transform="translate(378,892)" d="m0 0h2l4 13-1 1h-9l1-6z" fill="#030909"/>
<path transform="translate(212,766)" d="m0 0h12l13 5-3 2-5-2v-2h-18l-4 6-2-2h-2l-2-1 5-4z" fill="#030402"/>
<path transform="translate(654,498)" d="m0 0 5 1 3 5v2h-2v-4h-5l-3 1v2l-17 1 4-2 3-1-2-2 2-2 2 2 8-1z" fill="#030402"/>
<path transform="translate(626,502)" d="m0 0 6 1 3 2h17l6 3-3 1-7-1-13 1-9-5z" fill="#DBAB3E"/>
<path transform="translate(620,753)" d="m0 0 2 4v9l1 9 17 1v1l-24 1 3-2v-9l-1-2v-6z" fill="#030402"/>
<path transform="translate(424,721)" d="m0 0 9 3 2 4-1 8h-2l-1 3-4 2-3 3-3-4 8-5h2l1-7v-3l-8-2z" fill="#030605"/>
<path transform="translate(715,474)" d="m0 0h2v2l4 2 8 5 3 1 2 4h-3l-4-2-4 2-7-10z" fill="#050705"/>
<path transform="translate(323,534)" d="m0 0 2 1 4 6 5-1-2 3-8 1-4-1-1-1v-7z" fill="#030402"/>
<path transform="translate(361,430)" d="m0 0 1 4-1 12 1 1 6-7v3l-6 9-3-1-1-2-2 3h-3l2-4 4-6-1-2 2-8z" fill="#030402"/>
<path transform="translate(439,886)" d="m0 0 4 1 1 1v32l-4 2 1-3 1-25z" fill="#030402"/>
<path transform="translate(536,743)" d="m0 0 5 4 13 6h4l1-3 6-2-1 4-3 1-1 3h-7l-10-5-5-3-2-2z" fill="#030402"/>
<path transform="translate(253,735)" d="m0 0 2 2 2 7v12l-2 7v6 3l-4-4 1-7 2-6v-13z" fill="#030402"/>
<path transform="translate(186,477)" d="m0 0 2 1-8 7-5 3 1-4h-14l1-2 14-2z" fill="#030402"/>
<path transform="translate(383,341)" d="m0 0h2v3l2 1-10 2-15 5-6 1-3-1-1-4h2v2l13-2 8-4z" fill="#030402"/>
<path transform="translate(544,630)" d="m0 0 2 1v2h-2l1 6v3h-2v2h2l-1 8h-3l-1-4-3-4 2-4 2-3h2z" fill="#161307"/>
<path transform="translate(608,468)" d="m0 0 5 2 7 5 12 6 6 1v2l-3 1-2 2-1-4-5-1-5-2v-2l-6-2-4-3v-2l-4-2z" fill="#030402"/>
<path transform="translate(606,433)" d="m0 0 17 4h5v2h-15l-4-2 1 6 4 4-1 2-5-5-3-6-2-3h3z" fill="#030402"/>
<path transform="translate(564,871)" d="m0 0 5 1 1 1v47l-7 2 3-3h2v-43l-4-3z" fill="#030402"/>
<path transform="translate(665,723)" d="m0 0 2 1v5l3 1 1 10h5v2h-6l-3-5v-4l-2-1-1-2h-5v-2h2v-2l3-1z" fill="#030402"/>
<path transform="translate(701,610)" d="m0 0 4 3 2-3h2l1 3v3l3 1-1 7-4 2-2-7v-3l-3-1v-2l-3-1z" fill="#B89034"/>
<path transform="translate(307,489)" d="m0 0 2 1v3h2l1-2 2 2-6 3-2-3-3 3v-2l-2 2 2 4-2 1v-2l-2-1-3 3h-2l2-4 1-6 5 1z" fill="#080803"/>
<path transform="translate(387,345)" d="m0 0 11 1 1 2h-10l-3 2-10 3-18 11-1-2 18-11 9-4h3z" fill="#030402"/>
<path transform="translate(543,297)" d="m0 0h1v6l-1 5 5 12 3 7-1 2 3 1v2h-5l-1-9-5-9v-2l-2-1v-7z" fill="#030504"/>
<path transform="translate(762,886)" d="m0 0h3l1 2v32l-1 2h-2v-33z" fill="#030402"/>
<path transform="translate(576,766)" d="m0 0h6l4 5v2l-4 2h-5l-2-3z" fill="#032C42"/>
<path transform="translate(682,706)" d="m0 0 3 3v7l-3 6h-2l-1 2-3 1-2 2-1-1v-5l4-1 2-4 4-4z" fill="#030402"/>
<path transform="translate(561,338)" d="m0 0 2 2h-2l-2 9-2 16v3l-2 2-1 3-2-7 1-3v2h2v-14z" fill="#030402"/>
<path transform="translate(484,886)" d="m0 0h8l4 4-1 2-4-3-6 2-1 5 4 2 4 4-5-2-5-4-1-6z" fill="#030402"/>
<path transform="translate(659,673)" d="m0 0 3 4v6l2 5-3 2v-3l-3-1-3-6 1-4 3-1z" fill="#33290F"/>
<path transform="translate(596,565)" d="m0 0h5l-1 5v3l1 3-3 1 3 6v2l-4-2-1-7h2v-3h-3l-1-4z" fill="#D1A33B"/>
<path transform="translate(627,504)" d="m0 0 8 4 15-1 5 1-1 2-13 2h-2-3v-2l-6-1-3-3z" fill="#030402"/>
<path transform="translate(622,780)" d="m0 0h17l2 2-3 1-21 1v-3z" fill="#181408"/>
<path transform="translate(239,515)" d="m0 0m-1 1m-1 1v3l-3 3-13 5h-9l1-2 6-1 6-2 8-5z" fill="#030402"/>
<path transform="translate(466,323)" d="m0 0 2 1-5 6-11 1-6 4-2-1 1-3 5-3 15-4z" fill="#030402"/>
<path transform="translate(474,635)" d="m0 0 5 1-1 7-2 6 1 4-3 3v-6l-5-6 1-2 2 1 3-3z" fill="#0F0D05"/>
<path transform="translate(618,277)" d="m0 0 5 3 1 4-6 4-4-1v2h2l1 4 1 2-5-1-1-3-3 1-1-3 4-2v-2l9-1v-4l-3-1z" fill="#060602"/>
<path transform="translate(702,882)" d="m0 0h12l4 4v8l-2 1-2-10-10-1-6 3-2 2-2 4v-5l5-5z" fill="#030402"/>
<path transform="translate(712,734)" d="m0 0h1v6l-3 3-3 5-5 3 1 2-6-2-1-3 7-1 4-5 3-5z" fill="#030402"/>
<path transform="translate(662,679)" d="m0 0 5 4 3 1 3-1-1 8-1 2h-2l-2-5h-3l-3-5z" fill="#100E05"/>
<path transform="translate(441,787)" d="m0 0 7 1 6 4h8l3-3 2 1v2h-2l-1 3-9 1-11-6z" fill="#030402"/>
<path transform="translate(465,742)" d="m0 0h3l2 9-1 2h-2l-2 4-4 6h-5l-1-2 5-2 5-7h2l-1-7z" fill="#030402"/>
<path transform="translate(540,534)" d="m0 0 8 2 2 3-4-1v2l3 1-2 4-3 1-1-3-2-1-3-4h3l-2-2z" fill="#876A26"/>
<path transform="translate(604,924)" d="m0 0h20l2 2-1 1h-14l-6 1-2-3z" fill="#030402"/>
<path transform="translate(585,922)" d="m0 0 2 4-1 1h-12l-7 1-2-4h20z" fill="#030402"/>
<path transform="translate(590,755)" d="m0 0 5 2 11 8 3 3 4 8-1 3-3-1-2-9-8-6-9-6z" fill="#030402"/>
<path transform="translate(674,727)" d="m0 0 3 1-2 3v2l3 1 1 4-3 3-5-1-1-3 2-2v-6z" fill="#030402"/>
<path transform="translate(727,516)" d="m0 0 3 3v8l-2 3v-7l-6 3h-6l-2-1v-2l10-1 2-5z" fill="#030402"/>
<path transform="translate(509,541)" d="m0 0 4 1 8 1 1 4-4 4h-2l-5-6-2-1z" fill="#030707"/>
<path transform="translate(427,660)" d="m0 0h5l1 7h3l-1 2-3 4h-2l-3-6-2-3h2z" fill="#C29737"/>
<path transform="translate(640,620)" d="m0 0 8 8 2 4-8 5-3-1 4-3-1-2v-5l-2-1z" fill="#030707"/>
<path transform="translate(670,661)" d="m0 0h4l1 4v3l1 5-3-2-2 4-2-6v-7z" fill="#463814"/>
<path transform="translate(612,546)" d="m0 0h9l-3 10-4 3-3-1 5-3 1-4h-5l-4 2-2-3 3-2v2l2-1z" fill="#060602"/>
<path transform="translate(200,773)" d="m0 0 1 2-1 5v8l1 3 7 4-3 1-5-2v-2h-2l-2-5 1-9z" fill="#030403"/>
<path transform="translate(736,693)" d="m0 0 10 4 6-1 5-1 2 2-4 1v2h-12l-7-5z" fill="#030402"/>
<path transform="translate(458,554)" d="m0 0 2 3-3 1zm-6 3 3 4-2 4-4 1-3-2-2 1 2-5 4-2z" fill="#67511E"/>
<path transform="translate(594,546)" d="m0 0h2v9l1 3h2l-1 4h-2l-1 7h-1v-9l-2-8z" fill="#0A0904"/>
<path transform="translate(351,758)" d="m0 0h2l-1 4-4 3-4 1h-8l1-3 11-3z" fill="#03283C"/>
<path transform="translate(345,743)" d="m0 0v3 2h2l-2 6h-3v-3l-3 1h-10v-1l9-3z" fill="#030403"/>
<path transform="translate(737,456)" d="m0 0 4 1v2h2l2 5 3 1 3 3v2h2l4 7v2l-4-2-3-6-10-10v-2h-2z" fill="#030403"/>
<path transform="translate(402,687)" d="m0 0 4 4 1 8-1 5 2 4 3 2v2l-4-2-4-5 1-10-3-7z" fill="#030402"/>
<path transform="translate(478,615)" d="m0 0h2v2l-1 1h6l-1 2-6 2-2 5v2l4 1-7 1v-8z" fill="#030402"/>
<path transform="translate(620,564)" d="m0 0h5l-2 5-6 3-2 2-2-6 3-1-1-2z" fill="#0A0904"/>
<path transform="translate(787,480)" d="m0 0 6 1 9 4 9 1 2-2-1 5-9-1-13-4z" fill="#030402"/>
<path transform="translate(507,464)" d="m0 0h2l2 5-1 3h-2l-2 10-3-1 2-14z" fill="#030402"/>
<path transform="translate(382,434)" d="m0 0h2l-1 6-7 12h-3v-4l2-1 1-3 2-2z" fill="#032537"/>
<path transform="translate(398,366)" d="m0 0 4 1-1 4-7 4-7 8-2-1 1-2-5 1 4-3 5-2z" fill="#030402"/>
<path transform="translate(289,887)" d="m0 0 4 1v32l-3 2v-3l1-6v-17z" fill="#030402"/>
<path transform="translate(774,736)" d="m0 0 2 1v12l-5 9h-2l-1 2v-3l5-10v-7z" fill="#030402"/>
<path transform="translate(521,467)" d="m0 0 4 1 1 8-2-4h-2l-1 4-5 4-3-1 1-2 3-1z" fill="#030402"/>
<path transform="translate(215,772)" d="m0 0 5 1 4 9-4 13-4 2 2-5 2-9 1-6h-2v-3l-4-1z" fill="#030403"/>
<path transform="translate(584,760)" d="m0 0 4 1 8 6 4 5 5 2 3 3-5-1-5-3-10-9z" fill="#030402"/>
<path transform="translate(579,505)" d="m0 0 2 3-1 5-3 7 1 7 1 2-4-2-3-3 2-5h2l2-9z" fill="#030402"/>
<path transform="translate(610,475)" d="m0 0 5 5 7 14 1 6h-2l-5-12-6-10z" fill="#030402"/>
<path transform="translate(405,656)" d="m0 0 3 1 3 11v10l-2 2-1-3v-10l-3-9z" fill="#030402"/>
<path transform="translate(228,634)" d="m0 0 5 2 4 10v3h2l-3 10h-1v-14h-2l-2-9h-3z" fill="#030402"/>
<path transform="translate(205,540)" d="m0 0 7 1 5 6 1 4h-2v-2h-2l-2-4-4-1-3 2-4-2z" fill="#030402"/>
<path transform="translate(272,867)" d="m0 0 4 1 2 3 1 13-4 1-1-3h2l-1-13h-5z" fill="#030402"/>
<path transform="translate(419,766)" d="m0 0 4 2 5 4 11 8 2 7-2-1-1-5-5-2-12-9z" fill="#030402"/>
<path transform="translate(464,702)" d="m0 0h2l1 5-5 2-5-1-2-3h2v-2z" fill="#0F0D05"/>
<path transform="translate(762,645)" d="m0 0 2 4h2l1 3 3 1-1 7-4 3-1-11-2-4z" fill="#030403"/>
<path transform="translate(603,575)" d="m0 0 9 2h4l-2 4-1-2h-2l-1 3-6 3v-5z" fill="#030402"/>
<path transform="translate(278,491)" d="m0 0h2v2l5 1-1 3h-2l-1 3-1-3-7 1-4 1 5-5z" fill="#030402"/>
<path transform="translate(566,783)" d="m0 0 3 1-3 7-4 1-3-4v-3z" fill="#070703"/>
<path transform="translate(449,750)" d="m0 0h7l4 3-5 7-7-1v-3l4-1h4l-4-2v-2z" fill="#030402"/>
<path transform="translate(238,551)" d="m0 0 4 2 3 6 1 13-3 1-1-13z" fill="#030402"/>
<path transform="translate(388,423)" d="m0 0 1 3-2 6h2l-1 13h-1v-10l1-2-4 3-2-5z" fill="#030707"/>
<path transform="translate(736,362)" d="m0 0 6 4 13 13 2 1v3l3 1-1 3-14-15-9-8z" fill="#030402"/>
<path transform="translate(683,691)" d="m0 0 3 1v3l2-1v6l-5 5h-3l2-4-2-1 1-2h2v-3l-2-1z" fill="#030402"/>
<path transform="translate(652,651)" d="m0 0 1 2 6-1v2h-2l-1 2-5-1v3l-3 1-2-1-1 2v-2l-2-1z" fill="#030402"/>
<path transform="translate(294,560)" d="m0 0h1v7l-3 1h-8l-4-2 2-4 3 3 6-1z" fill="#030402"/>
<path transform="translate(628,791)" d="m0 0h6l-1 3h-2l1 3-5 1-9-1 2-3 6-1z" fill="#1C1809"/>
<path transform="translate(709,768)" d="m0 0 4 4v4l-12-2-1-3h6l3-1z" fill="#1C1809"/>
<path transform="translate(240,682)" d="m0 0 4 5 7 6 10 4v1l-6 1-12-9-3-5z" fill="#030402"/>
<path transform="translate(620,401)" d="m0 0 13 3h5l1-3 1 5-1 2-7-1-7-2-1 2-1-3-3-1z" fill="#030402"/>
<path transform="translate(632,886)" d="m0 0h3l1 2v32l-1 2-3-1 2-3v-27z" fill="#030402"/>
<path transform="translate(384,738)" d="m0 0 5 1 9 2 1 2-10-1-3-1 1 11h-2l-1-5z" fill="#030402"/>
<path transform="translate(749,524)" d="m0 0 3 3 3 5 2 7 1 2-7 4 1-11z" fill="#030402"/>
<path transform="translate(529,286)" d="m0 0 2 2 5 12 1-1 2-1-1 11-2-2-6-15z" fill="#030605"/>
<path transform="translate(530,923)" d="m0 0 2 1v3l-4 1-12-2-2-2z" fill="#030504"/>
<path transform="translate(698,715)" d="m0 0 4 2v2l7 2 9 6v3l-1-2-6-2-10-6-3-3z" fill="#030402"/>
<path transform="translate(345,658)" d="m0 0 2 1 1 3v4l-9 2-4-1 2-5 2-1v4l5-1z" fill="#DBAB3E"/>
<path transform="translate(713,500)" d="m0 0 2 2 3 12 6 2-1 2-6-1-3-5-3-11z" fill="#030402"/>
<path transform="translate(769,490)" d="m0 0 5 1 5 5 5 4 1 2 5 3 1 2-5-2-11-9-6-5z" fill="#030402"/>
<path transform="translate(590,401)" d="m0 0 10 3 3 1 1-2 1 2-1 2h-3l3 2v2l2 1h-2l-1 2-3-5-3-3-4-2-2 2z" fill="#030402"/>
<path transform="translate(405,718)" d="m0 0 7 2-1 4-1 1h-7v-6z" fill="#032B40"/>
<path transform="translate(713,617)" d="m0 0 3 2 2 10v11h-1l-1-11h-3v-4h2l-2-5z" fill="#030402"/>
<path transform="translate(793,427)" d="m0 0 4 2v3l3 1 6 8 4 4v2h-2l-7-8-8-10z" fill="#030402"/>
<path transform="translate(450,645)" d="m0 0 2 4-1 9 1 1 1-3 1 4-4 2v-2l-4 1 2-4 1-4v-7z" fill="#070703"/>
<path transform="translate(591,586)" d="m0 0 2 1 2 11h2l-2 8h-2l-2-15z" fill="#030402"/>
<path transform="translate(410,924)" d="m0 0h14v3h-14l-2-2z" fill="#030402"/>
<path transform="translate(362,754)" d="m0 0h2l2 4v5l-6 1 3-3-6 2 2-4z" fill="#030403"/>
<path transform="translate(667,663)" d="m0 0 3 4 1 6 1 4-4-3-4-1-4-2 1-2h4l2-2-1-2z" fill="#CC9F3A"/>
<path transform="translate(669,661)" d="m0 0m-4 1h4l-1 3v3l-3 3-5-2 4-2-1-1-6-2v-1z" fill="#070703"/>
<path transform="translate(500,615)" d="m0 0h4l1 9-1 2h2l-1 4 1 2-2 3-4-1h3v-3h-3l1-3 2 1-1-9 1-3-3 1z" fill="#030402"/>
<path transform="translate(718,485)" d="m0 0 7 6h3l1 4-6 1-4-1 1-2 2 1-5-8z" fill="#030402"/>
<path transform="translate(639,673)" d="m0 0 5 1h12v2h-3l-1 3-6-1h-3l-5-4z" fill="#030402"/>
<path transform="translate(558,639)" d="m0 0 3 1 1 4h2v-2l2 1-6 10-3 3 1-5 1-2v-8z" fill="#030402"/>
<path transform="translate(575,501)" d="m0 0 4 4h-2l-1 6-3 1 1 6-6-5-3-3 9-1 1-5z" fill="#030402"/>
<path transform="translate(559,420)" d="m0 0 2 2v5l-7 1-3 4-1 3-3-7h5v-3h6z" fill="#030402"/>
<path transform="translate(609,374)" d="m0 0 3 1 1 2 3 2-2 3h-4v3l-8-4v-2l10 1z" fill="#0C0B04"/>
<path transform="translate(742,924)" d="m0 0h14v3h-14z" fill="#030402"/>
<path transform="translate(742,886)" d="m0 0 2 1v34h-3l1-2v-29l-1-3z" fill="#030402"/>
<path transform="translate(653,739)" d="m0 0 3 2v3l1-2 3 1 2 3v3l-5-1-4-3-1-4z" fill="#030402"/>
<path transform="translate(639,733)" d="m0 0h2v4h3l-1-2h5l1 6-10-2v-2l-2-1z" fill="#030403"/>
<path transform="translate(799,453)" d="m0 0 8 5 8 4 1 2-6-1-9-5-2-2z" fill="#030402"/>
<path transform="translate(643,667)" d="m0 0 9 1 3 1-3 4-8-1-2-4z" fill="#030402"/>
<path transform="translate(466,663)" d="m0 0 1 3-2 3h5l-6 6h-7v-1l7-2-4-2z" fill="#030402"/>
<path transform="translate(508,596)" d="m0 0 1 4-2 4-2 1-1 9-2-2v-4h-3l1-3h2v-2l4-1z" fill="#030402"/>
<path transform="translate(313,586)" d="m0 0 2 3 3 6v3l-6-6-8 1 1-2 7-2z" fill="#030403"/>
<path transform="translate(708,487)" d="m0 0 5 2-1 2-3 3 3 4h-4l-3-6z" fill="#030402"/>
<path transform="translate(342,410)" d="m0 0 1 3-2 6-10 8-2 1 2-4 9-8-4 1z" fill="#030402"/>
<path transform="translate(763,924)" d="m0 0h13l2 2-2 1h-12l-2-2z" fill="#030402"/>
<path transform="translate(291,786)" d="m0 0 1 3 2 1h-14l-3-2 9-1z" fill="#030402"/>
<path transform="translate(802,776)" d="m0 0 5 1 1 1v6l-4-4h-3l-1 7-2-2 1-6z" fill="#030402"/>
<path transform="translate(191,763)" d="m0 0 5 2v3l-4-1-3 3v4l-3-3 1-5z" fill="#030402"/>
<path transform="translate(338,707)" d="m0 0 2 1-9 6-4 2-3-1 4-4z" fill="#030402"/>
<path transform="translate(506,662)" d="m0 0 5 2 4 2v-3h2l-1 4 1 2-5 2v-3l-4-2z" fill="#080803"/>
<path transform="translate(373,500)" d="m0 0h1v7l5 2 3 3-1 2-6-5-7-2 2-4z" fill="#030402"/>
<path transform="translate(714,484)" d="m0 0h2l6 8v2l-10-5-1-3h3z" fill="#BB9235"/>
<path transform="translate(746,455)" d="m0 0 6 4 7 4 8 4-3 1-10-4v-2l-5-2-3-3z" fill="#030402"/>
<path transform="translate(570,403)" d="m0 0 13 7 4 2-4 1-1 2-9-8-4-1z" fill="#080803"/>
<path transform="translate(302,400)" d="m0 0 3 2-4 1v2l-7 6h-2l-1 2v-3l6-7z" fill="#030402"/>
<path transform="translate(690,325)" d="m0 0 11 7 3 2v2l4 1 1 3-4-2-10-7-5-4z" fill="#030402"/>
<path transform="translate(448,304)" d="m0 0h3l-1 3-2 1v7l5 3v2l-6-2-2-3v-6z" fill="#030605"/>
<path transform="translate(688,747)" d="m0 0 7 2 1 3 2 2h-3l-2-1v-2l-11-1v-2z" fill="#030503"/>
<path transform="translate(574,645)" d="m0 0 2 2-5 1-2 8-2-3-1 5-2-4 1-2-2-1 3-3v3l2-2v-2z" fill="#030402"/>
<path transform="translate(441,608)" d="m0 0 3 4v5l2-1v3h-2l-1 4h-1l-2-9z" fill="#030402"/>
<path transform="translate(248,572)" d="m0 0 1 2-1 6 8 4v2l-6-2-5-5 1-5z" fill="#030402"/>
<path transform="translate(384,518)" d="m0 0h2l5 10h4l2 1-2 2-6-1-4-6z" fill="#030503"/>
<path transform="translate(767,468)" d="m0 0 5 2 9 6 6 3-3 1-4-1-2-2-7-4-4-4z" fill="#030402"/>
<path transform="translate(652,417)" d="m0 0 7 2 7 7 2 1v2l-4-2-11-8z" fill="#080803"/>
<path transform="translate(596,332)" d="m0 0 4 4-4-1 3 5-4 2-3 1v2l-4-2 5-1v-7z" fill="#030402"/>
<path transform="translate(662,924)" d="m0 0h17l-1 3h-10l-6-2z" fill="#030402"/>
<path transform="translate(225,663)" d="m0 0 5 5 7 5 2 6-2 1-3-7-6-3-3-4z" fill="#030402"/>
<path transform="translate(524,614)" d="m0 0 4 4 2 6-1 5-2-2v-6l-7-3 1-2h3z" fill="#030503"/>
<path transform="translate(515,603)" d="m0 0 1 3-1 2h-2l-1 7 3 1-4 1v3h-2l1-8 2-6z" fill="#030402"/>
<path transform="translate(607,553)" d="m0 0 2 4-2 5h-2l-1 2-4-1 1-5h3z" fill="#131108"/>
<path transform="translate(400,528)" d="m0 0 1 4-1 6 4 3-1 2-8-4 1-3 2-2z" fill="#030402"/>
<path transform="translate(630,461)" d="m0 0h3l5 6 8 7 1 4-7-6-10-10z" fill="#030402"/>
<path transform="translate(323,778)" d="m0 0 5 1-3 2-10 3-5-1 3-2z" fill="#030402"/>
<path transform="translate(240,773)" d="m0 0 13 6 5 2 1 2-6-1-12-6z" fill="#030402"/>
<path transform="translate(631,678)" d="m0 0 12 2 1 3h-11z" fill="#030402"/>
<path transform="translate(502,541)" d="m0 0 1 2h-3l-2 4-5 2-1-5 4-2z" fill="#030402"/>
<path transform="translate(331,515)" d="m0 0 2 1-2 4-2 3h-7l1-3 6-3z" fill="#030402"/>
<path transform="translate(557,508)" d="m0 0v3l-4 5v-2l-6 2-1 4-1-2-2 1 2-4 11-6z" fill="#030402"/>
<path transform="translate(394,495)" d="m0 0 2 2-3 6-3 3-2 3-1-4 2-5h2z" fill="#030402"/>
<path transform="translate(606,412)" d="m0 0 15 6-2 2-3-2 1 3h-4l1-2 1-1-4-1h-3z" fill="#080803"/>
<path transform="translate(769,399)" d="m0 0 4 2 6 7v2h2l2 4h-3l-11-14z" fill="#030402"/>
<path transform="translate(590,299)" d="m0 0 3 4v2l2 1h-3l3 7-1 2-4-7-3 2 2-5z" fill="#030402"/>
<path transform="translate(386,924)" d="m0 0h14l1 3h-9l-6-2z" fill="#030402"/>
<path transform="translate(560,684)" d="m0 0 3 1-2 4-2 5-3 1-1-4 3-4h2z" fill="#66501D"/>
<path transform="translate(682,682)" d="m0 0 4 2 1 4-4 1-4 4 1-6z" fill="#030402"/>
<path transform="translate(653,676)" d="m0 0 3 1 1 5 3 6-1 4-4-6z" fill="#CFA13A"/>
<path transform="translate(402,679)" d="m0 0h6l-1 2h-2l-1 2-4 5-2-4 2-4z" fill="#030402"/>
<path transform="translate(677,669)" d="m0 0 4 5 3-3 1 5-3 1-1 2-5-6z" fill="#A07D2D"/>
<path transform="translate(542,624)" d="m0 0 2 1v2l7 2 7 8-2 2-8-9-5-1z" fill="#030402"/>
<path transform="translate(727,440)" d="m0 0 8 6 10 7-3 1-5-3-4-4-6-5z" fill="#030402"/>
<path transform="translate(564,408)" d="m0 0 1 3 2 4 5 5-4-1-6-2-1-6z" fill="#030402"/>
<path transform="translate(586,772)" d="m0 0 7 5v2l5 2-2 1-4-2v-2l-6-1-3-3z" fill="#090803"/>
<path transform="translate(716,646)" d="m0 0 2 2-1 10 2 2h-4v-2h-2l-1-7 1 2h2z" fill="#030402"/>
<path transform="translate(268,648)" d="m0 0 3 3-1 4-2 5-1 3-2-2-1-5 4-4z" fill="#030402"/>
<path transform="translate(659,640)" d="m0 0h7l4 4-3 1-6-1v-2h-2l-1 2z" fill="#031015"/>
<path transform="translate(726,538)" d="m0 0h1l2 6 7 7 1 5-2 1-1-5-6-5-2-3z" fill="#030402"/>
<path transform="translate(743,503)" d="m0 0 2 1 2 12h-2l-4-8v-4z" fill="#030402"/>
<path transform="translate(655,501)" d="m0 0 5 1v5l-8-1v-3z" fill="#032A3F"/>
<path transform="translate(265,487)" d="m0 0 2 1-9 8-10 2 5-4 9-4z" fill="#030402"/>
<path transform="translate(816,464)" d="m0 0 10 3 5 2v3l-11-3-4-3z" fill="#030402"/>
<path transform="translate(258,445)" d="m0 0 3 1-6 8-2 2-1-5z" fill="#031E2B"/>
<path transform="translate(567,866)" d="m0 0 16 1-1 2h-15z" fill="#030402"/>
<path transform="translate(198,796)" d="m0 0 11 2 6-2-1 4h-12l-2-1v-2z" fill="#030402"/>
<path transform="translate(207,778)" d="m0 0 9 1 1 5-2-1v-2l-7 1h-3z" fill="#030402"/>
<path transform="translate(742,755)" d="m0 0 7 2 1-2 1 3-5 2-3 6-2-1 1-2z" fill="#030503"/>
<path transform="translate(733,700)" d="m0 0h1l-1 9 2 1v3h-2l-3-3-2-1 1-4 3-2z" fill="#030402"/>
<path transform="translate(816,453)" d="m0 0h3l5 5 4 3v3l-4-2-8-7z" fill="#030402"/>
<path transform="translate(594,387)" d="m0 0 10 4 1-2 3 3-5 1h-3l-1 2-5-6z" fill="#030402"/>
<path transform="translate(290,924)" d="m0 0h14v2l-13 1z" fill="#030402"/>
<path transform="translate(808,772)" d="m0 0 4 1 2 9-2 4-2-2v-8z" fill="#030402"/>
<path transform="translate(583,598)" d="m0 0 4 1v8l-5 2-1-9z" fill="#DBAB3E"/>
<path transform="translate(429,592)" d="m0 0 5 5 4 6-4 1-5-9z" fill="#0F0D05"/>
<path transform="translate(296,572)" d="m0 0 3 4 7 7-1 4-2-1v-3h-2l-4-5z" fill="#030402"/>
<path transform="translate(332,553)" d="m0 0 8 1 6 1v2l-5 1-1 3-5-6z" fill="#161207"/>
<path transform="translate(508,386)" d="m0 0h6v5l-2-1v-2l-4 2-4 4v-2l-2-1z" fill="#090803"/>
<path transform="translate(450,356)" d="m0 0h2l-2 5-1 3-10-1v-2l8-1z" fill="#030402"/>
<path transform="translate(254,65)" d="m0 0h2l-2 4-6 9-3 6-1-3 4-8z" fill="#030402"/>
<path transform="translate(316,754)" d="m0 0 4 1 3 3v4h2l1 3h-5l-1-5-2-4z" fill="#030402"/>
<path transform="translate(505,582)" d="m0 0 2 4v5h-7l2-2 1-6z" fill="#090903"/>
<path transform="translate(580,530)" d="m0 0 5 2 7 6 2 6h-2l-3-5-9-7z" fill="#030402"/>
<path transform="translate(734,488)" d="m0 0 5 2 11 6-3 1-5-2-8-5z" fill="#030402"/>
<path transform="translate(535,457)" d="m0 0 1 3-5 11h-1l-1-13 2 3v2h2z" fill="#090903"/>
<path transform="translate(351,900)" d="m0 0 3 1v11h-3z" fill="#030402"/>
<path transform="translate(434,883)" d="m0 0 3 3-1 8h-3v-7z" fill="#030504"/>
<path transform="translate(607,866)" d="m0 0 14 1-1 2h-14l-2-2z" fill="#030402"/>
<path transform="translate(295,783)" d="m0 0 1 2 5-2 1 5-8 1v-5z" fill="#030402"/>
<path transform="translate(209,767)" d="m0 0h2l-2 5-3 3-2-3h-3l5-4z" fill="#030E12"/>
<path transform="translate(820,755)" d="m0 0 4 4-1 3h-9l-2-2 2-1 7 2-1-3-6-1v-1z" fill="#030402"/>
<path transform="translate(633,726)" d="m0 0 7 3 3 1v2h-11z" fill="#030402"/>
<path transform="translate(540,720)" d="m0 0 2 1 2-1 3 1-6 4h-2v-2h-2v2l-4 1 1-3z" fill="#030402"/>
<path transform="translate(404,635)" d="m0 0 8 2-1 6-4-1-2-4z" fill="#030402"/>
<path transform="translate(359,532)" d="m0 0 2 4 5 9-1 2-4-4-2-3z" fill="#030402"/>
<path transform="translate(288,504)" d="m0 0h2l1 3h-2v2l-4 1v2l-5 1 6-7z" fill="#030402"/>
<path transform="translate(680,450)" d="m0 0 2 1-2 3 1 8h-2l-1-4-4 1 4-6-2-1z" fill="#030402"/>
<path transform="translate(318,743)" d="m0 0h6l-4 3-7 2-1-2-3-2z" fill="#030402"/>
<path transform="translate(280,722)" d="m0 0h2l2 5-5 2-1-3-4-3z" fill="#030402"/>
<path transform="translate(561,617)" d="m0 0 3 4-1 2-3-1-7 1-1-2z" fill="#030402"/>
<path transform="translate(728,531)" d="m0 0 2 2 4 8v3l-4-2-1-1z" fill="#030402"/>
<path transform="translate(457,525)" d="m0 0 5 1-1 4-7 1v-2h2z" fill="#042D43"/>
<path transform="translate(546,317)" d="m0 0 3 4 2 6-1 2 3 1v2h-5l-1-9-2-4z" fill="#030402"/>
<path transform="translate(329,768)" d="m0 0 8 1-2 2-11 3v-2l3-1z" fill="#030402"/>
<path transform="translate(663,752)" d="m0 0h11l-2 1v3l-3 1-6-3z" fill="#030504"/>
<path transform="translate(680,749)" d="m0 0 1 4 9 3-4 2-11-6 3-2z" fill="#030504"/>
<path transform="translate(665,723)" d="m0 0 2 1v7l-8-1v-2h2v-2l3-1z" fill="#030504"/>
<path transform="translate(670,676)" d="m0 0 3 3-1 5-4-2-2-5 3 1z" fill="#1F1A0A"/>
<path transform="translate(489,664)" d="m0 0h2l2 2 2 1-3 3-4 2h-4v-2l6-1z" fill="#030402"/>
<path transform="translate(260,647)" d="m0 0 5 1v4l-6 1-2-3 3-1z" fill="#032231"/>
<path transform="translate(358,521)" d="m0 0 4 2 2 4v9h-2v-7l-4-6z" fill="#030402"/>
<path transform="translate(737,507)" d="m0 0 2 4 1 6-4-2-1-1v-6z" fill="#030402"/>
<path transform="translate(372,493)" d="m0 0 2 4h-2l-2 4h-5l6-7z" fill="#03090A"/>
<path transform="translate(722,351)" d="m0 0 4 1 2 1v2l4 2 4 5-5-2-9-8z" fill="#030402"/>
<path transform="translate(709,340)" d="m0 0 4 1 7 6 3 3h-3l-11-9z" fill="#030402"/>
<path transform="translate(514,297)" d="m0 0 9 1 2-1 2 6-10-3-5-1z" fill="#030504"/>
<path transform="translate(689,884)" d="m0 0 2 1-1 9-3 1-1-3h2v-7z" fill="#030402"/>
<path transform="translate(522,772)" d="m0 0 12 2v1l-16 1v-3z" fill="#DBAB3E"/>
<path transform="translate(633,731)" d="m0 0h7l1 2h-2l-2 4h-3z" fill="#DBAB3E"/>
<path transform="translate(468,610)" d="m0 0h3v3l-4 1v2l-7-1 3-3v2z" fill="#DBAB3E"/>
<path transform="translate(576,553)" d="m0 0 5 2h3l-1 4-3 2-4-6z" fill="#030402"/>
<path transform="translate(576,548)" d="m0 0 4 2v2h2l-1 5-5-4z" fill="#03283C"/>
<path transform="translate(457,536)" d="m0 0h4l1 3-5 2-4-2z" fill="#201B0A"/>
<path transform="translate(706,467)" d="m0 0 1 2 3 1h-3l-1 5-2 1 1 3-4-2 2-5 2-1z" fill="#0A0904"/>
<path transform="translate(307,779)" d="m0 0 3 4-3 1-2-1-1 5-2-2 2-5z" fill="#0A0904"/>
<path transform="translate(743,748)" d="m0 0h7v2h-2l2 4-2 1-4-4z" fill="#030402"/>
<path transform="translate(271,699)" d="m0 0 2 1-3 4-2 1-6-1 3-3z" fill="#030402"/>
<path transform="translate(572,658)" d="m0 0 1 4-2 7-3 1 1-6 1-2-2-1 4-1z" fill="#030402"/>
<path transform="translate(211,565)" d="m0 0 5 1 4 8h-2l-4-5h-4z" fill="#030402"/>
<path transform="translate(478,538)" d="m0 0 3 1-4 4-4 1-2-2z" fill="#392D11"/>
<path transform="translate(495,528)" d="m0 0 5 1 3 4-8 3-4-1 6-3 1-3z" fill="#030402"/>
<path transform="translate(689,460)" d="m0 0 2 1-4 3-1 3h2l1-2 1 4h-6l-1-4z" fill="#030402"/>
<path transform="translate(678,457)" d="m0 0h1l1 6-7 2 1-6z" fill="#DBAB3E"/>
<path transform="translate(463,899)" d="m0 0 2 1v13l-3-4v-8z" fill="#030402"/>
<path transform="translate(320,765)" d="m0 0 7 2v4l-2-1-5-1-8-1v-1l7-1z" fill="#030402"/>
<path transform="translate(304,761)" d="m0 0 4 4 3 1v2l-4 2-4-7z" fill="#030504"/>
<path transform="translate(199,760)" d="m0 0 2 3 1 6-4 2-1-2h2l-2-8z" fill="#030402"/>
<path transform="translate(671,736)" d="m0 0h6v5l-6-1-1-3z" fill="#042D43"/>
<path transform="translate(430,666)" d="m0 0 6 1-1 2-3 4h-2l-2-6z" fill="#CB9E39"/>
<path transform="translate(398,664)" d="m0 0 1 3-4 3 1 4-2 2-2-7z" fill="#030402"/>
<path transform="translate(479,662)" d="m0 0 1 2 3 1-1 2 1 3h-4l-2-2 3-3-4-1z" fill="#030402"/>
<path transform="translate(711,640)" d="m0 0 3 4v6l-3-1-1 4h-2v-2h2z" fill="#030402"/>
<path transform="translate(539,605)" d="m0 0h3l-2 6v2h-5v-2h2z" fill="#DBAB3E"/>
<path transform="translate(608,490)" d="m0 0 4 2 5 4 3 5-4-1-1-3-7-5z" fill="#030706"/>
<path transform="translate(618,330)" d="m0 0 1 2 4 2-1 4-7-1-1-2h5z" fill="#030402"/>
<path transform="translate(541,884)" d="m0 0 3 1-1 9-3-1z" fill="#030402"/>
<path transform="translate(234,767)" d="m0 0h5l5 3 4 2v2l-6-2-8-4z" fill="#030402"/>
<path transform="translate(446,645)" d="m0 0 1 4v8l-4-4-1-4 3-1z" fill="#030402"/>
<path transform="translate(219,635)" d="m0 0 5 3 1 3-7-1v2l-2-1z" fill="#030402"/>
<path transform="translate(437,623)" d="m0 0 3 1-1 6-2 5-1-4-1-2h3l-2-4z" fill="#030402"/>
<path transform="translate(635,621)" d="m0 0h2l3 9-4-2-4-5z" fill="#030402"/>
<path transform="translate(489,605)" d="m0 0h2v3h-2v2l3 1-2 2-2-1v2l-2-1v-3h2z" fill="#DBAB3E"/>
<path transform="translate(283,542)" d="m0 0 3 3 5 9v3l-2-1-6-12z" fill="#030402"/>
<path transform="translate(540,534)" d="m0 0 8 2 2 3-4-1-2 1-5-2z" fill="#4D3D16"/>
<path transform="translate(371,449)" d="m0 0 4 5-4 1-4-1z" fill="#030504"/>
</svg>
